<svg xmlns="http://www.w3.org/2000/svg" xmlns:xlink="http://www.w3.org/1999/xlink" width="1920" zoomAndPan="magnify" viewBox="0 0 1440 809.999993" height="1080" preserveAspectRatio="xMidYMid meet" version="1.0"><path fill="#fab158" d="M 892.753906 691.460938 C 875.585938 685.585938 857.125 683.332031 839.140625 682.183594 C 815.488281 680.675781 791.761719 679.753906 768.0625 680.214844 C 748.554688 680.59375 728.96875 681.105469 709.527344 682.875 C 698.363281 683.894531 686.972656 685.890625 675.746094 684.8125 C 674.851562 684.726562 670.363281 684.058594 673.160156 684.523438 C 671.523438 684.25 669.882812 684.015625 668.25 683.71875 C 664.804688 683.09375 661.382812 682.332031 658.003906 681.417969 C 654.660156 680.515625 651.363281 679.460938 648.125 678.238281 C 647.660156 678.0625 646.09375 677.644531 645.871094 677.351562 C 645.980469 677.492188 649.261719 678.921875 646.390625 677.535156 C 644.796875 676.769531 643.199219 676.019531 641.640625 675.183594 C 638.890625 673.707031 636.230469 672.070312 633.691406 670.257812 C 630.199219 667.761719 635.84375 672.140625 632.625 669.386719 C 631.3125 668.257812 630.042969 667.082031 628.832031 665.847656 C 627.742188 664.738281 626.738281 663.5625 625.699219 662.40625 C 623.632812 660.113281 626.195312 662.933594 626.378906 663.34375 C 626.101562 662.726562 625.421875 662.019531 625.023438 661.433594 C 624 659.921875 623.042969 658.363281 622.167969 656.761719 C 622.089844 656.617188 620.867188 654.722656 620.910156 654.347656 C 622.144531 657.214844 622.121094 657.144531 620.839844 654.136719 C 620.390625 652.929688 619.863281 651.757812 619.253906 650.625 C 618.457031 649.003906 617.65625 649.292969 619.582031 651.550781 C 619.1875 651.085938 618.792969 649.503906 618.625 649.039062 C 618.015625 647.347656 617.472656 645.632812 616.980469 643.90625 C 615.90625 640.121094 615.867188 635.519531 614.429688 631.925781 C 614.601562 632.351562 614.972656 636.671875 614.585938 633.082031 C 614.488281 632.167969 614.378906 631.261719 614.285156 630.347656 C 614.101562 628.515625 613.953125 626.683594 613.828125 624.847656 C 613.558594 620.945312 613.417969 617.035156 613.324219 613.125 C 612.851562 593 612.875 572.84375 613.03125 552.714844 C 613.207031 530.296875 613.679688 507.828125 615.03125 485.445312 C 615.289062 481.15625 615.613281 476.863281 616.085938 472.59375 C 616.199219 471.5625 616.765625 467.207031 616.117188 472.078125 C 615.488281 476.785156 615.980469 473.152344 616.144531 472.128906 C 616.386719 470.601562 616.660156 469.074219 617.007812 467.5625 C 617.273438 466.410156 617.632812 465.296875 617.949219 464.15625 C 618.9375 460.59375 615.023438 470.191406 617.171875 466.3125 C 618.140625 464.5625 619.140625 465.558594 615.996094 467.761719 C 616.503906 467.40625 617.164062 466.386719 617.539062 465.96875 C 618.597656 464.796875 619.71875 463.683594 620.886719 462.625 C 621.433594 462.128906 622.222656 461.621094 622.679688 461.074219 C 622.457031 461.34375 618.421875 464.082031 621.25 462.195312 C 622.757812 461.191406 624.234375 460.164062 625.800781 459.246094 C 627.203125 458.425781 628.636719 457.660156 630.097656 456.945312 C 630.832031 456.585938 631.582031 456.257812 632.324219 455.902344 C 634.925781 454.664062 627.210938 457.75 631.320312 456.375 C 634.703125 455.238281 638.035156 454.09375 641.511719 453.257812 C 643.148438 452.867188 644.796875 452.519531 646.453125 452.210938 C 647.28125 452.058594 648.113281 451.9375 648.941406 451.789062 C 651.667969 451.285156 644.40625 452.292969 647.160156 452.019531 C 650.691406 451.667969 654.203125 451.378906 657.753906 451.296875 C 676.253906 450.878906 694.765625 450.695312 713.269531 450.414062 C 746.449219 449.910156 779.628906 449.4375 812.804688 448.867188 C 874.546875 447.816406 936.28125 446.8125 997.933594 443.183594 C 1014.152344 442.230469 1030.367188 441.214844 1046.578125 440.136719 C 1062.492188 439.078125 1078.351562 437.410156 1094.285156 439.070312 C 1094.75 439.117188 1097.03125 439.503906 1094.582031 439.097656 C 1095.480469 439.246094 1096.378906 439.378906 1097.277344 439.535156 C 1099.058594 439.84375 1100.832031 440.199219 1102.597656 440.601562 C 1106.519531 441.496094 1110.320312 442.703125 1114.113281 444.035156 C 1114.425781 444.144531 1116.496094 444.984375 1114.582031 444.175781 C 1115.390625 444.515625 1116.191406 444.894531 1116.984375 445.273438 C 1118.566406 446.03125 1120.128906 446.820312 1121.636719 447.710938 C 1123.140625 448.597656 1124.578125 449.578125 1126.015625 450.566406 C 1126.238281 450.71875 1127.933594 452.0625 1126.5 450.90625 C 1127.347656 451.589844 1128.171875 452.304688 1128.972656 453.039062 C 1130.238281 454.195312 1131.445312 455.40625 1132.59375 456.675781 C 1133.160156 457.300781 1133.710938 457.941406 1134.253906 458.589844 C 1135.609375 460.214844 1133.332031 457.269531 1134.5625 458.992188 C 1136.648438 461.914062 1138.390625 464.988281 1140.101562 468.140625 C 1141.261719 470.273438 1140.597656 469.15625 1140.355469 468.589844 C 1140.6875 469.363281 1140.984375 470.160156 1141.28125 470.949219 C 1141.875 472.542969 1142.425781 474.152344 1142.9375 475.773438 C 1144.09375 479.457031 1145.042969 483.207031 1145.859375 486.984375 C 1146.585938 490.355469 1147.199219 493.757812 1147.742188 497.164062 C 1148.011719 498.863281 1148.261719 500.5625 1148.507812 502.261719 C 1148.894531 504.945312 1148.625 503.105469 1148.550781 502.539062 C 1148.648438 503.28125 1148.75 504.023438 1148.835938 504.769531 C 1149.207031 508.039062 1149.386719 511.324219 1149.5 514.609375 C 1149.820312 523.820312 1149.617188 533.050781 1149.285156 542.253906 C 1148.476562 564.449219 1146.78125 586.636719 1144.335938 608.710938 C 1144.0625 611.148438 1143.78125 613.585938 1143.488281 616.019531 C 1143.347656 617.191406 1143.203125 618.359375 1143.054688 619.527344 C 1142.980469 620.101562 1142.90625 620.671875 1142.832031 621.242188 C 1142.429688 624.433594 1143.363281 617.441406 1142.925781 620.554688 C 1142.347656 624.667969 1141.746094 628.777344 1141.042969 632.875 C 1140.476562 636.15625 1139.921875 639.445312 1139.164062 642.695312 C 1138.898438 643.832031 1138.621094 644.96875 1138.28125 646.089844 C 1138.144531 646.546875 1137.964844 647 1137.839844 647.457031 C 1137.128906 650.089844 1139.703125 644.007812 1138.789062 645.269531 C 1138.269531 645.988281 1137.917969 646.878906 1137.449219 647.640625 C 1137.058594 648.273438 1136.632812 648.878906 1136.230469 649.503906 C 1134.625 652.011719 1136.609375 649.191406 1136.65625 649.003906 C 1136.40625 650.015625 1134.425781 651.53125 1133.703125 652.25 C 1133.183594 652.761719 1132.648438 653.265625 1132.105469 653.753906 C 1131.273438 654.507812 1129.578125 656.835938 1131.839844 654.109375 C 1130.160156 656.132812 1126.535156 657.640625 1124.234375 658.832031 C 1123.308594 659.3125 1119.230469 661.523438 1122.765625 659.652344 C 1121.097656 660.535156 1119.070312 661.078125 1117.285156 661.652344 C 1114.261719 662.628906 1111.179688 663.425781 1108.070312 664.074219 C 1106.492188 664.40625 1104.90625 664.671875 1103.316406 664.949219 C 1102.488281 665.09375 1100.359375 665.667969 1103.90625 664.894531 C 1102.929688 665.109375 1101.878906 665.136719 1100.886719 665.234375 C 1094.226562 665.898438 1087.566406 665.9375 1080.890625 665.667969 C 1064.414062 665.011719 1047.871094 664.941406 1031.441406 666.464844 C 1022.554688 667.289062 1013.640625 668.46875 1004.902344 670.3125 C 1001.308594 671.074219 997.660156 671.867188 994.191406 673.085938 C 986.277344 675.863281 982.488281 681.554688 981.210938 689.507812 C 975.953125 722.175781 995.070312 751.714844 1016.804688 774.371094 C 1027.691406 785.722656 1039.910156 795.730469 1052.589844 805.007812 C 1053.769531 795.921875 1054.945312 786.839844 1056.121094 777.757812 C 1055.316406 777.886719 1054.507812 777.996094 1053.703125 778.128906 C 1056.9375 777.597656 1054.753906 777.996094 1054.042969 778.074219 C 1052.425781 778.253906 1050.816406 778.429688 1049.195312 778.570312 C 1045.757812 778.867188 1042.3125 779.035156 1038.867188 779.089844 C 1032.382812 779.191406 1025.894531 778.875 1019.449219 778.160156 C 1015.535156 777.726562 1021.347656 778.496094 1017.457031 777.914062 C 1015.855469 777.675781 1014.257812 777.410156 1012.667969 777.121094 C 1009.28125 776.511719 1005.917969 775.792969 1002.574219 774.96875 C 996.289062 773.421875 990.097656 771.503906 984.039062 769.226562 C 983.027344 768.847656 978.972656 767.09375 982.105469 768.5 C 980.636719 767.839844 979.160156 767.203125 977.699219 766.519531 C 974.601562 765.074219 971.546875 763.53125 968.539062 761.898438 C 962.894531 758.832031 957.429688 755.445312 952.175781 751.75 C 950.867188 750.828125 949.59375 749.859375 948.289062 748.929688 C 946.425781 747.601562 950.515625 750.710938 948.734375 749.289062 C 948.117188 748.792969 947.488281 748.304688 946.867188 747.804688 C 944.246094 745.6875 941.691406 743.488281 939.207031 741.207031 C 934.5625 736.9375 930.171875 732.378906 926.09375 727.5625 C 925.585938 726.960938 925.082031 726.355469 924.585938 725.75 C 924.449219 725.585938 921.972656 722.636719 923.71875 724.710938 C 925.289062 726.570312 923.644531 724.601562 923.273438 724.109375 C 922.691406 723.328125 922.113281 722.539062 921.546875 721.746094 C 919.511719 718.894531 917.578125 715.964844 915.765625 712.964844 C 913.855469 709.800781 912.074219 706.558594 910.4375 703.246094 C 909.65625 701.671875 908.929688 700.082031 908.199219 698.488281 C 907.074219 696.023438 908.375 699.480469 908.617188 699.511719 C 908.308594 699.472656 907.433594 696.515625 907.332031 696.261719 C 905.503906 691.78125 903.460938 688.140625 899.117188 685.605469 C 895.289062 683.371094 889.648438 682.429688 885.363281 683.820312 C 877.046875 686.523438 869.144531 696.535156 872.921875 705.792969 C 895.902344 762.15625 952.761719 799.628906 1012.042969 807.527344 C 1029.515625 809.855469 1046.699219 809.449219 1064.078125 806.496094 C 1069.792969 805.523438 1074.039062 799.363281 1074.742188 794.09375 C 1075.578125 787.828125 1072.609375 782.816406 1067.609375 779.246094 C 1065.488281 777.730469 1063.382812 776.195312 1061.289062 774.640625 C 1060.21875 773.847656 1059.15625 773.046875 1058.097656 772.238281 C 1060.472656 774.054688 1056.988281 771.347656 1056.835938 771.226562 C 1052.710938 767.945312 1048.683594 764.546875 1044.777344 761.011719 C 1040.851562 757.460938 1037.050781 753.773438 1033.421875 749.917969 C 1031.554688 747.933594 1029.730469 745.902344 1027.960938 743.828125 C 1027.085938 742.800781 1026.234375 741.757812 1025.382812 740.710938 C 1022.628906 737.328125 1026.898438 742.875 1024.347656 739.367188 C 1021.394531 735.304688 1018.652344 731.21875 1016.484375 726.683594 C 1016.296875 726.289062 1014.761719 722.746094 1015.417969 724.382812 C 1016.125 726.15625 1014.910156 722.992188 1014.789062 722.65625 C 1013.957031 720.367188 1013.230469 718.035156 1012.636719 715.671875 C 1012.347656 714.503906 1012.082031 713.332031 1011.859375 712.148438 C 1011.742188 711.558594 1011.640625 710.96875 1011.550781 710.378906 C 1011.367188 709.222656 1011.414062 709.59375 1011.699219 711.492188 C 1011.105469 711.320312 1011.375 705.234375 1011.390625 704.425781 C 1011.417969 703.238281 1011.53125 702.058594 1011.597656 700.875 C 1011.785156 697.554688 1010.816406 703.867188 1011.703125 700.371094 C 1012.304688 697.992188 1012.8125 695.648438 1013.59375 693.308594 C 1009.808594 697.101562 1006.023438 700.894531 1002.238281 704.6875 C 1009.515625 702.800781 1016.714844 700.933594 1024.15625 699.757812 C 1025.113281 699.605469 1026.070312 699.464844 1027.03125 699.324219 C 1026.382812 699.417969 1023.859375 699.703125 1027.078125 699.324219 C 1029.035156 699.097656 1030.988281 698.871094 1032.949219 698.679688 C 1036.890625 698.289062 1040.847656 697.996094 1044.800781 697.777344 C 1059.707031 696.953125 1074.542969 697.875 1089.433594 697.566406 C 1117.261719 696.992188 1148.914062 688.644531 1164.183594 663.226562 C 1167.425781 657.828125 1168.828125 651.882812 1169.902344 645.761719 C 1170.277344 643.613281 1170.609375 641.460938 1170.898438 639.300781 C 1171.78125 632.667969 1170.4375 642.082031 1170.847656 639.632812 C 1171.113281 638.050781 1171.273438 636.449219 1171.484375 634.859375 C 1171.625 633.773438 1171.765625 632.6875 1171.898438 631.601562 C 1172.429688 627.285156 1172.878906 622.957031 1173.289062 618.628906 C 1175.261719 597.734375 1176.371094 576.734375 1176.859375 555.757812 C 1177.277344 537.789062 1177.636719 519.542969 1175.050781 501.707031 C 1170.945312 473.390625 1162.324219 444.679688 1138.128906 427.207031 C 1112.21875 408.496094 1080.027344 408.648438 1049.523438 408.902344 C 1019.015625 409.15625 988.507812 409.1875 958 409.003906 C 928.816406 408.832031 899.605469 409.585938 870.417969 409.710938 C 840.4375 409.835938 810.460938 409.84375 780.480469 409.820312 C 747.617188 409.796875 714.753906 409.796875 681.894531 409.832031 C 665.023438 409.847656 648.214844 409.238281 631.597656 412.726562 C 616.160156 415.96875 601.160156 423.078125 589.648438 433.964844 C 582.488281 440.738281 577.527344 448.699219 575.527344 458.328125 C 573.644531 467.375 572.789062 476.710938 572.105469 485.917969 C 570.515625 507.28125 570.875 528.757812 571.277344 550.160156 C 571.625 568.660156 572.230469 587.152344 572.96875 605.640625 C 573.605469 621.457031 574.453125 637.765625 578.988281 653.019531 C 581.378906 661.070312 584.652344 669.046875 589.613281 675.839844 C 594.992188 683.210938 600.878906 689.105469 608.21875 694.507812 C 631.207031 711.433594 661 712.476562 688.386719 711.832031 C 697.304688 711.621094 706.164062 710.535156 715.066406 710.070312 C 723.789062 709.617188 732.523438 709.390625 741.253906 709.25 C 763.441406 708.890625 785.648438 709.046875 807.835938 709.074219 C 818.941406 709.085938 830.050781 709.222656 841.152344 709.566406 C 846.136719 709.722656 851.292969 710.390625 856.269531 710.210938 C 856.859375 710.132812 857.453125 710.050781 858.046875 709.972656 C 860.417969 709.628906 860.417969 709.648438 858.050781 710.03125 C 858.058594 710.0625 859.277344 710 859.375 710.003906 C 860.519531 710.019531 861.675781 709.953125 862.820312 709.9375 C 865.136719 709.902344 867.449219 709.886719 869.765625 709.890625 C 873.363281 709.898438 876.960938 709.960938 880.554688 710.128906 C 882.1875 710.207031 883.816406 710.300781 885.445312 710.4375 C 886.507812 710.523438 891.242188 711.101562 887.5 710.589844 C 892.800781 711.3125 898.144531 709.300781 899.691406 703.652344 C 901.179688 698.207031 897.835938 693.203125 892.753906 691.460938 Z M 892.753906 691.460938 " fill-opacity="1" fill-rule="nonzero"/><path fill="#fab158" d="M 767.289062 589.480469 C 767.605469 589.417969 767.917969 589.363281 768.230469 589.296875 C 768.292969 589.285156 768.355469 589.273438 768.417969 589.261719 C 770.058594 588.566406 771.699219 587.875 773.339844 587.179688 C 775.738281 585.882812 777.664062 584.113281 779.113281 581.867188 C 779.734375 581.191406 780.289062 580.46875 780.773438 579.699219 C 782.617188 576.507812 783.546875 573.070312 783.550781 569.382812 C 783.535156 565.695312 782.601562 562.257812 780.75 559.074219 C 778.492188 555.527344 778.078125 555.289062 775.382812 553.214844 C 774.097656 551.941406 772.582031 551.058594 770.835938 550.570312 C 770.011719 550.023438 769.128906 549.664062 768.1875 549.5 C 767.875 549.4375 767.558594 549.378906 767.246094 549.320312 C 763.554688 548.332031 759.863281 548.335938 756.171875 549.332031 C 752.648438 550.324219 749.585938 552.113281 746.992188 554.699219 C 745.90625 556.105469 744.824219 557.507812 743.738281 558.914062 C 741.859375 562.164062 740.914062 565.671875 740.90625 569.429688 C 740.804688 572.296875 741.402344 574.96875 742.710938 577.449219 C 743.550781 580.03125 744.992188 582.261719 747.023438 584.148438 C 749.625 586.726562 752.691406 588.507812 756.21875 589.492188 C 759.910156 590.480469 763.601562 590.476562 767.289062 589.480469 Z M 767.289062 589.480469 " fill-opacity="1" fill-rule="nonzero"/><path fill="#fab158" d="M 882.996094 593.027344 C 894.535156 593.015625 905.582031 582.855469 905.035156 570.9375 C 904.484375 558.984375 895.316406 548.886719 882.945312 548.902344 C 871.40625 548.914062 860.363281 559.074219 860.910156 570.988281 C 861.457031 582.941406 870.625 593.039062 882.996094 593.027344 Z M 882.996094 593.027344 " fill-opacity="1" fill-rule="nonzero"/><path fill="#fab158" d="M 1014.542969 584.601562 C 1024.917969 584.589844 1034.84375 575.457031 1034.351562 564.75 C 1033.859375 554.003906 1025.617188 544.925781 1014.5 544.9375 C 1004.125 544.949219 994.199219 554.082031 994.6875 564.792969 C 995.183594 575.539062 1003.425781 584.617188 1014.542969 584.601562 Z M 1014.542969 584.601562 " fill-opacity="1" fill-rule="nonzero"/><path fill="#f99029" d="M 414.683594 332.4375 C 411.902344 343.230469 408.4375 353.8125 404.242188 364.140625 C 403.695312 365.496094 404.171875 364.335938 404.28125 364.078125 C 404.035156 364.65625 403.792969 365.242188 403.53125 365.816406 C 403.269531 366.390625 402.976562 366.949219 402.71875 367.523438 C 402.941406 367.03125 400.808594 372.078125 401.585938 370.230469 C 402.078125 369.066406 401.269531 370.976562 401.253906 371.015625 C 401 371.59375 400.746094 372.167969 400.488281 372.746094 C 399.890625 374.082031 399.28125 375.414062 398.652344 376.738281 C 396.347656 381.625 393.855469 386.425781 391.1875 391.121094 C 388.636719 395.609375 385.921875 400.003906 383.050781 404.292969 C 381.5625 406.519531 380.03125 408.71875 378.457031 410.886719 C 377.730469 411.890625 376.988281 412.878906 376.25 413.875 C 376.148438 414.011719 374.90625 415.648438 375.851562 414.414062 C 376.785156 413.1875 375.21875 415.210938 375.058594 415.417969 C 368.492188 423.691406 361.316406 431.472656 353.644531 438.730469 C 349.34375 442.796875 344.890625 446.695312 340.304688 450.4375 C 338.980469 451.519531 337.632812 452.574219 336.292969 453.640625 C 338.585938 451.816406 335.605469 454.148438 334.804688 454.746094 C 332.199219 456.691406 329.566406 458.589844 326.964844 460.539062 C 320.691406 465.246094 317.347656 472.277344 320.597656 479.976562 C 323.621094 487.140625 331.359375 490.910156 338.957031 488.988281 C 355.707031 484.753906 372.394531 480.222656 388.789062 474.769531 C 396.457031 472.21875 404.066406 469.472656 411.554688 466.433594 C 412.980469 465.855469 418.710938 463.652344 414.433594 465.253906 C 415.398438 464.890625 416.355469 464.503906 417.3125 464.125 C 418.90625 463.492188 420.492188 462.847656 422.070312 462.191406 C 426.699219 460.269531 431.304688 458.300781 435.851562 456.199219 C 466.746094 441.890625 494.453125 421.351562 518.03125 396.84375 C 534.757812 379.457031 549.441406 360.191406 562.960938 340.238281 C 559.777344 342.6875 556.589844 345.136719 553.40625 347.585938 C 554.207031 347.453125 555.011719 347.335938 555.8125 347.207031 C 558.878906 346.714844 551.121094 347.765625 554.699219 347.363281 C 556.675781 347.136719 558.648438 346.921875 560.628906 346.75 C 565.03125 346.359375 569.441406 346.101562 573.855469 345.914062 C 584.210938 345.46875 594.582031 345.394531 604.945312 345.453125 C 630.421875 345.597656 655.890625 346.566406 681.339844 347.601562 C 707.449219 348.664062 733.550781 349.894531 759.664062 350.753906 C 779.980469 351.425781 800.398438 352.140625 820.714844 351.152344 C 849.507812 349.75 885.171875 345.375 904.601562 321.453125 C 917.457031 305.625 921.492188 286.738281 923.042969 266.832031 C 924.449219 248.820312 924.816406 230.679688 924.820312 212.621094 C 924.824219 180.546875 922.980469 148.503906 923.242188 116.429688 C 923.316406 107.359375 923.535156 98.289062 923.902344 89.226562 C 924.226562 81.199219 925.179688 73.195312 924.265625 65.179688 C 922.484375 49.515625 916.113281 34.472656 903.90625 24.019531 C 892.726562 14.445312 879.082031 8.238281 864.5625 5.816406 C 856.496094 4.472656 848.371094 3.652344 840.191406 3.828125 C 836.902344 3.902344 833.613281 4.109375 830.339844 4.445312 C 827.316406 4.753906 824.207031 5.441406 821.203125 5.601562 C 818.898438 5.722656 821.195312 6.507812 822.203125 5.398438 C 821.871094 5.761719 817.71875 5.75 817.191406 5.792969 C 778.691406 8.78125 740.089844 10.636719 701.480469 11.480469 C 637.535156 12.875 573.609375 11.132812 509.753906 7.679688 C 466.3125 5.332031 422.644531 0.863281 379.109375 1.632812 C 364.847656 1.886719 350.355469 2.539062 336.351562 5.421875 C 330.957031 6.535156 325.769531 8.242188 320.789062 10.621094 C 307.804688 16.820312 294.910156 25.902344 285.269531 36.652344 C 277.820312 44.964844 272.035156 54.945312 269.722656 65.945312 C 267.289062 77.535156 267.71875 89.691406 267.355469 101.441406 C 266.191406 138.933594 264.964844 176.421875 263.769531 213.910156 C 263.144531 233.402344 262.710938 252.882812 262.378906 272.378906 C 262.066406 290.582031 262.3125 310.730469 273.472656 326.117188 C 294.3125 354.84375 333.5 349.710938 364.691406 351.601562 C 371.644531 352.023438 378.710938 351.421875 385.691406 351.363281 C 393.878906 351.296875 402.039062 351.628906 410.214844 352.074219 C 420.71875 352.648438 430.761719 342.429688 430.292969 331.992188 C 429.785156 320.625 421.46875 312.527344 410.214844 311.914062 C 400.898438 311.40625 391.566406 311.316406 382.246094 311.582031 C 378.339844 311.695312 374.433594 311.855469 370.527344 311.992188 C 369.6875 312.023438 368.84375 312.039062 368 312.074219 C 367.566406 312.089844 367.132812 312.101562 366.699219 312.113281 C 360.570312 312.957031 359.671875 313.066406 364.011719 312.441406 C 363.511719 313.234375 357.796875 312.902344 356.667969 312.980469 C 347.992188 313.566406 339.339844 314.464844 330.664062 314.980469 C 326.71875 315.214844 322.761719 315.351562 318.808594 315.238281 C 316.90625 315.183594 315.015625 315.015625 313.117188 314.882812 C 310.457031 314.703125 314.238281 314.769531 314.203125 315.058594 C 314.199219 315.078125 311.375 314.558594 310.945312 314.453125 C 309.890625 314.191406 308.882812 313.789062 307.839844 313.488281 C 304.792969 312.609375 308.886719 313.765625 308.765625 313.960938 C 308.628906 314.179688 304.589844 311.792969 304.097656 311.484375 C 303.804688 311.289062 303.507812 311.097656 303.214844 310.902344 C 301.800781 309.890625 302.054688 310.101562 303.976562 311.535156 C 303.890625 311.578125 302.277344 309.996094 302.378906 310.09375 C 302.019531 309.746094 300.121094 308.1875 300.132812 307.683594 C 300.519531 308.191406 300.90625 308.699219 301.289062 309.203125 C 300.796875 308.523438 300.328125 307.824219 299.882812 307.109375 C 299.40625 306.34375 298.957031 305.554688 298.53125 304.757812 C 298.183594 304.097656 296.816406 300.164062 297.976562 303.734375 C 297.277344 301.582031 296.5625 299.472656 296.058594 297.261719 C 295.859375 296.375 295.722656 295.476562 295.515625 294.59375 C 294.5 290.230469 295.707031 297.964844 295.320312 293.472656 C 295.101562 290.933594 294.898438 288.402344 294.808594 285.855469 C 294.046875 264.503906 295.191406 243 295.207031 221.628906 C 295.234375 179.378906 295.3125 137.128906 295.300781 94.878906 C 295.300781 88.574219 295.050781 82.214844 295.449219 75.914062 C 295.507812 74.976562 295.621094 74.046875 295.6875 73.109375 C 295.851562 70.773438 295.085938 76.3125 295.46875 74.636719 C 295.582031 74.136719 295.628906 73.613281 295.714844 73.113281 C 296.144531 70.703125 296.746094 68.328125 297.53125 66.011719 C 297.746094 65.378906 299.03125 61.988281 298.167969 64.191406 C 297.300781 66.402344 299.019531 62.527344 299.34375 61.917969 C 299.929688 60.820312 300.558594 59.742188 301.222656 58.691406 C 301.6875 57.953125 302.171875 57.230469 302.675781 56.515625 C 303.078125 55.9375 305.019531 53.761719 302.828125 56.234375 C 305.097656 53.675781 307.292969 51.128906 309.820312 48.808594 C 309.746094 48.878906 312.5 46.503906 311.105469 47.628906 C 309.664062 48.785156 312.792969 46.449219 312.652344 46.542969 C 314.75 45.082031 316.90625 43.707031 319.109375 42.410156 C 323.101562 40.058594 327.238281 37.964844 331.460938 36.054688 C 333.183594 35.277344 336.285156 34.875 330.914062 36.238281 C 331.164062 36.175781 331.398438 36.035156 331.640625 35.953125 C 332.203125 35.765625 332.75 35.542969 333.3125 35.359375 C 335.730469 34.5625 338.21875 33.996094 340.722656 33.550781 C 342.785156 33.179688 346.445312 32.949219 341.210938 33.414062 C 342.761719 33.277344 344.308594 33.0625 345.863281 32.933594 C 349.34375 32.644531 352.835938 32.5 356.328125 32.429688 C 374.734375 32.074219 393.113281 33.824219 411.46875 34.90625 C 469.09375 38.316406 526.589844 43.371094 584.277344 45.816406 C 622.324219 47.425781 660.40625 48.234375 698.484375 47.980469 C 719.589844 47.835938 740.695312 47.40625 761.78125 46.558594 C 773.09375 46.105469 784.398438 45.554688 795.699219 44.90625 C 800.925781 44.605469 806.148438 44.28125 811.371094 43.941406 C 814.144531 43.757812 816.917969 43.570312 819.695312 43.375 C 821.085938 43.277344 822.488281 43.214844 823.878906 43.078125 C 829.351562 42.34375 830.582031 42.179688 827.570312 42.585938 C 825.839844 42.8125 825.789062 42.824219 827.410156 42.625 C 835.417969 41.839844 843.394531 41.488281 851.425781 42.210938 C 852.15625 42.273438 852.882812 42.363281 853.613281 42.429688 C 857.664062 42.796875 848.875 41.605469 852.84375 42.328125 C 854.414062 42.609375 855.980469 42.867188 857.542969 43.199219 C 861.054688 43.953125 864.519531 44.925781 867.886719 46.167969 C 872.71875 47.949219 864.246094 44.371094 868.761719 46.53125 C 870.210938 47.21875 871.628906 47.96875 873.011719 48.777344 C 874.375 49.574219 875.65625 50.460938 876.96875 51.335938 C 879.863281 53.265625 873.929688 48.640625 875.664062 50.308594 C 876.433594 51.054688 877.304688 51.703125 878.085938 52.441406 C 879.199219 53.496094 880.207031 54.636719 881.25 55.761719 C 882.207031 56.796875 882.695312 58.378906 879.957031 54.007812 C 880.445312 54.785156 881.039062 55.5 881.539062 56.269531 C 882.300781 57.441406 883 58.648438 883.640625 59.890625 C 883.996094 60.582031 884.273438 61.34375 884.664062 62.011719 C 881.847656 57.183594 883.566406 59.347656 884.125 60.972656 C 884.664062 62.535156 885.105469 64.132812 885.488281 65.738281 C 885.722656 66.742188 885.90625 67.746094 886.113281 68.753906 C 886.457031 70.4375 885.625 71 885.863281 66.765625 C 885.628906 70.914062 886.152344 75.175781 885.910156 79.375 C 885.308594 89.773438 885.238281 100.238281 885.199219 110.652344 C 885.125 128.945312 885.722656 147.226562 886.429688 165.503906 C 887.140625 183.789062 887.832031 202.074219 887.867188 220.378906 C 887.886719 230.832031 887.710938 241.289062 887.339844 251.734375 C 887.171875 256.542969 886.988281 261.351562 886.675781 266.152344 C 886.53125 268.414062 886.359375 270.675781 886.132812 272.929688 C 886.042969 273.832031 885.941406 274.730469 885.84375 275.628906 C 885.425781 279.460938 886.457031 271.980469 885.632812 276.835938 C 884.925781 280.984375 884.019531 285.144531 882.734375 289.15625 C 882.398438 290.199219 882.078125 291.988281 881.417969 292.867188 C 883.347656 290.304688 882.277344 291.039062 881.652344 292.214844 C 880.40625 294.5625 879.121094 296.78125 877.71875 299.039062 C 875.492188 302.609375 879.453125 297.289062 877.695312 299.074219 C 876.972656 299.8125 876.328125 300.636719 875.605469 301.378906 C 874.25 302.765625 872.71875 304.515625 871.046875 305.488281 C 874.453125 303.503906 872.375 304.488281 871.597656 304.957031 C 870.550781 305.59375 869.550781 306.3125 868.492188 306.9375 C 866.535156 308.09375 864.488281 309.03125 862.472656 310.070312 C 860.179688 311.25 866.378906 308.667969 862.511719 310.054688 C 861.523438 310.410156 860.542969 310.792969 859.546875 311.136719 C 857.742188 311.765625 855.921875 312.324219 854.074219 312.808594 C 849.5 314.007812 844.847656 314.890625 840.175781 315.613281 C 839.980469 315.640625 835.761719 316.277344 838.578125 315.859375 C 841.386719 315.441406 837.1875 316.035156 836.980469 316.058594 C 834.867188 316.320312 832.75 316.550781 830.632812 316.773438 C 828.449219 317 826.265625 317.195312 824.078125 317.347656 C 801.347656 318.929688 778.394531 318.058594 755.644531 317.410156 C 726.105469 316.566406 696.578125 315.304688 667.042969 314.359375 C 639.78125 313.484375 612.464844 312.679688 585.1875 313.378906 C 575.214844 313.636719 565.203125 314.058594 555.296875 315.28125 C 552.191406 315.664062 549.027344 315.949219 545.957031 316.574219 C 538.476562 318.097656 535.148438 324.488281 531.210938 330.222656 C 528.515625 334.144531 525.765625 338.035156 522.960938 341.878906 C 521.601562 343.738281 520.230469 345.585938 518.847656 347.421875 C 518.03125 348.507812 517.207031 349.585938 516.378906 350.664062 C 518.058594 348.480469 516.261719 350.800781 515.578125 351.667969 C 505.195312 364.8125 494.207031 377.441406 482.035156 388.976562 C 476.558594 394.167969 470.867188 399.140625 464.964844 403.847656 C 464.269531 404.402344 463.589844 405.007812 462.859375 405.511719 C 465.828125 403.480469 463.691406 404.871094 462.949219 405.425781 C 461.675781 406.375 460.40625 407.332031 459.117188 408.269531 C 456.011719 410.527344 452.855469 412.710938 449.648438 414.820312 C 437.945312 422.523438 425.582031 429.191406 412.800781 434.925781 C 411.242188 435.628906 409.671875 436.304688 408.105469 436.988281 C 404.972656 438.347656 410.28125 436.171875 408.222656 436.933594 C 407.414062 437.234375 406.632812 437.597656 405.828125 437.90625 C 402.429688 439.203125 398.988281 440.394531 395.546875 441.570312 C 388.664062 443.917969 381.714844 446.066406 374.722656 448.058594 C 360.175781 452.207031 345.449219 455.703125 330.683594 458.972656 C 334.679688 468.453125 338.679688 477.9375 342.675781 487.417969 C 380.40625 460.832031 411.730469 420.773438 426.457031 376.847656 C 430.667969 364.285156 433.652344 351.316406 435.71875 338.234375 C 436.636719 332.421875 434.230469 326.5 428.101562 324.816406 C 422.476562 323.273438 416.15625 326.707031 414.683594 332.4375 Z M 414.683594 332.4375 " fill-opacity="1" fill-rule="nonzero"/></svg>