<svg xmlns="http://www.w3.org/2000/svg" xmlns:xlink="http://www.w3.org/1999/xlink" width="500" zoomAndPan="magnify" viewBox="0 0 375 374.999991" height="500" preserveAspectRatio="xMidYMid meet" version="1.0"><defs><clipPath id="5f2e78125e"><path d="M 33 5.007812 L 341.835938 5.007812 L 341.835938 370 L 33 370 Z M 33 5.007812 " clip-rule="nonzero"/></clipPath><clipPath id="156a5cf5d4"><path d="M 92.238281 238.039062 L 96.539062 238.039062 L 96.539062 241.722656 L 92.238281 241.722656 Z M 92.238281 238.039062 " clip-rule="nonzero"/></clipPath><clipPath id="89fe74b53c"><path d="M 96.523438 239.324219 C 94.574219 242.398438 92.851562 241.800781 92.398438 241.199219 C 92.023438 240.523438 92.398438 238.726562 93 238.273438 C 93.523438 237.75 95.925781 238.425781 95.925781 238.425781 " clip-rule="nonzero"/></clipPath></defs><g clip-path="url(#5f2e78125e)"><path fill="#dd7233" d="M 290.007812 6.285156 C 287.730469 7.015625 285.925781 8.976562 285.519531 11.507812 C 284.859375 16.027344 283.898438 20.460938 282.792969 24.859375 C 281.738281 29.070312 280.445312 33.207031 279.3125 37.402344 C 277.574219 43.898438 276.125 50.375 274.519531 56.914062 C 273.808594 58.941406 274.863281 61.175781 276.890625 61.898438 C 278.933594 62.621094 281.15625 61.558594 281.882812 59.527344 C 284.003906 55.175781 286.242188 50.980469 288.257812 46.578125 C 289.601562 43.621094 290.824219 40.628906 291.957031 37.585938 C 292.445312 36.289062 292.90625 34.988281 293.355469 33.675781 C 306.089844 72.449219 313.585938 111.386719 312.125 149.601562 C 310.582031 189.75 299.097656 229.082031 273.386719 266.527344 C 258.410156 288.332031 234.609375 308.222656 208.492188 317.8125 C 183.320312 327.058594 155.925781 326.625 132.558594 308.214844 C 153.132812 288.101562 170.136719 264.648438 181.199219 238.351562 C 187.234375 223.96875 191.988281 202.378906 188.800781 184.03125 C 186.457031 170.550781 179.910156 158.808594 167.210938 152.082031 C 154.566406 145.394531 142.027344 146.433594 130.871094 151.851562 C 115.34375 159.390625 102.59375 175.871094 96.625 190.957031 C 88.789062 210.808594 86.785156 235.070312 91.09375 257.898438 C 94.847656 277.792969 103.394531 296.554688 116.804688 310.515625 L 116.449219 310.839844 C 92.492188 332.445312 64.394531 349.71875 35.800781 361.960938 C 33.824219 362.796875 32.890625 365.089844 33.71875 367.074219 C 34.5625 369.058594 36.855469 369.992188 38.828125 369.15625 C 68.414062 356.929688 97.535156 339.511719 122.457031 317.585938 L 123.457031 316.695312 L 123.839844 317.007812 C 145.648438 334.835938 170.609375 339.082031 194.898438 334.554688 C 230.222656 327.96875 264.101562 302.453125 283.882812 273.761719 C 311.175781 234.1875 323.398438 192.589844 325.097656 150.109375 C 326.71875 109.601562 318.734375 68.277344 305.050781 27.15625 C 305.828125 27.5625 306.617188 27.957031 307.410156 28.34375 C 312.03125 30.613281 316.761719 32.699219 321.554688 34.558594 C 326.324219 36.402344 331.105469 37.90625 335.78125 39.722656 C 337.691406 40.710938 340.046875 39.960938 341.035156 38.046875 C 342.023438 36.132812 341.285156 33.773438 339.363281 32.785156 C 333.410156 28.953125 327.363281 25.179688 321.082031 21.605469 C 317.078125 19.332031 312.980469 17.226562 309.054688 14.867188 C 304.972656 12.40625 300.992188 9.796875 297.304688 6.828125 C 295.144531 5.144531 292.261719 5.019531 290.007812 6.285156 Z M 125.707031 302.058594 C 145.308594 282.53125 161.457031 259.859375 171.78125 234.460938 C 177.039062 221.566406 181.253906 202.273438 178.234375 185.917969 C 176.378906 175.8125 171.664062 166.847656 162.089844 161.886719 C 150.496094 155.875 139.144531 158.9375 129.710938 165.746094 C 119.609375 173.046875 111.628906 184.585938 107.503906 195.21875 C 100.550781 213.164062 98.96875 235.058594 102.949219 255.632812 C 106.347656 273.183594 113.816406 289.8125 125.707031 302.058594 Z M 125.707031 302.058594 " fill-opacity="1" fill-rule="evenodd"/></g><g clip-path="url(#156a5cf5d4)"><g clip-path="url(#89fe74b53c)"><path fill="#dd7233" d="M 89.398438 235.273438 L 99.53125 235.273438 L 99.53125 245.101562 L 89.398438 245.101562 Z M 89.398438 235.273438 " fill-opacity="1" fill-rule="nonzero"/></g></g></svg>