<svg xmlns="http://www.w3.org/2000/svg" xmlns:xlink="http://www.w3.org/1999/xlink" width="500" zoomAndPan="magnify" viewBox="0 0 375 37.5" height="50" preserveAspectRatio="xMidYMid meet" version="1.0"><defs><clipPath id="528c25106b"><path d="M 102.523438 11.40625 L 102.574219 11.40625 L 102.574219 11.441406 L 102.523438 11.441406 Z M 102.523438 11.40625 " clip-rule="nonzero"/></clipPath><clipPath id="b57277d78a"><path d="M 102.570312 11.429688 C 102.480469 11.46875 102.5625 11.40625 102.5625 11.40625 " clip-rule="nonzero"/></clipPath><clipPath id="2a5e6dc963"><path d="M 105.875 13.882812 L 105.921875 13.882812 L 105.921875 13.917969 L 105.875 13.917969 Z M 105.875 13.882812 " clip-rule="nonzero"/></clipPath><clipPath id="21e2035c3b"><path d="M 105.917969 13.902344 C 105.828125 13.945312 105.910156 13.882812 105.910156 13.882812 " clip-rule="nonzero"/></clipPath><clipPath id="951539869d"><path d="M 323 0.800781 L 360 0.800781 L 360 36.328125 L 323 36.328125 Z M 323 0.800781 " clip-rule="nonzero"/></clipPath><clipPath id="1b565b7a30"><path d="M 110.890625 17.726562 L 113.066406 17.726562 L 113.066406 19.566406 L 110.890625 19.566406 Z M 110.890625 17.726562 " clip-rule="nonzero"/></clipPath><clipPath id="8b17cc5161"><path d="M 113.042969 18.429688 C 112.082031 19.910156 111.191406 19.613281 110.96875 19.316406 C 110.824219 19.019531 110.96875 18.058594 111.265625 17.835938 C 111.5625 17.613281 112.746094 17.910156 112.746094 17.910156 " clip-rule="nonzero"/></clipPath></defs><g clip-path="url(#528c25106b)"><g clip-path="url(#b57277d78a)"><path fill="#dd7233" d="M 102.074219 11 L 102.988281 11 L 102.988281 11.882812 L 102.074219 11.882812 Z M 102.074219 11 " fill-opacity="1" fill-rule="nonzero"/></g></g><g clip-path="url(#2a5e6dc963)"><g clip-path="url(#21e2035c3b)"><path fill="#dd7233" d="M 105.421875 13.476562 L 106.335938 13.476562 L 106.335938 14.359375 L 105.421875 14.359375 Z M 105.421875 13.476562 " fill-opacity="1" fill-rule="nonzero"/></g></g><path fill="#dd7233" d="M 27.992188 18.5 C 27.992188 18.902344 27.953125 19.300781 27.875 19.695312 C 27.796875 20.089844 27.679688 20.472656 27.523438 20.847656 C 27.371094 21.21875 27.183594 21.570312 26.957031 21.90625 C 26.734375 22.242188 26.480469 22.550781 26.195312 22.835938 C 25.910156 23.121094 25.601562 23.375 25.265625 23.597656 C 24.933594 23.820312 24.578125 24.011719 24.207031 24.164062 C 23.835938 24.320312 23.449219 24.433594 23.054688 24.515625 C 22.660156 24.59375 22.261719 24.632812 21.859375 24.632812 C 21.457031 24.632812 21.058594 24.59375 20.664062 24.515625 C 20.269531 24.433594 19.886719 24.320312 19.511719 24.164062 C 19.140625 24.011719 18.789062 23.820312 18.453125 23.597656 C 18.117188 23.375 17.808594 23.121094 17.523438 22.835938 C 17.238281 22.550781 16.984375 22.242188 16.761719 21.90625 C 16.539062 21.570312 16.347656 21.21875 16.195312 20.847656 C 16.039062 20.472656 15.925781 20.089844 15.84375 19.695312 C 15.765625 19.300781 15.726562 18.902344 15.726562 18.5 C 15.726562 18.097656 15.765625 17.699219 15.84375 17.304688 C 15.925781 16.910156 16.039062 16.523438 16.195312 16.152344 C 16.347656 15.78125 16.539062 15.425781 16.761719 15.09375 C 16.984375 14.757812 17.238281 14.449219 17.523438 14.164062 C 17.808594 13.878906 18.117188 13.625 18.453125 13.402344 C 18.789062 13.175781 19.140625 12.988281 19.511719 12.835938 C 19.886719 12.679688 20.269531 12.5625 20.664062 12.484375 C 21.058594 12.40625 21.457031 12.367188 21.859375 12.367188 C 22.261719 12.367188 22.660156 12.40625 23.054688 12.484375 C 23.449219 12.5625 23.835938 12.679688 24.207031 12.835938 C 24.578125 12.988281 24.933594 13.175781 25.265625 13.402344 C 25.601562 13.625 25.910156 13.878906 26.195312 14.164062 C 26.480469 14.449219 26.734375 14.757812 26.957031 15.09375 C 27.183594 15.425781 27.371094 15.78125 27.523438 16.152344 C 27.679688 16.523438 27.796875 16.910156 27.875 17.304688 C 27.953125 17.699219 27.992188 18.097656 27.992188 18.5 Z M 27.992188 18.5 " fill-opacity="1" fill-rule="nonzero"/><path fill="#dd7233" d="M 75.375 18.5 C 75.375 19.011719 75.328125 19.519531 75.226562 20.023438 C 75.125 20.523438 74.976562 21.011719 74.78125 21.484375 C 74.585938 21.960938 74.347656 22.410156 74.0625 22.835938 C 73.777344 23.261719 73.453125 23.65625 73.089844 24.019531 C 72.726562 24.378906 72.335938 24.703125 71.90625 24.988281 C 71.480469 25.273438 71.03125 25.515625 70.558594 25.710938 C 70.085938 25.90625 69.597656 26.054688 69.09375 26.152344 C 68.59375 26.253906 68.085938 26.304688 67.570312 26.304688 C 67.058594 26.304688 66.550781 26.253906 66.050781 26.152344 C 65.546875 26.054688 65.058594 25.90625 64.585938 25.710938 C 64.113281 25.515625 63.660156 25.273438 63.234375 24.988281 C 62.808594 24.703125 62.414062 24.378906 62.054688 24.019531 C 61.691406 23.65625 61.367188 23.261719 61.082031 22.835938 C 60.796875 22.410156 60.558594 21.960938 60.363281 21.484375 C 60.164062 21.011719 60.015625 20.523438 59.917969 20.023438 C 59.816406 19.519531 59.765625 19.011719 59.765625 18.5 C 59.765625 17.988281 59.816406 17.480469 59.917969 16.976562 C 60.015625 16.472656 60.164062 15.984375 60.363281 15.511719 C 60.558594 15.039062 60.796875 14.589844 61.082031 14.164062 C 61.367188 13.738281 61.691406 13.34375 62.054688 12.980469 C 62.414062 12.617188 62.808594 12.296875 63.234375 12.011719 C 63.660156 11.726562 64.113281 11.484375 64.585938 11.289062 C 65.058594 11.09375 65.546875 10.945312 66.050781 10.84375 C 66.550781 10.746094 67.058594 10.695312 67.570312 10.695312 C 68.085938 10.695312 68.59375 10.746094 69.09375 10.84375 C 69.597656 10.945312 70.085938 11.09375 70.558594 11.289062 C 71.03125 11.484375 71.480469 11.726562 71.90625 12.011719 C 72.335938 12.296875 72.726562 12.617188 73.089844 12.980469 C 73.453125 13.34375 73.777344 13.738281 74.0625 14.164062 C 74.347656 14.589844 74.585938 15.039062 74.78125 15.511719 C 74.976562 15.984375 75.125 16.472656 75.226562 16.976562 C 75.328125 17.480469 75.375 17.988281 75.375 18.5 Z M 75.375 18.5 " fill-opacity="1" fill-rule="nonzero"/><path fill="#dd7233" d="M 122.761719 18.5 C 122.761719 19.121094 122.699219 19.738281 122.578125 20.347656 C 122.457031 20.957031 122.277344 21.550781 122.039062 22.125 C 121.800781 22.699219 121.507812 23.246094 121.164062 23.765625 C 120.816406 24.28125 120.425781 24.761719 119.984375 25.199219 C 119.546875 25.640625 119.066406 26.035156 118.550781 26.378906 C 118.03125 26.726562 117.484375 27.015625 116.910156 27.253906 C 116.335938 27.492188 115.742188 27.671875 115.132812 27.792969 C 114.523438 27.914062 113.90625 27.976562 113.285156 27.976562 C 112.660156 27.976562 112.046875 27.914062 111.433594 27.792969 C 110.824219 27.671875 110.230469 27.492188 109.65625 27.253906 C 109.082031 27.015625 108.535156 26.726562 108.019531 26.378906 C 107.5 26.035156 107.023438 25.640625 106.582031 25.199219 C 106.144531 24.761719 105.75 24.28125 105.40625 23.765625 C 105.058594 23.246094 104.765625 22.699219 104.527344 22.125 C 104.289062 21.550781 104.109375 20.957031 103.988281 20.347656 C 103.867188 19.738281 103.808594 19.121094 103.808594 18.5 C 103.808594 17.878906 103.867188 17.261719 103.988281 16.652344 C 104.109375 16.039062 104.289062 15.449219 104.527344 14.871094 C 104.765625 14.296875 105.058594 13.75 105.40625 13.234375 C 105.75 12.71875 106.144531 12.238281 106.582031 11.796875 C 107.023438 11.359375 107.5 10.964844 108.019531 10.621094 C 108.535156 10.273438 109.082031 9.980469 109.65625 9.742188 C 110.230469 9.503906 110.824219 9.324219 111.433594 9.203125 C 112.046875 9.082031 112.660156 9.023438 113.285156 9.023438 C 113.90625 9.023438 114.523438 9.082031 115.132812 9.203125 C 115.742188 9.324219 116.335938 9.503906 116.910156 9.742188 C 117.484375 9.980469 118.03125 10.273438 118.550781 10.621094 C 119.066406 10.964844 119.546875 11.359375 119.984375 11.796875 C 120.425781 12.238281 120.816406 12.71875 121.164062 13.234375 C 121.507812 13.75 121.800781 14.296875 122.039062 14.871094 C 122.277344 15.449219 122.457031 16.039062 122.578125 16.652344 C 122.699219 17.261719 122.761719 17.878906 122.761719 18.5 Z M 122.761719 18.5 " fill-opacity="1" fill-rule="nonzero"/><path fill="#dd7233" d="M 170.007812 18.5 C 170.007812 19.230469 169.933594 19.957031 169.792969 20.675781 C 169.648438 21.394531 169.4375 22.089844 169.15625 22.765625 C 168.878906 23.441406 168.535156 24.085938 168.128906 24.695312 C 167.71875 25.300781 167.257812 25.867188 166.742188 26.382812 C 166.222656 26.902344 165.660156 27.363281 165.050781 27.769531 C 164.441406 28.175781 163.800781 28.519531 163.125 28.800781 C 162.449219 29.082031 161.75 29.292969 161.03125 29.433594 C 160.3125 29.578125 159.589844 29.648438 158.855469 29.648438 C 158.125 29.648438 157.398438 29.578125 156.683594 29.433594 C 155.964844 29.292969 155.265625 29.082031 154.589844 28.800781 C 153.914062 28.519531 153.269531 28.175781 152.664062 27.769531 C 152.054688 27.363281 151.492188 26.902344 150.972656 26.382812 C 150.457031 25.867188 149.992188 25.300781 149.585938 24.695312 C 149.179688 24.085938 148.835938 23.441406 148.554688 22.765625 C 148.277344 22.089844 148.066406 21.394531 147.921875 20.675781 C 147.777344 19.957031 147.707031 19.230469 147.707031 18.5 C 147.707031 17.765625 147.777344 17.042969 147.921875 16.324219 C 148.066406 15.605469 148.277344 14.910156 148.554688 14.234375 C 148.835938 13.554688 149.179688 12.914062 149.585938 12.304688 C 149.992188 11.695312 150.457031 11.132812 150.972656 10.617188 C 151.492188 10.097656 152.054688 9.636719 152.664062 9.230469 C 153.273438 8.824219 153.914062 8.480469 154.589844 8.199219 C 155.265625 7.917969 155.964844 7.707031 156.683594 7.5625 C 157.398438 7.421875 158.125 7.351562 158.855469 7.351562 C 159.589844 7.351562 160.3125 7.421875 161.03125 7.5625 C 161.75 7.707031 162.449219 7.917969 163.125 8.199219 C 163.800781 8.480469 164.441406 8.824219 165.050781 9.230469 C 165.660156 9.636719 166.222656 10.097656 166.742188 10.617188 C 167.257812 11.132812 167.71875 11.695312 168.128906 12.304688 C 168.535156 12.914062 168.878906 13.554688 169.15625 14.234375 C 169.4375 14.910156 169.648438 15.605469 169.792969 16.324219 C 169.933594 17.042969 170.007812 17.765625 170.007812 18.5 Z M 170.007812 18.5 " fill-opacity="1" fill-rule="nonzero"/><path fill="#dd7233" d="M 217.390625 18.5 C 217.390625 19.339844 217.308594 20.175781 217.144531 21 C 216.980469 21.828125 216.738281 22.628906 216.414062 23.40625 C 216.09375 24.183594 215.699219 24.921875 215.230469 25.621094 C 214.761719 26.324219 214.230469 26.96875 213.636719 27.566406 C 213.039062 28.160156 212.394531 28.691406 211.691406 29.160156 C 210.992188 29.628906 210.253906 30.023438 209.476562 30.34375 C 208.699219 30.667969 207.894531 30.910156 207.070312 31.074219 C 206.246094 31.238281 205.410156 31.320312 204.570312 31.320312 C 203.726562 31.320312 202.894531 31.238281 202.066406 31.074219 C 201.242188 30.910156 200.441406 30.667969 199.664062 30.34375 C 198.886719 30.023438 198.144531 29.628906 197.445312 29.160156 C 196.746094 28.691406 196.097656 28.160156 195.503906 27.566406 C 194.90625 26.96875 194.375 26.324219 193.910156 25.621094 C 193.441406 24.921875 193.046875 24.183594 192.722656 23.40625 C 192.402344 22.628906 192.15625 21.828125 191.992188 21 C 191.828125 20.175781 191.746094 19.339844 191.746094 18.5 C 191.746094 17.65625 191.828125 16.824219 191.992188 16 C 192.15625 15.171875 192.402344 14.371094 192.722656 13.59375 C 193.046875 12.816406 193.441406 12.074219 193.910156 11.375 C 194.375 10.675781 194.90625 10.027344 195.503906 9.433594 C 196.097656 8.835938 196.746094 8.304688 197.445312 7.839844 C 198.144531 7.371094 198.886719 6.976562 199.664062 6.652344 C 200.441406 6.332031 201.242188 6.089844 202.066406 5.925781 C 202.894531 5.761719 203.726562 5.679688 204.570312 5.679688 C 205.410156 5.679688 206.246094 5.761719 207.070312 5.925781 C 207.894531 6.089844 208.699219 6.332031 209.476562 6.652344 C 210.253906 6.976562 210.992188 7.371094 211.691406 7.839844 C 212.394531 8.304688 213.039062 8.835938 213.636719 9.433594 C 214.230469 10.027344 214.761719 10.675781 215.230469 11.375 C 215.699219 12.074219 216.09375 12.816406 216.414062 13.59375 C 216.738281 14.371094 216.980469 15.171875 217.144531 16 C 217.308594 16.824219 217.390625 17.65625 217.390625 18.5 Z M 217.390625 18.5 " fill-opacity="1" fill-rule="nonzero"/><path fill="#dd7233" d="M 264.636719 18.5 C 264.636719 19.441406 264.542969 20.375 264.359375 21.300781 C 264.175781 22.222656 263.902344 23.121094 263.542969 23.992188 C 263.183594 24.863281 262.742188 25.691406 262.21875 26.472656 C 261.695312 27.257812 261.097656 27.984375 260.433594 28.648438 C 259.765625 29.316406 259.039062 29.910156 258.257812 30.433594 C 257.472656 30.957031 256.644531 31.402344 255.773438 31.761719 C 254.902344 32.121094 254.007812 32.394531 253.082031 32.578125 C 252.15625 32.761719 251.222656 32.855469 250.28125 32.855469 C 249.339844 32.855469 248.40625 32.761719 247.480469 32.578125 C 246.554688 32.394531 245.660156 32.121094 244.789062 31.761719 C 243.917969 31.402344 243.089844 30.957031 242.304688 30.433594 C 241.523438 29.910156 240.796875 29.316406 240.132812 28.648438 C 239.464844 27.984375 238.871094 27.257812 238.347656 26.472656 C 237.820312 25.691406 237.378906 24.863281 237.019531 23.992188 C 236.660156 23.121094 236.386719 22.222656 236.203125 21.300781 C 236.019531 20.375 235.925781 19.441406 235.925781 18.5 C 235.925781 17.558594 236.019531 16.625 236.203125 15.699219 C 236.386719 14.773438 236.660156 13.878906 237.019531 13.007812 C 237.378906 12.136719 237.820312 11.308594 238.347656 10.523438 C 238.871094 9.742188 239.464844 9.015625 240.132812 8.347656 C 240.796875 7.683594 241.523438 7.085938 242.304688 6.5625 C 243.089844 6.039062 243.917969 5.597656 244.789062 5.238281 C 245.660156 4.875 246.554688 4.605469 247.480469 4.421875 C 248.40625 4.238281 249.339844 4.144531 250.28125 4.144531 C 251.222656 4.144531 252.15625 4.238281 253.082031 4.421875 C 254.007812 4.605469 254.902344 4.875 255.773438 5.238281 C 256.644531 5.597656 257.472656 6.039062 258.257812 6.5625 C 259.039062 7.085938 259.765625 7.683594 260.433594 8.347656 C 261.097656 9.015625 261.691406 9.742188 262.21875 10.523438 C 262.742188 11.308594 263.183594 12.136719 263.542969 13.007812 C 263.902344 13.878906 264.175781 14.773438 264.359375 15.699219 C 264.542969 16.625 264.636719 17.558594 264.636719 18.5 Z M 264.636719 18.5 " fill-opacity="1" fill-rule="nonzero"/><path fill="#dd7233" d="M 311.882812 18.5 C 311.882812 19.023438 311.855469 19.546875 311.804688 20.070312 C 311.753906 20.59375 311.675781 21.113281 311.574219 21.625 C 311.472656 22.140625 311.34375 22.648438 311.191406 23.152344 C 311.039062 23.652344 310.863281 24.148438 310.660156 24.632812 C 310.460938 25.117188 310.238281 25.589844 309.988281 26.054688 C 309.742188 26.519531 309.472656 26.96875 309.179688 27.402344 C 308.890625 27.839844 308.578125 28.261719 308.242188 28.667969 C 307.910156 29.074219 307.558594 29.460938 307.1875 29.832031 C 306.816406 30.203125 306.425781 30.554688 306.023438 30.890625 C 305.617188 31.222656 305.195312 31.535156 304.757812 31.824219 C 304.320312 32.117188 303.871094 32.386719 303.410156 32.632812 C 302.945312 32.882812 302.472656 33.105469 301.988281 33.308594 C 301.503906 33.507812 301.007812 33.683594 300.507812 33.835938 C 300.003906 33.988281 299.496094 34.117188 298.980469 34.21875 C 298.464844 34.320312 297.949219 34.398438 297.425781 34.449219 C 296.902344 34.5 296.378906 34.527344 295.855469 34.527344 C 295.328125 34.527344 294.804688 34.5 294.285156 34.449219 C 293.761719 34.398438 293.242188 34.320312 292.726562 34.21875 C 292.210938 34.117188 291.703125 33.988281 291.203125 33.835938 C 290.699219 33.683594 290.207031 33.507812 289.722656 33.308594 C 289.234375 33.105469 288.761719 32.882812 288.300781 32.632812 C 287.835938 32.386719 287.386719 32.117188 286.949219 31.824219 C 286.511719 31.535156 286.09375 31.222656 285.6875 30.890625 C 285.28125 30.554688 284.894531 30.203125 284.519531 29.832031 C 284.148438 29.460938 283.796875 29.074219 283.464844 28.667969 C 283.132812 28.261719 282.820312 27.839844 282.527344 27.402344 C 282.238281 26.96875 281.96875 26.519531 281.71875 26.054688 C 281.472656 25.589844 281.25 25.117188 281.046875 24.632812 C 280.847656 24.148438 280.667969 23.652344 280.515625 23.152344 C 280.363281 22.648438 280.238281 22.140625 280.136719 21.625 C 280.03125 21.113281 279.957031 20.59375 279.90625 20.070312 C 279.851562 19.546875 279.828125 19.023438 279.828125 18.5 C 279.828125 17.976562 279.851562 17.449219 279.90625 16.929688 C 279.957031 16.40625 280.03125 15.886719 280.136719 15.371094 C 280.238281 14.859375 280.363281 14.347656 280.515625 13.847656 C 280.667969 13.34375 280.847656 12.851562 281.046875 12.367188 C 281.25 11.882812 281.472656 11.40625 281.71875 10.945312 C 281.96875 10.480469 282.238281 10.03125 282.527344 9.59375 C 282.820312 9.160156 283.132812 8.738281 283.464844 8.332031 C 283.796875 7.925781 284.148438 7.539062 284.519531 7.167969 C 284.894531 6.796875 285.28125 6.445312 285.6875 6.109375 C 286.09375 5.777344 286.515625 5.464844 286.949219 5.171875 C 287.386719 4.882812 287.835938 4.613281 288.300781 4.363281 C 288.761719 4.117188 289.234375 3.894531 289.722656 3.691406 C 290.207031 3.492188 290.699219 3.316406 291.203125 3.164062 C 291.703125 3.011719 292.210938 2.882812 292.726562 2.78125 C 293.242188 2.679688 293.761719 2.601562 294.285156 2.550781 C 294.804688 2.5 295.328125 2.472656 295.855469 2.472656 C 296.378906 2.472656 296.902344 2.5 297.425781 2.550781 C 297.949219 2.601562 298.464844 2.679688 298.980469 2.78125 C 299.496094 2.882812 300.003906 3.011719 300.507812 3.164062 C 301.007812 3.316406 301.503906 3.492188 301.988281 3.691406 C 302.472656 3.894531 302.945312 4.117188 303.410156 4.363281 C 303.871094 4.613281 304.320312 4.882812 304.757812 5.171875 C 305.195312 5.464844 305.617188 5.777344 306.023438 6.109375 C 306.425781 6.445312 306.816406 6.796875 307.1875 7.167969 C 307.558594 7.539062 307.910156 7.925781 308.242188 8.332031 C 308.578125 8.738281 308.890625 9.160156 309.179688 9.59375 C 309.472656 10.03125 309.742188 10.480469 309.988281 10.945312 C 310.238281 11.40625 310.460938 11.882812 310.660156 12.367188 C 310.863281 12.851562 311.039062 13.34375 311.191406 13.847656 C 311.34375 14.347656 311.472656 14.859375 311.574219 15.371094 C 311.675781 15.886719 311.753906 16.40625 311.804688 16.929688 C 311.855469 17.449219 311.882812 17.976562 311.882812 18.5 Z M 311.882812 18.5 " fill-opacity="1" fill-rule="nonzero"/><g clip-path="url(#951539869d)"><path fill="#dd7233" d="M 359.265625 18.5 C 359.265625 19.078125 359.238281 19.65625 359.179688 20.234375 C 359.125 20.8125 359.039062 21.382812 358.925781 21.953125 C 358.8125 22.519531 358.671875 23.082031 358.503906 23.636719 C 358.335938 24.191406 358.140625 24.738281 357.917969 25.273438 C 357.695312 25.808594 357.449219 26.332031 357.175781 26.84375 C 356.902344 27.355469 356.605469 27.851562 356.28125 28.332031 C 355.960938 28.816406 355.617188 29.28125 355.25 29.726562 C 354.878906 30.175781 354.492188 30.605469 354.082031 31.015625 C 353.671875 31.425781 353.242188 31.8125 352.796875 32.179688 C 352.347656 32.550781 351.882812 32.894531 351.398438 33.214844 C 350.917969 33.539062 350.421875 33.835938 349.910156 34.109375 C 349.398438 34.382812 348.875 34.628906 348.339844 34.851562 C 347.804688 35.074219 347.257812 35.269531 346.703125 35.4375 C 346.148438 35.605469 345.589844 35.746094 345.019531 35.859375 C 344.449219 35.972656 343.878906 36.058594 343.300781 36.113281 C 342.722656 36.171875 342.144531 36.199219 341.566406 36.199219 C 340.988281 36.199219 340.410156 36.171875 339.832031 36.113281 C 339.253906 36.058594 338.683594 35.972656 338.113281 35.859375 C 337.546875 35.746094 336.984375 35.605469 336.429688 35.4375 C 335.875 35.269531 335.328125 35.074219 334.792969 34.851562 C 334.257812 34.628906 333.734375 34.382812 333.222656 34.109375 C 332.710938 33.835938 332.214844 33.539062 331.734375 33.214844 C 331.25 32.894531 330.785156 32.550781 330.339844 32.179688 C 329.890625 31.8125 329.460938 31.425781 329.050781 31.015625 C 328.640625 30.605469 328.253906 30.175781 327.882812 29.726562 C 327.515625 29.28125 327.171875 28.816406 326.851562 28.332031 C 326.527344 27.851562 326.230469 27.355469 325.957031 26.84375 C 325.683594 26.332031 325.4375 25.808594 325.214844 25.273438 C 324.992188 24.738281 324.796875 24.191406 324.628906 23.636719 C 324.460938 23.082031 324.320312 22.519531 324.207031 21.953125 C 324.09375 21.382812 324.007812 20.8125 323.953125 20.234375 C 323.894531 19.65625 323.867188 19.078125 323.867188 18.5 C 323.867188 17.917969 323.894531 17.339844 323.953125 16.765625 C 324.007812 16.1875 324.09375 15.613281 324.207031 15.046875 C 324.320312 14.476562 324.460938 13.917969 324.628906 13.363281 C 324.796875 12.808594 324.992188 12.261719 325.214844 11.726562 C 325.4375 11.191406 325.683594 10.667969 325.957031 10.15625 C 326.230469 9.644531 326.527344 9.148438 326.851562 8.667969 C 327.171875 8.183594 327.515625 7.71875 327.882812 7.269531 C 328.253906 6.824219 328.640625 6.394531 329.050781 5.984375 C 329.460938 5.574219 329.890625 5.183594 330.339844 4.816406 C 330.785156 4.449219 331.25 4.105469 331.734375 3.78125 C 332.214844 3.460938 332.710938 3.164062 333.222656 2.890625 C 333.734375 2.617188 334.257812 2.367188 334.792969 2.148438 C 335.328125 1.925781 335.875 1.730469 336.429688 1.5625 C 336.984375 1.394531 337.546875 1.253906 338.113281 1.140625 C 338.683594 1.027344 339.253906 0.941406 339.832031 0.886719 C 340.410156 0.828125 340.988281 0.800781 341.566406 0.800781 C 342.144531 0.800781 342.722656 0.828125 343.300781 0.886719 C 343.878906 0.941406 344.449219 1.027344 345.019531 1.140625 C 345.589844 1.253906 346.148438 1.394531 346.703125 1.5625 C 347.257812 1.730469 347.804688 1.925781 348.339844 2.148438 C 348.875 2.367188 349.398438 2.617188 349.910156 2.890625 C 350.421875 3.164062 350.917969 3.460938 351.398438 3.78125 C 351.882812 4.105469 352.347656 4.449219 352.796875 4.816406 C 353.242188 5.183594 353.671875 5.574219 354.082031 5.984375 C 354.492188 6.394531 354.878906 6.824219 355.25 7.269531 C 355.617188 7.71875 355.960938 8.183594 356.28125 8.667969 C 356.605469 9.148438 356.902344 9.644531 357.175781 10.15625 C 357.449219 10.667969 357.695312 11.191406 357.917969 11.726562 C 358.140625 12.261719 358.335938 12.808594 358.503906 13.363281 C 358.671875 13.917969 358.8125 14.476562 358.925781 15.046875 C 359.039062 15.613281 359.125 16.1875 359.179688 16.765625 C 359.238281 17.339844 359.265625 17.917969 359.265625 18.5 Z M 359.265625 18.5 " fill-opacity="1" fill-rule="nonzero"/></g><g clip-path="url(#1b565b7a30)"><g clip-path="url(#8b17cc5161)"><path fill="#dd7233" d="M 108.011719 14.875 L 116.007812 14.875 L 116.007812 22.722656 L 108.011719 22.722656 Z M 108.011719 14.875 " fill-opacity="1" fill-rule="nonzero"/></g></g></svg>