<svg xmlns="http://www.w3.org/2000/svg" xmlns:xlink="http://www.w3.org/1999/xlink" width="500" zoomAndPan="magnify" viewBox="0 0 375 37.5" height="50" preserveAspectRatio="xMidYMid meet" version="1.0"><defs><clipPath id="be49580127"><path d="M 102.523438 11.40625 L 102.574219 11.40625 L 102.574219 11.441406 L 102.523438 11.441406 Z M 102.523438 11.40625 " clip-rule="nonzero"/></clipPath><clipPath id="f5a04062e0"><path d="M 102.570312 11.429688 C 102.480469 11.46875 102.5625 11.40625 102.5625 11.40625 " clip-rule="nonzero"/></clipPath><clipPath id="21fef086e6"><path d="M 105.875 13.882812 L 105.921875 13.882812 L 105.921875 13.917969 L 105.875 13.917969 Z M 105.875 13.882812 " clip-rule="nonzero"/></clipPath><clipPath id="9dade563e8"><path d="M 105.917969 13.902344 C 105.828125 13.945312 105.910156 13.882812 105.910156 13.882812 " clip-rule="nonzero"/></clipPath><clipPath id="8a2723b26d"><path d="M 15 0.800781 L 52 0.800781 L 52 36.328125 L 15 36.328125 Z M 15 0.800781 " clip-rule="nonzero"/></clipPath><clipPath id="3dfb9a4411"><path d="M 110.890625 17.726562 L 113.066406 17.726562 L 113.066406 19.566406 L 110.890625 19.566406 Z M 110.890625 17.726562 " clip-rule="nonzero"/></clipPath><clipPath id="a1e60b60c8"><path d="M 113.042969 18.429688 C 112.082031 19.910156 111.191406 19.613281 110.96875 19.316406 C 110.824219 19.019531 110.96875 18.058594 111.265625 17.835938 C 111.5625 17.613281 112.746094 17.910156 112.746094 17.910156 " clip-rule="nonzero"/></clipPath></defs><g clip-path="url(#be49580127)"><g clip-path="url(#f5a04062e0)"><path fill="#f6b062" d="M 102.074219 11 L 102.988281 11 L 102.988281 11.882812 L 102.074219 11.882812 Z M 102.074219 11 " fill-opacity="1" fill-rule="nonzero"/></g></g><g clip-path="url(#21fef086e6)"><g clip-path="url(#9dade563e8)"><path fill="#f6b062" d="M 105.421875 13.476562 L 106.335938 13.476562 L 106.335938 14.359375 L 105.421875 14.359375 Z M 105.421875 13.476562 " fill-opacity="1" fill-rule="nonzero"/></g></g><path fill="#f6b062" d="M 347 18.5 C 347 18.902344 347.042969 19.300781 347.121094 19.695312 C 347.199219 20.089844 347.316406 20.472656 347.46875 20.847656 C 347.621094 21.21875 347.8125 21.570312 348.035156 21.90625 C 348.257812 22.242188 348.511719 22.550781 348.796875 22.835938 C 349.082031 23.121094 349.390625 23.375 349.726562 23.597656 C 350.0625 23.820312 350.414062 24.011719 350.789062 24.164062 C 351.160156 24.320312 351.542969 24.433594 351.9375 24.515625 C 352.332031 24.59375 352.730469 24.632812 353.132812 24.632812 C 353.535156 24.632812 353.933594 24.59375 354.332031 24.515625 C 354.726562 24.433594 355.109375 24.320312 355.480469 24.164062 C 355.851562 24.011719 356.207031 23.820312 356.539062 23.597656 C 356.875 23.375 357.183594 23.121094 357.46875 22.835938 C 357.753906 22.550781 358.007812 22.242188 358.234375 21.90625 C 358.457031 21.570312 358.644531 21.21875 358.800781 20.847656 C 358.953125 20.472656 359.070312 20.089844 359.148438 19.695312 C 359.226562 19.300781 359.265625 18.902344 359.265625 18.5 C 359.265625 18.097656 359.226562 17.699219 359.148438 17.304688 C 359.070312 16.910156 358.953125 16.523438 358.800781 16.152344 C 358.644531 15.78125 358.457031 15.425781 358.234375 15.09375 C 358.007812 14.757812 357.753906 14.449219 357.46875 14.164062 C 357.183594 13.878906 356.875 13.625 356.539062 13.402344 C 356.207031 13.175781 355.851562 12.988281 355.480469 12.835938 C 355.109375 12.679688 354.726562 12.5625 354.332031 12.484375 C 353.933594 12.40625 353.535156 12.367188 353.132812 12.367188 C 352.730469 12.367188 352.332031 12.40625 351.9375 12.484375 C 351.542969 12.5625 351.160156 12.679688 350.789062 12.835938 C 350.414062 12.988281 350.0625 13.175781 349.726562 13.402344 C 349.390625 13.625 349.082031 13.878906 348.796875 14.164062 C 348.511719 14.449219 348.257812 14.757812 348.035156 15.09375 C 347.8125 15.425781 347.621094 15.78125 347.46875 16.152344 C 347.316406 16.523438 347.199219 16.910156 347.121094 17.304688 C 347.042969 17.699219 347 18.097656 347 18.5 Z M 347 18.5 " fill-opacity="1" fill-rule="nonzero"/><path fill="#f6b062" d="M 299.617188 18.5 C 299.617188 19.011719 299.667969 19.519531 299.765625 20.023438 C 299.867188 20.523438 300.015625 21.011719 300.210938 21.484375 C 300.40625 21.960938 300.648438 22.410156 300.933594 22.835938 C 301.21875 23.261719 301.539062 23.65625 301.902344 24.019531 C 302.265625 24.378906 302.660156 24.703125 303.085938 24.988281 C 303.511719 25.273438 303.960938 25.515625 304.433594 25.710938 C 304.910156 25.90625 305.398438 26.054688 305.898438 26.152344 C 306.402344 26.253906 306.910156 26.304688 307.421875 26.304688 C 307.933594 26.304688 308.441406 26.253906 308.945312 26.152344 C 309.445312 26.054688 309.933594 25.90625 310.410156 25.710938 C 310.882812 25.515625 311.332031 25.273438 311.757812 24.988281 C 312.183594 24.703125 312.578125 24.378906 312.941406 24.019531 C 313.304688 23.65625 313.625 23.261719 313.910156 22.835938 C 314.195312 22.410156 314.4375 21.960938 314.632812 21.484375 C 314.828125 21.011719 314.976562 20.523438 315.078125 20.023438 C 315.175781 19.519531 315.226562 19.011719 315.226562 18.5 C 315.226562 17.988281 315.175781 17.480469 315.078125 16.976562 C 314.976562 16.472656 314.828125 15.984375 314.632812 15.511719 C 314.4375 15.039062 314.195312 14.589844 313.910156 14.164062 C 313.625 13.738281 313.304688 13.34375 312.941406 12.980469 C 312.578125 12.617188 312.183594 12.296875 311.757812 12.011719 C 311.332031 11.726562 310.882812 11.484375 310.410156 11.289062 C 309.933594 11.09375 309.445312 10.945312 308.945312 10.84375 C 308.441406 10.746094 307.933594 10.695312 307.421875 10.695312 C 306.910156 10.695312 306.402344 10.746094 305.898438 10.84375 C 305.398438 10.945312 304.910156 11.09375 304.433594 11.289062 C 303.960938 11.484375 303.511719 11.726562 303.085938 12.011719 C 302.660156 12.296875 302.265625 12.617188 301.902344 12.980469 C 301.539062 13.34375 301.21875 13.738281 300.933594 14.164062 C 300.648438 14.589844 300.40625 15.039062 300.210938 15.511719 C 300.015625 15.984375 299.867188 16.472656 299.765625 16.976562 C 299.667969 17.480469 299.617188 17.988281 299.617188 18.5 Z M 299.617188 18.5 " fill-opacity="1" fill-rule="nonzero"/><path fill="#f6b062" d="M 252.234375 18.5 C 252.234375 19.121094 252.292969 19.738281 252.414062 20.347656 C 252.535156 20.957031 252.714844 21.550781 252.953125 22.125 C 253.191406 22.699219 253.484375 23.246094 253.828125 23.765625 C 254.175781 24.28125 254.566406 24.761719 255.007812 25.199219 C 255.449219 25.640625 255.925781 26.035156 256.445312 26.378906 C 256.960938 26.726562 257.507812 27.015625 258.082031 27.253906 C 258.65625 27.492188 259.25 27.671875 259.859375 27.792969 C 260.472656 27.914062 261.085938 27.976562 261.710938 27.976562 C 262.332031 27.976562 262.949219 27.914062 263.558594 27.792969 C 264.167969 27.671875 264.761719 27.492188 265.335938 27.253906 C 265.910156 27.015625 266.457031 26.726562 266.976562 26.378906 C 267.492188 26.035156 267.972656 25.640625 268.410156 25.199219 C 268.851562 24.761719 269.242188 24.28125 269.589844 23.765625 C 269.933594 23.246094 270.226562 22.699219 270.464844 22.125 C 270.703125 21.550781 270.882812 20.957031 271.003906 20.347656 C 271.125 19.738281 271.1875 19.121094 271.1875 18.5 C 271.1875 17.878906 271.125 17.261719 271.003906 16.652344 C 270.882812 16.039062 270.703125 15.449219 270.464844 14.871094 C 270.226562 14.296875 269.933594 13.75 269.589844 13.234375 C 269.242188 12.71875 268.851562 12.238281 268.410156 11.796875 C 267.972656 11.359375 267.492188 10.964844 266.976562 10.621094 C 266.457031 10.273438 265.910156 9.980469 265.335938 9.742188 C 264.761719 9.503906 264.167969 9.324219 263.558594 9.203125 C 262.949219 9.082031 262.332031 9.023438 261.710938 9.023438 C 261.085938 9.023438 260.472656 9.082031 259.859375 9.203125 C 259.25 9.324219 258.65625 9.503906 258.082031 9.742188 C 257.507812 9.980469 256.960938 10.273438 256.445312 10.621094 C 255.925781 10.964844 255.449219 11.359375 255.007812 11.796875 C 254.566406 12.238281 254.175781 12.71875 253.828125 13.234375 C 253.484375 13.75 253.191406 14.296875 252.953125 14.871094 C 252.714844 15.449219 252.535156 16.039062 252.414062 16.652344 C 252.292969 17.261719 252.234375 17.878906 252.234375 18.5 Z M 252.234375 18.5 " fill-opacity="1" fill-rule="nonzero"/><path fill="#f6b062" d="M 204.988281 18.5 C 204.988281 19.230469 205.058594 19.957031 205.203125 20.675781 C 205.34375 21.394531 205.554688 22.089844 205.835938 22.765625 C 206.117188 23.441406 206.460938 24.085938 206.867188 24.695312 C 207.273438 25.300781 207.734375 25.867188 208.253906 26.382812 C 208.769531 26.902344 209.332031 27.363281 209.941406 27.769531 C 210.550781 28.175781 211.195312 28.519531 211.871094 28.800781 C 212.546875 29.082031 213.242188 29.292969 213.960938 29.433594 C 214.679688 29.578125 215.40625 29.648438 216.136719 29.648438 C 216.867188 29.648438 217.59375 29.578125 218.3125 29.433594 C 219.03125 29.292969 219.726562 29.082031 220.402344 28.800781 C 221.078125 28.519531 221.722656 28.175781 222.332031 27.769531 C 222.941406 27.363281 223.503906 26.902344 224.019531 26.382812 C 224.539062 25.867188 225 25.300781 225.40625 24.695312 C 225.8125 24.085938 226.15625 23.441406 226.4375 22.765625 C 226.71875 22.089844 226.929688 21.394531 227.070312 20.675781 C 227.214844 19.957031 227.285156 19.230469 227.285156 18.5 C 227.285156 17.765625 227.214844 17.042969 227.070312 16.324219 C 226.929688 15.605469 226.71875 14.910156 226.4375 14.234375 C 226.15625 13.554688 225.8125 12.914062 225.40625 12.304688 C 225 11.695312 224.539062 11.132812 224.019531 10.617188 C 223.503906 10.097656 222.941406 9.636719 222.332031 9.230469 C 221.722656 8.824219 221.078125 8.480469 220.402344 8.199219 C 219.726562 7.917969 219.03125 7.707031 218.3125 7.5625 C 217.59375 7.421875 216.867188 7.351562 216.136719 7.351562 C 215.40625 7.351562 214.679688 7.421875 213.960938 7.5625 C 213.242188 7.707031 212.546875 7.917969 211.871094 8.199219 C 211.195312 8.480469 210.550781 8.824219 209.941406 9.230469 C 209.332031 9.636719 208.769531 10.097656 208.253906 10.617188 C 207.734375 11.132812 207.273438 11.695312 206.867188 12.304688 C 206.460938 12.914062 206.117188 13.554688 205.835938 14.234375 C 205.554688 14.910156 205.34375 15.605469 205.203125 16.324219 C 205.058594 17.042969 204.988281 17.765625 204.988281 18.5 Z M 204.988281 18.5 " fill-opacity="1" fill-rule="nonzero"/><path fill="#f6b062" d="M 157.601562 18.5 C 157.601562 19.339844 157.683594 20.175781 157.847656 21 C 158.011719 21.828125 158.257812 22.628906 158.578125 23.40625 C 158.902344 24.183594 159.296875 24.921875 159.761719 25.621094 C 160.230469 26.324219 160.761719 26.96875 161.359375 27.566406 C 161.953125 28.160156 162.601562 28.691406 163.300781 29.160156 C 164 29.628906 164.738281 30.023438 165.519531 30.34375 C 166.296875 30.667969 167.097656 30.910156 167.921875 31.074219 C 168.75 31.238281 169.582031 31.320312 170.425781 31.320312 C 171.265625 31.320312 172.101562 31.238281 172.925781 31.074219 C 173.75 30.910156 174.554688 30.667969 175.332031 30.34375 C 176.109375 30.023438 176.847656 29.628906 177.546875 29.160156 C 178.246094 28.691406 178.894531 28.160156 179.492188 27.566406 C 180.085938 26.96875 180.617188 26.324219 181.085938 25.621094 C 181.554688 24.921875 181.949219 24.183594 182.269531 23.40625 C 182.59375 22.628906 182.835938 21.828125 183 21 C 183.164062 20.175781 183.246094 19.339844 183.246094 18.5 C 183.246094 17.65625 183.164062 16.824219 183 16 C 182.835938 15.171875 182.59375 14.371094 182.269531 13.59375 C 181.949219 12.816406 181.554688 12.074219 181.085938 11.375 C 180.617188 10.675781 180.085938 10.027344 179.492188 9.433594 C 178.894531 8.835938 178.246094 8.304688 177.546875 7.839844 C 176.847656 7.371094 176.109375 6.976562 175.332031 6.652344 C 174.554688 6.332031 173.75 6.089844 172.925781 5.925781 C 172.101562 5.761719 171.265625 5.679688 170.425781 5.679688 C 169.582031 5.679688 168.75 5.761719 167.921875 5.925781 C 167.097656 6.089844 166.296875 6.332031 165.519531 6.652344 C 164.738281 6.976562 164 7.371094 163.300781 7.839844 C 162.601562 8.304688 161.953125 8.835938 161.359375 9.433594 C 160.761719 10.027344 160.230469 10.675781 159.761719 11.375 C 159.296875 12.074219 158.902344 12.816406 158.578125 13.59375 C 158.257812 14.371094 158.011719 15.171875 157.847656 16 C 157.683594 16.824219 157.601562 17.65625 157.601562 18.5 Z M 157.601562 18.5 " fill-opacity="1" fill-rule="nonzero"/><path fill="#f6b062" d="M 110.359375 18.5 C 110.359375 19.441406 110.449219 20.375 110.632812 21.300781 C 110.816406 22.222656 111.089844 23.121094 111.449219 23.992188 C 111.8125 24.863281 112.253906 25.691406 112.777344 26.472656 C 113.300781 27.257812 113.894531 27.984375 114.5625 28.648438 C 115.226562 29.316406 115.953125 29.910156 116.738281 30.433594 C 117.519531 30.957031 118.347656 31.402344 119.21875 31.761719 C 120.089844 32.121094 120.988281 32.394531 121.910156 32.578125 C 122.835938 32.761719 123.769531 32.855469 124.710938 32.855469 C 125.65625 32.855469 126.589844 32.761719 127.511719 32.578125 C 128.4375 32.394531 129.335938 32.121094 130.207031 31.761719 C 131.078125 31.402344 131.902344 30.957031 132.6875 30.433594 C 133.472656 29.910156 134.195312 29.316406 134.863281 28.648438 C 135.527344 27.984375 136.125 27.257812 136.648438 26.472656 C 137.171875 25.691406 137.613281 24.863281 137.972656 23.992188 C 138.335938 23.121094 138.605469 22.222656 138.792969 21.300781 C 138.976562 20.375 139.066406 19.441406 139.066406 18.5 C 139.066406 17.558594 138.976562 16.625 138.792969 15.699219 C 138.605469 14.773438 138.335938 13.878906 137.972656 13.007812 C 137.613281 12.136719 137.171875 11.308594 136.648438 10.523438 C 136.125 9.742188 135.527344 9.015625 134.863281 8.347656 C 134.195312 7.683594 133.472656 7.085938 132.6875 6.5625 C 131.902344 6.039062 131.078125 5.597656 130.207031 5.238281 C 129.335938 4.875 128.4375 4.605469 127.511719 4.421875 C 126.589844 4.238281 125.65625 4.144531 124.710938 4.144531 C 123.769531 4.144531 122.835938 4.238281 121.910156 4.421875 C 120.988281 4.605469 120.089844 4.875 119.21875 5.238281 C 118.347656 5.597656 117.519531 6.039062 116.738281 6.5625 C 115.953125 7.085938 115.226562 7.683594 114.5625 8.347656 C 113.894531 9.015625 113.300781 9.742188 112.777344 10.523438 C 112.253906 11.308594 111.8125 12.136719 111.449219 13.007812 C 111.089844 13.878906 110.816406 14.773438 110.632812 15.699219 C 110.449219 16.625 110.359375 17.558594 110.359375 18.5 Z M 110.359375 18.5 " fill-opacity="1" fill-rule="nonzero"/><path fill="#f6b062" d="M 63.113281 18.5 C 63.113281 19.023438 63.136719 19.546875 63.1875 20.070312 C 63.242188 20.59375 63.316406 21.113281 63.421875 21.625 C 63.523438 22.140625 63.648438 22.648438 63.800781 23.152344 C 63.953125 23.652344 64.132812 24.148438 64.332031 24.632812 C 64.53125 25.117188 64.757812 25.589844 65.003906 26.054688 C 65.253906 26.519531 65.523438 26.96875 65.8125 27.402344 C 66.105469 27.839844 66.417969 28.261719 66.75 28.667969 C 67.082031 29.074219 67.433594 29.460938 67.804688 29.832031 C 68.175781 30.203125 68.566406 30.554688 68.972656 30.890625 C 69.378906 31.222656 69.796875 31.535156 70.234375 31.824219 C 70.671875 32.117188 71.121094 32.386719 71.585938 32.632812 C 72.046875 32.882812 72.519531 33.105469 73.007812 33.308594 C 73.492188 33.507812 73.984375 33.683594 74.488281 33.835938 C 74.988281 33.988281 75.496094 34.117188 76.011719 34.21875 C 76.527344 34.320312 77.046875 34.398438 77.570312 34.449219 C 78.089844 34.5 78.613281 34.527344 79.140625 34.527344 C 79.664062 34.527344 80.1875 34.5 80.710938 34.449219 C 81.234375 34.398438 81.75 34.320312 82.265625 34.21875 C 82.78125 34.117188 83.289062 33.988281 83.792969 33.835938 C 84.292969 33.683594 84.789062 33.507812 85.273438 33.308594 C 85.757812 33.105469 86.230469 32.882812 86.695312 32.632812 C 87.15625 32.386719 87.605469 32.117188 88.042969 31.824219 C 88.480469 31.535156 88.902344 31.222656 89.308594 30.890625 C 89.710938 30.554688 90.101562 30.203125 90.472656 29.832031 C 90.84375 29.460938 91.195312 29.074219 91.527344 28.667969 C 91.863281 28.261719 92.175781 27.839844 92.464844 27.402344 C 92.757812 26.96875 93.027344 26.519531 93.273438 26.054688 C 93.523438 25.589844 93.746094 25.117188 93.945312 24.632812 C 94.148438 24.148438 94.324219 23.652344 94.476562 23.152344 C 94.628906 22.648438 94.757812 22.140625 94.859375 21.625 C 94.960938 21.113281 95.039062 20.59375 95.089844 20.070312 C 95.140625 19.546875 95.167969 19.023438 95.167969 18.5 C 95.167969 17.976562 95.140625 17.449219 95.089844 16.929688 C 95.039062 16.40625 94.960938 15.886719 94.859375 15.371094 C 94.757812 14.859375 94.628906 14.347656 94.476562 13.847656 C 94.324219 13.34375 94.148438 12.851562 93.945312 12.367188 C 93.746094 11.882812 93.523438 11.40625 93.273438 10.945312 C 93.027344 10.480469 92.757812 10.03125 92.464844 9.59375 C 92.175781 9.160156 91.863281 8.738281 91.527344 8.332031 C 91.195312 7.925781 90.84375 7.539062 90.472656 7.167969 C 90.101562 6.796875 89.710938 6.445312 89.308594 6.109375 C 88.902344 5.777344 88.480469 5.464844 88.042969 5.171875 C 87.605469 4.882812 87.15625 4.613281 86.695312 4.363281 C 86.230469 4.117188 85.757812 3.894531 85.273438 3.691406 C 84.789062 3.492188 84.292969 3.316406 83.792969 3.164062 C 83.289062 3.011719 82.78125 2.882812 82.265625 2.78125 C 81.75 2.679688 81.234375 2.601562 80.710938 2.550781 C 80.1875 2.5 79.664062 2.472656 79.140625 2.472656 C 78.613281 2.472656 78.089844 2.5 77.570312 2.550781 C 77.046875 2.601562 76.527344 2.679688 76.011719 2.78125 C 75.496094 2.882812 74.988281 3.011719 74.488281 3.164062 C 73.984375 3.316406 73.492188 3.492188 73.007812 3.691406 C 72.519531 3.894531 72.046875 4.117188 71.585938 4.363281 C 71.121094 4.613281 70.671875 4.882812 70.234375 5.171875 C 69.796875 5.464844 69.378906 5.777344 68.972656 6.109375 C 68.566406 6.445312 68.175781 6.796875 67.804688 7.167969 C 67.433594 7.539062 67.082031 7.925781 66.75 8.332031 C 66.417969 8.738281 66.105469 9.160156 65.8125 9.59375 C 65.523438 10.03125 65.253906 10.480469 65.003906 10.945312 C 64.757812 11.40625 64.53125 11.882812 64.332031 12.367188 C 64.132812 12.851562 63.953125 13.34375 63.800781 13.847656 C 63.648438 14.347656 63.523438 14.859375 63.421875 15.371094 C 63.316406 15.886719 63.242188 16.40625 63.1875 16.929688 C 63.136719 17.449219 63.113281 17.976562 63.113281 18.5 Z M 63.113281 18.5 " fill-opacity="1" fill-rule="nonzero"/><g clip-path="url(#8a2723b26d)"><path fill="#f6b062" d="M 15.726562 18.5 C 15.726562 19.078125 15.757812 19.65625 15.8125 20.234375 C 15.871094 20.8125 15.953125 21.382812 16.066406 21.953125 C 16.179688 22.519531 16.320312 23.082031 16.488281 23.636719 C 16.65625 24.191406 16.851562 24.738281 17.074219 25.273438 C 17.296875 25.808594 17.542969 26.332031 17.816406 26.84375 C 18.089844 27.355469 18.386719 27.851562 18.710938 28.332031 C 19.03125 28.816406 19.378906 29.28125 19.746094 29.726562 C 20.113281 30.175781 20.5 30.605469 20.910156 31.015625 C 21.320312 31.425781 21.75 31.8125 22.199219 32.179688 C 22.648438 32.550781 23.113281 32.894531 23.59375 33.214844 C 24.074219 33.539062 24.574219 33.835938 25.082031 34.109375 C 25.59375 34.382812 26.117188 34.628906 26.652344 34.851562 C 27.1875 35.074219 27.734375 35.269531 28.289062 35.4375 C 28.84375 35.605469 29.40625 35.746094 29.972656 35.859375 C 30.542969 35.972656 31.117188 36.058594 31.691406 36.113281 C 32.269531 36.171875 32.847656 36.199219 33.425781 36.199219 C 34.007812 36.199219 34.585938 36.171875 35.160156 36.113281 C 35.738281 36.058594 36.3125 35.972656 36.878906 35.859375 C 37.449219 35.746094 38.011719 35.605469 38.566406 35.4375 C 39.121094 35.269531 39.664062 35.074219 40.199219 34.851562 C 40.734375 34.628906 41.257812 34.382812 41.769531 34.109375 C 42.28125 33.835938 42.777344 33.539062 43.261719 33.214844 C 43.742188 32.894531 44.207031 32.550781 44.65625 32.179688 C 45.105469 31.8125 45.53125 31.425781 45.941406 31.015625 C 46.351562 30.605469 46.742188 30.175781 47.109375 29.726562 C 47.476562 29.28125 47.820312 28.816406 48.144531 28.332031 C 48.464844 27.851562 48.761719 27.355469 49.035156 26.84375 C 49.308594 26.332031 49.558594 25.808594 49.78125 25.273438 C 50 24.738281 50.195312 24.191406 50.363281 23.636719 C 50.53125 23.082031 50.671875 22.519531 50.785156 21.953125 C 50.898438 21.382812 50.984375 20.8125 51.042969 20.234375 C 51.097656 19.65625 51.125 19.078125 51.125 18.5 C 51.125 17.917969 51.097656 17.339844 51.042969 16.765625 C 50.984375 16.1875 50.898438 15.613281 50.785156 15.046875 C 50.671875 14.476562 50.53125 13.917969 50.363281 13.363281 C 50.195312 12.808594 50 12.261719 49.78125 11.726562 C 49.558594 11.191406 49.308594 10.667969 49.035156 10.15625 C 48.761719 9.644531 48.464844 9.148438 48.144531 8.667969 C 47.820312 8.183594 47.476562 7.71875 47.109375 7.269531 C 46.742188 6.824219 46.351562 6.394531 45.941406 5.984375 C 45.53125 5.574219 45.105469 5.183594 44.65625 4.816406 C 44.207031 4.449219 43.742188 4.105469 43.261719 3.78125 C 42.777344 3.460938 42.28125 3.164062 41.769531 2.890625 C 41.257812 2.617188 40.734375 2.367188 40.199219 2.148438 C 39.664062 1.925781 39.121094 1.730469 38.566406 1.5625 C 38.011719 1.394531 37.449219 1.253906 36.878906 1.140625 C 36.3125 1.027344 35.738281 0.941406 35.160156 0.886719 C 34.585938 0.828125 34.007812 0.800781 33.425781 0.800781 C 32.847656 0.800781 32.269531 0.828125 31.691406 0.886719 C 31.117188 0.941406 30.542969 1.027344 29.972656 1.140625 C 29.40625 1.253906 28.84375 1.394531 28.289062 1.5625 C 27.734375 1.730469 27.1875 1.925781 26.652344 2.148438 C 26.117188 2.367188 25.59375 2.617188 25.082031 2.890625 C 24.574219 3.164062 24.074219 3.460938 23.59375 3.78125 C 23.113281 4.105469 22.648438 4.449219 22.199219 4.816406 C 21.75 5.183594 21.320312 5.574219 20.910156 5.984375 C 20.5 6.394531 20.113281 6.824219 19.746094 7.269531 C 19.378906 7.71875 19.03125 8.183594 18.710938 8.667969 C 18.386719 9.148438 18.089844 9.644531 17.816406 10.15625 C 17.542969 10.667969 17.296875 11.191406 17.074219 11.726562 C 16.851562 12.261719 16.65625 12.808594 16.488281 13.363281 C 16.320312 13.917969 16.179688 14.476562 16.066406 15.046875 C 15.953125 15.613281 15.871094 16.1875 15.8125 16.765625 C 15.757812 17.339844 15.726562 17.917969 15.726562 18.5 Z M 15.726562 18.5 " fill-opacity="1" fill-rule="nonzero"/></g><g clip-path="url(#3dfb9a4411)"><g clip-path="url(#a1e60b60c8)"><path fill="#f6b062" d="M 108.011719 14.875 L 116.007812 14.875 L 116.007812 22.722656 L 108.011719 22.722656 Z M 108.011719 14.875 " fill-opacity="1" fill-rule="nonzero"/></g></g></svg>