<svg xmlns="http://www.w3.org/2000/svg" xmlns:xlink="http://www.w3.org/1999/xlink" width="500" zoomAndPan="magnify" viewBox="0 0 375 225" height="300" preserveAspectRatio="xMidYMid meet" version="1.0"><defs><clipPath id="977afef1fd"><path d="M 2.613281 18.25 L 6.914062 18.25 L 6.914062 21.898438 L 2.613281 21.898438 Z M 2.613281 18.25 " clip-rule="nonzero"/></clipPath><clipPath id="057d7469df"><path d="M 6.898438 19.5 C 4.949219 22.574219 3.148438 21.976562 2.773438 21.375 C 2.398438 20.699219 2.773438 18.898438 3.300781 18.449219 C 3.898438 18 6.300781 18.601562 6.300781 18.601562 " clip-rule="nonzero"/></clipPath><clipPath id="2bf8f7fdb3"><path d="M 0 14.167969 L 369.515625 14.167969 L 369.515625 210.863281 L 0 210.863281 Z M 0 14.167969 " clip-rule="nonzero"/></clipPath></defs><g clip-path="url(#977afef1fd)"><g clip-path="url(#057d7469df)"><path fill="#1e1e1e" d="M -0.226562 15.449219 L 9.90625 15.449219 L 9.90625 25.273438 L -0.226562 25.273438 Z M -0.226562 15.449219 " fill-opacity="1" fill-rule="nonzero"/></g></g><g clip-path="url(#2bf8f7fdb3)"><path fill="#353535" d="M 368.835938 210.132812 C 368.789062 210.132812 368.75 210.167969 368.75 210.21875 C 368.75 210.265625 368.789062 210.304688 368.835938 210.304688 C 368.882812 210.304688 368.921875 210.265625 368.921875 210.21875 C 368.921875 210.167969 368.882812 210.132812 368.835938 210.132812 Z M 346.097656 210.097656 C 346.03125 210.097656 345.976562 210.152344 345.976562 210.21875 C 345.976562 210.285156 346.03125 210.339844 346.097656 210.339844 C 346.164062 210.339844 346.21875 210.285156 346.21875 210.21875 C 346.21875 210.152344 346.164062 210.097656 346.097656 210.097656 Z M 323.359375 210.0625 C 323.273438 210.0625 323.199219 210.132812 323.199219 210.21875 C 323.199219 210.304688 323.273438 210.375 323.359375 210.375 C 323.445312 210.375 323.515625 210.304688 323.515625 210.21875 C 323.515625 210.132812 323.445312 210.0625 323.359375 210.0625 Z M 300.621094 210.023438 C 300.515625 210.023438 300.425781 210.113281 300.425781 210.21875 C 300.425781 210.324219 300.515625 210.410156 300.621094 210.410156 C 300.726562 210.410156 300.808594 210.324219 300.808594 210.21875 C 300.808594 210.113281 300.726562 210.023438 300.621094 210.023438 Z M 277.878906 209.988281 C 277.753906 209.988281 277.652344 210.09375 277.652344 210.21875 C 277.652344 210.34375 277.753906 210.445312 277.878906 210.445312 C 278.007812 210.445312 278.105469 210.34375 278.105469 210.21875 C 278.105469 210.09375 278.007812 209.988281 277.878906 209.988281 Z M 255.140625 209.957031 C 254.996094 209.957031 254.878906 210.074219 254.878906 210.21875 C 254.878906 210.363281 254.996094 210.480469 255.140625 210.480469 C 255.285156 210.480469 255.402344 210.363281 255.402344 210.21875 C 255.402344 210.074219 255.285156 209.957031 255.140625 209.957031 Z M 232.398438 209.921875 C 232.238281 209.921875 232.105469 210.054688 232.105469 210.21875 C 232.105469 210.382812 232.238281 210.515625 232.398438 210.515625 C 232.5625 210.515625 232.699219 210.382812 232.699219 210.21875 C 232.699219 210.054688 232.5625 209.921875 232.398438 209.921875 Z M 209.660156 209.886719 C 209.480469 209.886719 209.332031 210.035156 209.332031 210.21875 C 209.332031 210.402344 209.480469 210.546875 209.660156 210.546875 C 209.84375 210.546875 209.992188 210.402344 209.992188 210.21875 C 209.992188 210.035156 209.84375 209.886719 209.660156 209.886719 Z M 186.921875 209.851562 C 186.722656 209.851562 186.554688 210.015625 186.554688 210.21875 C 186.554688 210.417969 186.722656 210.582031 186.921875 210.582031 C 187.125 210.582031 187.289062 210.417969 187.289062 210.21875 C 187.289062 210.015625 187.125 209.851562 186.921875 209.851562 Z M 164.179688 209.816406 C 163.960938 209.816406 163.78125 209.996094 163.78125 210.21875 C 163.78125 210.4375 163.960938 210.617188 164.179688 210.617188 C 164.40625 210.617188 164.582031 210.4375 164.582031 210.21875 C 164.582031 209.996094 164.40625 209.816406 164.179688 209.816406 Z M 141.441406 209.78125 C 141.203125 209.78125 141.007812 209.976562 141.007812 210.21875 C 141.007812 210.457031 141.203125 210.652344 141.441406 210.652344 C 141.683594 210.652344 141.878906 210.457031 141.878906 210.21875 C 141.878906 209.976562 141.683594 209.78125 141.441406 209.78125 Z M 118.703125 209.746094 C 118.445312 209.746094 118.230469 209.957031 118.230469 210.21875 C 118.230469 210.476562 118.445312 210.6875 118.703125 210.6875 C 118.964844 210.6875 119.175781 210.476562 119.175781 210.21875 C 119.175781 209.957031 118.964844 209.746094 118.703125 209.746094 Z M 95.964844 209.714844 C 95.6875 209.714844 95.457031 209.9375 95.457031 210.21875 C 95.457031 210.496094 95.6875 210.726562 95.964844 210.726562 C 96.242188 210.726562 96.46875 210.496094 96.46875 210.21875 C 96.46875 209.9375 96.242188 209.714844 95.964844 209.714844 Z M 73.222656 209.679688 C 72.925781 209.679688 72.683594 209.917969 72.683594 210.21875 C 72.683594 210.515625 72.925781 210.761719 73.222656 210.761719 C 73.519531 210.761719 73.765625 210.515625 73.765625 210.21875 C 73.765625 209.917969 73.519531 209.679688 73.222656 209.679688 Z M 50.484375 209.644531 C 50.167969 209.644531 49.910156 209.898438 49.910156 210.21875 C 49.910156 210.535156 50.167969 210.792969 50.484375 210.792969 C 50.800781 210.792969 51.0625 210.535156 51.0625 210.21875 C 51.0625 209.898438 50.800781 209.644531 50.484375 209.644531 Z M 27.746094 209.609375 C 27.410156 209.609375 27.136719 209.882812 27.136719 210.21875 C 27.136719 210.554688 27.410156 210.828125 27.746094 210.828125 C 28.082031 210.828125 28.355469 210.554688 28.355469 210.21875 C 28.355469 209.882812 28.082031 209.609375 27.746094 209.609375 Z M 5.007812 209.574219 C 4.652344 209.574219 4.363281 209.863281 4.363281 210.21875 C 4.363281 210.574219 4.652344 210.863281 5.007812 210.863281 C 5.363281 210.863281 5.652344 210.574219 5.652344 210.21875 C 5.652344 209.863281 5.363281 209.574219 5.007812 209.574219 Z M 368.835938 189.085938 C 368.761719 189.085938 368.703125 189.148438 368.703125 189.222656 C 368.703125 189.292969 368.761719 189.355469 368.835938 189.355469 C 368.910156 189.355469 368.96875 189.292969 368.96875 189.222656 C 368.96875 189.148438 368.910156 189.085938 368.835938 189.085938 Z M 346.097656 189.035156 C 345.996094 189.035156 345.910156 189.117188 345.910156 189.222656 C 345.910156 189.328125 345.996094 189.410156 346.097656 189.410156 C 346.199219 189.410156 346.285156 189.328125 346.285156 189.222656 C 346.285156 189.117188 346.199219 189.035156 346.097656 189.035156 Z M 323.359375 188.980469 C 323.222656 188.980469 323.117188 189.089844 323.117188 189.222656 C 323.117188 189.355469 323.222656 189.460938 323.359375 189.460938 C 323.488281 189.460938 323.597656 189.355469 323.597656 189.222656 C 323.597656 189.089844 323.488281 188.980469 323.359375 188.980469 Z M 300.621094 188.925781 C 300.457031 188.925781 300.324219 189.058594 300.324219 189.222656 C 300.324219 189.382812 300.457031 189.515625 300.621094 189.515625 C 300.78125 189.515625 300.914062 189.382812 300.914062 189.222656 C 300.914062 189.058594 300.78125 188.925781 300.621094 188.925781 Z M 277.878906 188.871094 C 277.683594 188.871094 277.53125 189.027344 277.53125 189.222656 C 277.53125 189.414062 277.683594 189.570312 277.878906 189.570312 C 278.070312 189.570312 278.226562 189.414062 278.226562 189.222656 C 278.226562 189.027344 278.070312 188.871094 277.878906 188.871094 Z M 255.140625 188.820312 C 254.917969 188.820312 254.738281 189 254.738281 189.222656 C 254.738281 189.441406 254.917969 189.625 255.140625 189.625 C 255.359375 189.625 255.542969 189.441406 255.542969 189.222656 C 255.542969 189 255.359375 188.820312 255.140625 188.820312 Z M 232.398438 188.765625 C 232.148438 188.765625 231.945312 188.96875 231.945312 189.222656 C 231.945312 189.472656 232.148438 189.675781 232.398438 189.675781 C 232.652344 189.675781 232.855469 189.472656 232.855469 189.222656 C 232.855469 188.96875 232.652344 188.765625 232.398438 188.765625 Z M 209.660156 188.710938 C 209.378906 188.710938 209.152344 188.941406 209.152344 189.222656 C 209.152344 189.503906 209.378906 189.730469 209.660156 189.730469 C 209.945312 189.730469 210.167969 189.503906 210.167969 189.222656 C 210.167969 188.941406 209.945312 188.710938 209.660156 188.710938 Z M 186.921875 188.660156 C 186.613281 188.660156 186.359375 188.910156 186.359375 189.222656 C 186.359375 189.53125 186.613281 189.785156 186.921875 189.785156 C 187.234375 189.785156 187.484375 189.53125 187.484375 189.222656 C 187.484375 188.910156 187.234375 188.660156 186.921875 188.660156 Z M 164.179688 188.605469 C 163.839844 188.605469 163.566406 188.878906 163.566406 189.222656 C 163.566406 189.5625 163.839844 189.835938 164.179688 189.835938 C 164.519531 189.835938 164.796875 189.5625 164.796875 189.222656 C 164.796875 188.878906 164.519531 188.605469 164.179688 188.605469 Z M 141.441406 188.550781 C 141.074219 188.550781 140.773438 188.851562 140.773438 189.222656 C 140.773438 189.59375 141.074219 189.890625 141.441406 189.890625 C 141.8125 189.890625 142.113281 189.59375 142.113281 189.222656 C 142.113281 188.851562 141.8125 188.550781 141.441406 188.550781 Z M 118.703125 188.496094 C 118.304688 188.496094 117.980469 188.824219 117.980469 189.222656 C 117.980469 189.621094 118.304688 189.945312 118.703125 189.945312 C 119.105469 189.945312 119.425781 189.621094 119.425781 189.222656 C 119.425781 188.824219 119.105469 188.496094 118.703125 188.496094 Z M 95.964844 188.445312 C 95.535156 188.445312 95.1875 188.792969 95.1875 189.222656 C 95.1875 189.652344 95.535156 190 95.964844 190 C 96.394531 190 96.742188 189.652344 96.742188 189.222656 C 96.742188 188.792969 96.394531 188.445312 95.964844 188.445312 Z M 73.222656 188.390625 C 72.765625 188.390625 72.390625 188.761719 72.390625 189.222656 C 72.390625 189.679688 72.765625 190.050781 73.222656 190.050781 C 73.683594 190.050781 74.058594 189.679688 74.058594 189.222656 C 74.058594 188.761719 73.683594 188.390625 73.222656 188.390625 Z M 50.484375 188.335938 C 49.996094 188.335938 49.601562 188.734375 49.601562 189.222656 C 49.601562 189.710938 49.996094 190.105469 50.484375 190.105469 C 50.976562 190.105469 51.371094 189.710938 51.371094 189.222656 C 51.371094 188.734375 50.976562 188.335938 50.484375 188.335938 Z M 27.746094 188.285156 C 27.226562 188.285156 26.804688 188.703125 26.804688 189.222656 C 26.804688 189.742188 27.226562 190.160156 27.746094 190.160156 C 28.265625 190.160156 28.6875 189.742188 28.6875 189.222656 C 28.6875 188.703125 28.265625 188.285156 27.746094 188.285156 Z M 5.007812 188.230469 C 4.457031 188.230469 4.011719 188.671875 4.011719 189.222656 C 4.011719 189.769531 4.457031 190.214844 5.007812 190.214844 C 5.554688 190.214844 6 189.769531 6 189.222656 C 6 188.671875 5.554688 188.230469 5.007812 188.230469 Z M 368.835938 167.902344 C 368.730469 167.902344 368.644531 167.988281 368.644531 168.09375 C 368.644531 168.203125 368.730469 168.289062 368.835938 168.289062 C 368.941406 168.289062 369.027344 168.203125 369.027344 168.09375 C 369.027344 167.988281 368.941406 167.902344 368.835938 167.902344 Z M 346.097656 167.824219 C 345.949219 167.824219 345.828125 167.949219 345.828125 168.09375 C 345.828125 168.242188 345.949219 168.363281 346.097656 168.363281 C 346.246094 168.363281 346.367188 168.242188 346.367188 168.09375 C 346.367188 167.949219 346.246094 167.824219 346.097656 167.824219 Z M 323.359375 167.75 C 323.164062 167.75 323.011719 167.902344 323.011719 168.09375 C 323.011719 168.285156 323.164062 168.4375 323.359375 168.4375 C 323.546875 168.4375 323.703125 168.285156 323.703125 168.09375 C 323.703125 167.902344 323.546875 167.75 323.359375 167.75 Z M 300.621094 167.675781 C 300.386719 167.675781 300.195312 167.863281 300.195312 168.09375 C 300.195312 168.328125 300.386719 168.515625 300.621094 168.515625 C 300.851562 168.515625 301.039062 168.328125 301.039062 168.09375 C 301.039062 167.863281 300.851562 167.675781 300.621094 167.675781 Z M 277.878906 167.59375 C 277.605469 167.59375 277.378906 167.820312 277.378906 168.09375 C 277.378906 168.371094 277.605469 168.59375 277.878906 168.59375 C 278.152344 168.59375 278.378906 168.371094 278.378906 168.09375 C 278.378906 167.820312 278.152344 167.59375 277.878906 167.59375 Z M 255.140625 167.519531 C 254.820312 167.519531 254.566406 167.777344 254.566406 168.09375 C 254.566406 168.414062 254.820312 168.667969 255.140625 168.667969 C 255.457031 168.667969 255.714844 168.414062 255.714844 168.09375 C 255.714844 167.777344 255.457031 167.519531 255.140625 167.519531 Z M 232.398438 167.445312 C 232.042969 167.445312 231.75 167.738281 231.75 168.09375 C 231.75 168.453125 232.042969 168.746094 232.398438 168.746094 C 232.757812 168.746094 233.050781 168.453125 233.050781 168.09375 C 233.050781 167.738281 232.757812 167.445312 232.398438 167.445312 Z M 209.660156 167.367188 C 209.257812 167.367188 208.933594 167.695312 208.933594 168.09375 C 208.933594 168.496094 209.257812 168.824219 209.660156 168.824219 C 210.0625 168.824219 210.390625 168.496094 210.390625 168.09375 C 210.390625 167.695312 210.0625 167.367188 209.660156 167.367188 Z M 186.921875 167.289062 C 186.476562 167.289062 186.117188 167.648438 186.117188 168.09375 C 186.117188 168.539062 186.476562 168.902344 186.921875 168.902344 C 187.367188 168.902344 187.726562 168.539062 187.726562 168.09375 C 187.726562 167.648438 187.367188 167.289062 186.921875 167.289062 Z M 164.179688 167.214844 C 163.695312 167.214844 163.300781 167.609375 163.300781 168.09375 C 163.300781 168.578125 163.695312 168.976562 164.179688 168.976562 C 164.667969 168.976562 165.0625 168.578125 165.0625 168.09375 C 165.0625 167.609375 164.667969 167.214844 164.179688 167.214844 Z M 141.441406 167.136719 C 140.914062 167.136719 140.488281 167.566406 140.488281 168.09375 C 140.488281 168.625 140.914062 169.054688 141.441406 169.054688 C 141.972656 169.054688 142.402344 168.625 142.402344 168.09375 C 142.402344 167.566406 141.972656 167.136719 141.441406 167.136719 Z M 118.703125 167.058594 C 118.132812 167.058594 117.667969 167.523438 117.667969 168.09375 C 117.667969 168.667969 118.132812 169.128906 118.703125 169.128906 C 119.273438 169.128906 119.738281 168.667969 119.738281 168.09375 C 119.738281 167.523438 119.273438 167.058594 118.703125 167.058594 Z M 95.964844 166.984375 C 95.347656 166.984375 94.851562 167.484375 94.851562 168.09375 C 94.851562 168.707031 95.347656 169.207031 95.964844 169.207031 C 96.578125 169.207031 97.074219 168.707031 97.074219 168.09375 C 97.074219 167.484375 96.578125 166.984375 95.964844 166.984375 Z M 73.222656 166.910156 C 72.570312 166.910156 72.035156 167.4375 72.035156 168.09375 C 72.035156 168.75 72.570312 169.28125 73.222656 169.28125 C 73.878906 169.28125 74.414062 168.75 74.414062 168.09375 C 74.414062 167.4375 73.878906 166.910156 73.222656 166.910156 Z M 50.484375 166.832031 C 49.789062 166.832031 49.21875 167.394531 49.21875 168.09375 C 49.21875 168.792969 49.789062 169.359375 50.484375 169.359375 C 51.183594 169.359375 51.75 168.792969 51.75 168.09375 C 51.75 167.394531 51.183594 166.832031 50.484375 166.832031 Z M 27.746094 166.753906 C 27.003906 166.753906 26.40625 167.355469 26.40625 168.09375 C 26.40625 168.835938 27.003906 169.4375 27.746094 169.4375 C 28.488281 169.4375 29.085938 168.835938 29.085938 168.09375 C 29.085938 167.355469 28.488281 166.753906 27.746094 166.753906 Z M 5.007812 166.679688 C 4.222656 166.679688 3.589844 167.3125 3.589844 168.09375 C 3.589844 168.878906 4.222656 169.511719 5.007812 169.511719 C 5.789062 169.511719 6.425781 168.878906 6.425781 168.09375 C 6.425781 167.3125 5.789062 166.679688 5.007812 166.679688 Z M 368.835938 146.632812 C 368.695312 146.632812 368.582031 146.75 368.582031 146.890625 C 368.582031 147.03125 368.695312 147.144531 368.835938 147.144531 C 368.976562 147.144531 369.09375 147.03125 369.09375 146.890625 C 369.09375 146.75 368.976562 146.632812 368.835938 146.632812 Z M 346.097656 146.53125 C 345.898438 146.53125 345.742188 146.691406 345.742188 146.890625 C 345.742188 147.089844 345.898438 147.246094 346.097656 147.246094 C 346.296875 147.246094 346.453125 147.089844 346.453125 146.890625 C 346.453125 146.691406 346.296875 146.53125 346.097656 146.53125 Z M 323.359375 146.429688 C 323.105469 146.429688 322.898438 146.636719 322.898438 146.890625 C 322.898438 147.144531 323.105469 147.347656 323.359375 147.347656 C 323.613281 147.347656 323.816406 147.144531 323.816406 146.890625 C 323.816406 146.636719 323.613281 146.429688 323.359375 146.429688 Z M 300.621094 146.328125 C 300.308594 146.328125 300.054688 146.578125 300.054688 146.890625 C 300.054688 147.203125 300.308594 147.453125 300.621094 147.453125 C 300.925781 147.453125 301.179688 147.203125 301.179688 146.890625 C 301.179688 146.578125 300.925781 146.328125 300.621094 146.328125 Z M 277.878906 146.226562 C 277.511719 146.226562 277.214844 146.523438 277.214844 146.890625 C 277.214844 147.253906 277.511719 147.554688 277.878906 147.554688 C 278.246094 147.554688 278.542969 147.253906 278.542969 146.890625 C 278.542969 146.523438 278.246094 146.226562 277.878906 146.226562 Z M 255.140625 146.125 C 254.714844 146.125 254.371094 146.464844 254.371094 146.890625 C 254.371094 147.3125 254.714844 147.65625 255.140625 147.65625 C 255.5625 147.65625 255.90625 147.3125 255.90625 146.890625 C 255.90625 146.464844 255.5625 146.125 255.140625 146.125 Z M 232.398438 146.019531 C 231.921875 146.019531 231.53125 146.410156 231.53125 146.890625 C 231.53125 147.367188 231.921875 147.757812 232.398438 147.757812 C 232.882812 147.757812 233.265625 147.367188 233.265625 146.890625 C 233.265625 146.410156 232.882812 146.019531 232.398438 146.019531 Z M 209.660156 145.917969 C 209.125 145.917969 208.691406 146.355469 208.691406 146.890625 C 208.691406 147.425781 209.125 147.859375 209.660156 147.859375 C 210.199219 147.859375 210.628906 147.425781 210.628906 146.890625 C 210.628906 146.355469 210.199219 145.917969 209.660156 145.917969 Z M 186.921875 145.816406 C 186.328125 145.816406 185.847656 146.296875 185.847656 146.890625 C 185.847656 147.484375 186.328125 147.960938 186.921875 147.960938 C 187.511719 147.960938 187.996094 147.484375 187.996094 146.890625 C 187.996094 146.296875 187.511719 145.816406 186.921875 145.816406 Z M 164.179688 145.714844 C 163.53125 145.714844 163.007812 146.242188 163.007812 146.890625 C 163.007812 147.539062 163.53125 148.0625 164.179688 148.0625 C 164.828125 148.0625 165.359375 147.539062 165.359375 146.890625 C 165.359375 146.242188 164.828125 145.714844 164.179688 145.714844 Z M 141.441406 145.613281 C 140.738281 145.613281 140.164062 146.183594 140.164062 146.890625 C 140.164062 147.597656 140.738281 148.167969 141.441406 148.167969 C 142.148438 148.167969 142.71875 147.597656 142.71875 146.890625 C 142.71875 146.183594 142.148438 145.613281 141.441406 145.613281 Z M 118.703125 145.511719 C 117.945312 145.511719 117.324219 146.125 117.324219 146.890625 C 117.324219 147.648438 117.945312 148.269531 118.703125 148.269531 C 119.464844 148.269531 120.082031 147.648438 120.082031 146.890625 C 120.082031 146.125 119.464844 145.511719 118.703125 145.511719 Z M 95.964844 145.410156 C 95.144531 145.410156 94.484375 146.070312 94.484375 146.890625 C 94.484375 147.707031 95.144531 148.371094 95.964844 148.371094 C 96.78125 148.371094 97.445312 147.707031 97.445312 146.890625 C 97.445312 146.070312 96.78125 145.410156 95.964844 145.410156 Z M 73.222656 145.304688 C 72.351562 145.304688 71.640625 146.015625 71.640625 146.890625 C 71.640625 147.761719 72.351562 148.472656 73.222656 148.472656 C 74.097656 148.472656 74.808594 147.761719 74.808594 146.890625 C 74.808594 146.015625 74.097656 145.304688 73.222656 145.304688 Z M 50.484375 145.203125 C 49.554688 145.203125 48.800781 145.960938 48.800781 146.890625 C 48.800781 147.820312 49.554688 148.574219 50.484375 148.574219 C 51.414062 148.574219 52.171875 147.820312 52.171875 146.890625 C 52.171875 145.960938 51.414062 145.203125 50.484375 145.203125 Z M 27.746094 145.101562 C 26.757812 145.101562 25.960938 145.902344 25.960938 146.890625 C 25.960938 147.878906 26.757812 148.675781 27.746094 148.675781 C 28.734375 148.675781 29.53125 147.878906 29.53125 146.890625 C 29.53125 145.902344 28.734375 145.101562 27.746094 145.101562 Z M 5.007812 145 C 3.960938 145 3.117188 145.84375 3.117188 146.890625 C 3.117188 147.933594 3.960938 148.78125 5.007812 148.78125 C 6.050781 148.78125 6.894531 147.933594 6.894531 146.890625 C 6.894531 145.84375 6.050781 145 5.007812 145 Z M 368.835938 125.613281 C 368.671875 125.613281 368.539062 125.75 368.539062 125.914062 C 368.539062 126.082031 368.671875 126.21875 368.835938 126.21875 C 369.003906 126.21875 369.136719 126.082031 369.136719 125.914062 C 369.136719 125.75 369.003906 125.613281 368.835938 125.613281 Z M 346.097656 125.496094 C 345.867188 125.496094 345.675781 125.683594 345.675781 125.914062 C 345.675781 126.148438 345.867188 126.335938 346.097656 126.335938 C 346.332031 126.335938 346.515625 126.148438 346.515625 125.914062 C 346.515625 125.683594 346.332031 125.496094 346.097656 125.496094 Z M 323.359375 125.375 C 323.058594 125.375 322.816406 125.617188 322.816406 125.914062 C 322.816406 126.214844 323.058594 126.457031 323.359375 126.457031 C 323.65625 126.457031 323.898438 126.214844 323.898438 125.914062 C 323.898438 125.617188 323.65625 125.375 323.359375 125.375 Z M 300.621094 125.253906 C 300.253906 125.253906 299.957031 125.550781 299.957031 125.914062 C 299.957031 126.28125 300.253906 126.578125 300.621094 126.578125 C 300.980469 126.578125 301.28125 126.28125 301.28125 125.914062 C 301.28125 125.550781 300.980469 125.253906 300.621094 125.253906 Z M 277.878906 125.136719 C 277.449219 125.136719 277.097656 125.484375 277.097656 125.914062 C 277.097656 126.347656 277.449219 126.699219 277.878906 126.699219 C 278.3125 126.699219 278.660156 126.347656 278.660156 125.914062 C 278.660156 125.484375 278.3125 125.136719 277.878906 125.136719 Z M 255.140625 125.015625 C 254.640625 125.015625 254.238281 125.417969 254.238281 125.914062 C 254.238281 126.414062 254.640625 126.816406 255.140625 126.816406 C 255.636719 126.816406 256.039062 126.414062 256.039062 125.914062 C 256.039062 125.417969 255.636719 125.015625 255.140625 125.015625 Z M 232.398438 124.894531 C 231.835938 124.894531 231.378906 125.351562 231.378906 125.914062 C 231.378906 126.480469 231.835938 126.9375 232.398438 126.9375 C 232.964844 126.9375 233.421875 126.480469 233.421875 125.914062 C 233.421875 125.351562 232.964844 124.894531 232.398438 124.894531 Z M 209.660156 124.773438 C 209.03125 124.773438 208.519531 125.285156 208.519531 125.914062 C 208.519531 126.546875 209.03125 127.058594 209.660156 127.058594 C 210.289062 127.058594 210.804688 126.546875 210.804688 125.914062 C 210.804688 125.285156 210.289062 124.773438 209.660156 124.773438 Z M 186.921875 124.65625 C 186.222656 124.65625 185.660156 125.21875 185.660156 125.914062 C 185.660156 126.613281 186.222656 127.179688 186.921875 127.179688 C 187.617188 127.179688 188.183594 126.613281 188.183594 125.914062 C 188.183594 125.21875 187.617188 124.65625 186.921875 124.65625 Z M 164.179688 124.53125 C 163.421875 124.53125 162.796875 125.152344 162.796875 125.914062 C 162.796875 126.679688 163.421875 127.296875 164.179688 127.296875 C 164.945312 127.296875 165.5625 126.679688 165.5625 125.914062 C 165.5625 125.152344 164.945312 124.53125 164.179688 124.53125 Z M 141.441406 124.414062 C 140.613281 124.414062 139.941406 125.085938 139.941406 125.914062 C 139.941406 126.746094 140.613281 127.421875 141.441406 127.421875 C 142.273438 127.421875 142.945312 126.746094 142.945312 125.914062 C 142.945312 125.085938 142.273438 124.414062 141.441406 124.414062 Z M 118.703125 124.292969 C 117.808594 124.292969 117.082031 125.019531 117.082031 125.914062 C 117.082031 126.8125 117.808594 127.539062 118.703125 127.539062 C 119.597656 127.539062 120.328125 126.8125 120.328125 125.914062 C 120.328125 125.019531 119.597656 124.292969 118.703125 124.292969 Z M 95.964844 124.175781 C 95 124.175781 94.21875 124.953125 94.21875 125.914062 C 94.21875 126.878906 95 127.65625 95.964844 127.65625 C 96.925781 127.65625 97.707031 126.878906 97.707031 125.914062 C 97.707031 124.953125 96.925781 124.175781 95.964844 124.175781 Z M 73.222656 124.050781 C 72.195312 124.050781 71.363281 124.886719 71.363281 125.914062 C 71.363281 126.945312 72.195312 127.777344 73.222656 127.777344 C 74.253906 127.777344 75.085938 126.945312 75.085938 125.914062 C 75.085938 124.886719 74.253906 124.050781 73.222656 124.050781 Z M 50.484375 123.933594 C 49.390625 123.933594 48.503906 124.820312 48.503906 125.914062 C 48.503906 127.011719 49.390625 127.898438 50.484375 127.898438 C 51.582031 127.898438 52.46875 127.011719 52.46875 125.914062 C 52.46875 124.820312 51.582031 123.933594 50.484375 123.933594 Z M 27.746094 123.8125 C 26.585938 123.8125 25.640625 124.753906 25.640625 125.914062 C 25.640625 127.078125 26.585938 128.019531 27.746094 128.019531 C 28.90625 128.019531 29.851562 127.078125 29.851562 125.914062 C 29.851562 124.753906 28.90625 123.8125 27.746094 123.8125 Z M 5.007812 123.691406 C 3.777344 123.691406 2.785156 124.6875 2.785156 125.914062 C 2.785156 127.144531 3.777344 128.136719 5.007812 128.136719 C 6.234375 128.136719 7.230469 127.144531 7.230469 125.914062 C 7.230469 124.6875 6.234375 123.691406 5.007812 123.691406 Z M 368.816406 104.488281 C 368.621094 104.488281 368.464844 104.648438 368.464844 104.84375 C 368.464844 105.039062 368.621094 105.199219 368.816406 105.199219 C 369.011719 105.199219 369.167969 105.039062 369.167969 104.84375 C 369.167969 104.648438 369.011719 104.488281 368.816406 104.488281 Z M 346.078125 104.347656 C 345.804688 104.347656 345.582031 104.570312 345.582031 104.84375 C 345.582031 105.117188 345.804688 105.339844 346.078125 105.339844 C 346.351562 105.339844 346.574219 105.117188 346.574219 104.84375 C 346.574219 104.570312 346.351562 104.347656 346.078125 104.347656 Z M 323.34375 104.207031 C 322.988281 104.207031 322.703125 104.492188 322.703125 104.84375 C 322.703125 105.195312 322.988281 105.480469 323.34375 105.480469 C 323.691406 105.480469 323.976562 105.195312 323.976562 104.84375 C 323.976562 104.492188 323.691406 104.207031 323.34375 104.207031 Z M 300.601562 104.066406 C 300.171875 104.066406 299.824219 104.414062 299.824219 104.84375 C 299.824219 105.273438 300.171875 105.621094 300.601562 105.621094 C 301.035156 105.621094 301.378906 105.273438 301.378906 104.84375 C 301.378906 104.414062 301.035156 104.066406 300.601562 104.066406 Z M 277.863281 103.925781 C 277.359375 103.925781 276.945312 104.339844 276.945312 104.84375 C 276.945312 105.351562 277.359375 105.761719 277.863281 105.761719 C 278.371094 105.761719 278.78125 105.351562 278.78125 104.84375 C 278.78125 104.339844 278.371094 103.925781 277.863281 103.925781 Z M 255.125 103.78125 C 254.539062 103.78125 254.0625 104.257812 254.0625 104.84375 C 254.0625 105.429688 254.539062 105.902344 255.125 105.902344 C 255.710938 105.902344 256.1875 105.429688 256.1875 104.84375 C 256.1875 104.257812 255.710938 103.78125 255.125 103.78125 Z M 232.386719 103.640625 C 231.722656 103.640625 231.183594 104.179688 231.183594 104.84375 C 231.183594 105.507812 231.722656 106.042969 232.386719 106.042969 C 233.050781 106.042969 233.589844 105.507812 233.589844 104.84375 C 233.589844 104.179688 233.050781 103.640625 232.386719 103.640625 Z M 209.648438 103.5 C 208.90625 103.5 208.308594 104.101562 208.308594 104.84375 C 208.308594 105.585938 208.90625 106.1875 209.648438 106.1875 C 210.394531 106.1875 210.992188 105.585938 210.992188 104.84375 C 210.992188 104.101562 210.394531 103.5 209.648438 103.5 Z M 186.910156 103.359375 C 186.09375 103.359375 185.425781 104.023438 185.425781 104.84375 C 185.425781 105.664062 186.09375 106.328125 186.910156 106.328125 C 187.730469 106.328125 188.394531 105.664062 188.394531 104.84375 C 188.394531 104.023438 187.730469 103.359375 186.910156 103.359375 Z M 164.175781 103.21875 C 163.277344 103.21875 162.546875 103.945312 162.546875 104.84375 C 162.546875 105.742188 163.277344 106.472656 164.175781 106.472656 C 165.070312 106.472656 165.796875 105.742188 165.796875 104.84375 C 165.796875 103.945312 165.070312 103.21875 164.175781 103.21875 Z M 141.4375 103.078125 C 140.460938 103.078125 139.667969 103.867188 139.667969 104.84375 C 139.667969 105.820312 140.460938 106.613281 141.4375 106.613281 C 142.410156 106.613281 143.203125 105.820312 143.203125 104.84375 C 143.203125 103.867188 142.410156 103.078125 141.4375 103.078125 Z M 118.699219 102.9375 C 117.640625 102.9375 116.789062 103.789062 116.789062 104.84375 C 116.789062 105.898438 117.640625 106.753906 118.699219 106.753906 C 119.753906 106.753906 120.605469 105.898438 120.605469 104.84375 C 120.605469 103.789062 119.753906 102.9375 118.699219 102.9375 Z M 95.957031 102.796875 C 94.828125 102.796875 93.910156 103.710938 93.910156 104.84375 C 93.910156 105.976562 94.828125 106.894531 95.957031 106.894531 C 97.089844 106.894531 98.007812 105.976562 98.007812 104.84375 C 98.007812 103.710938 97.089844 102.796875 95.957031 102.796875 Z M 73.21875 102.652344 C 72.011719 102.652344 71.027344 103.632812 71.027344 104.84375 C 71.027344 106.054688 72.011719 107.035156 73.21875 107.035156 C 74.433594 107.035156 75.414062 106.054688 75.414062 104.84375 C 75.414062 103.632812 74.433594 102.652344 73.21875 102.652344 Z M 50.480469 102.511719 C 49.195312 102.511719 48.148438 103.554688 48.148438 104.84375 C 48.148438 106.132812 49.195312 107.175781 50.480469 107.175781 C 51.769531 107.175781 52.816406 106.132812 52.816406 104.84375 C 52.816406 103.554688 51.769531 102.511719 50.480469 102.511719 Z M 27.746094 102.367188 C 26.375 102.367188 25.269531 103.476562 25.269531 104.84375 C 25.269531 106.210938 26.375 107.316406 27.746094 107.316406 C 29.113281 107.316406 30.21875 106.210938 30.21875 104.84375 C 30.21875 103.476562 29.113281 102.367188 27.746094 102.367188 Z M 5.007812 102.226562 C 3.558594 102.226562 2.390625 103.402344 2.390625 104.84375 C 2.390625 106.289062 3.558594 107.460938 5.007812 107.460938 C 6.449219 107.460938 7.621094 106.289062 7.621094 104.84375 C 7.621094 103.402344 6.449219 102.226562 5.007812 102.226562 Z M 368.835938 83.242188 C 368.609375 83.242188 368.421875 83.429688 368.421875 83.65625 C 368.421875 83.886719 368.609375 84.074219 368.835938 84.074219 C 369.066406 84.074219 369.253906 83.886719 369.253906 83.65625 C 369.253906 83.429688 369.066406 83.242188 368.835938 83.242188 Z M 346.097656 83.074219 C 345.777344 83.074219 345.511719 83.335938 345.511719 83.65625 C 345.511719 83.980469 345.777344 84.238281 346.097656 84.238281 C 346.417969 84.238281 346.675781 83.980469 346.675781 83.65625 C 346.675781 83.335938 346.417969 83.074219 346.097656 83.074219 Z M 323.359375 82.90625 C 322.945312 82.90625 322.609375 83.242188 322.609375 83.65625 C 322.609375 84.070312 322.945312 84.40625 323.359375 84.40625 C 323.773438 84.40625 324.105469 84.070312 324.105469 83.65625 C 324.105469 83.242188 323.773438 82.90625 323.359375 82.90625 Z M 300.621094 82.742188 C 300.113281 82.742188 299.703125 83.152344 299.703125 83.660156 C 299.703125 84.164062 300.113281 84.574219 300.621094 84.574219 C 301.125 84.574219 301.535156 84.164062 301.535156 83.660156 C 301.535156 83.152344 301.125 82.742188 300.621094 82.742188 Z M 277.878906 82.574219 C 277.28125 82.574219 276.796875 83.058594 276.796875 83.65625 C 276.796875 84.253906 277.28125 84.738281 277.878906 84.738281 C 278.476562 84.738281 278.960938 84.253906 278.960938 83.65625 C 278.960938 83.058594 278.476562 82.574219 277.878906 82.574219 Z M 255.140625 82.410156 C 254.449219 82.410156 253.890625 82.964844 253.890625 83.660156 C 253.890625 84.34375 254.449219 84.902344 255.140625 84.902344 C 255.828125 84.902344 256.386719 84.34375 256.386719 83.660156 C 256.386719 82.964844 255.828125 82.410156 255.140625 82.410156 Z M 232.398438 82.246094 C 231.617188 82.246094 230.984375 82.875 230.984375 83.660156 C 230.984375 84.4375 231.617188 85.070312 232.398438 85.070312 C 233.183594 85.070312 233.816406 84.4375 233.816406 83.660156 C 233.816406 82.875 233.183594 82.246094 232.398438 82.246094 Z M 209.660156 82.078125 C 208.789062 82.078125 208.082031 82.78125 208.082031 83.660156 C 208.082031 84.527344 208.789062 85.238281 209.660156 85.238281 C 210.535156 85.238281 211.242188 84.527344 211.242188 83.660156 C 211.242188 82.78125 210.535156 82.078125 209.660156 82.078125 Z M 186.921875 81.910156 C 185.957031 81.910156 185.175781 82.691406 185.175781 83.660156 C 185.175781 84.621094 185.957031 85.402344 186.921875 85.402344 C 187.886719 85.402344 188.667969 84.621094 188.667969 83.660156 C 188.667969 82.691406 187.886719 81.910156 186.921875 81.910156 Z M 164.179688 81.742188 C 163.125 81.742188 162.269531 82.601562 162.269531 83.660156 C 162.269531 84.714844 163.125 85.570312 164.179688 85.570312 C 165.238281 85.570312 166.09375 84.714844 166.09375 83.660156 C 166.09375 82.601562 165.238281 81.742188 164.179688 81.742188 Z M 141.441406 81.578125 C 140.292969 81.578125 139.363281 82.507812 139.363281 83.660156 C 139.363281 84.804688 140.292969 85.734375 141.441406 85.734375 C 142.589844 85.734375 143.519531 84.804688 143.519531 83.660156 C 143.519531 82.507812 142.589844 81.578125 141.441406 81.578125 Z M 118.703125 81.410156 C 117.460938 81.410156 116.457031 82.417969 116.457031 83.660156 C 116.457031 84.898438 117.460938 85.902344 118.703125 85.902344 C 119.941406 85.902344 120.949219 84.898438 120.949219 83.660156 C 120.949219 82.417969 119.941406 81.410156 118.703125 81.410156 Z M 95.964844 81.246094 C 94.628906 81.246094 93.554688 82.324219 93.554688 83.660156 C 93.554688 84.988281 94.628906 86.066406 95.964844 86.066406 C 97.296875 86.066406 98.378906 84.988281 98.378906 83.660156 C 98.378906 82.324219 97.296875 81.246094 95.964844 81.246094 Z M 73.222656 81.078125 C 71.800781 81.078125 70.644531 82.230469 70.644531 83.660156 C 70.644531 85.078125 71.800781 86.234375 73.222656 86.234375 C 74.648438 86.234375 75.800781 85.078125 75.800781 83.660156 C 75.800781 82.230469 74.648438 81.078125 73.222656 81.078125 Z M 50.484375 80.914062 C 48.96875 80.914062 47.742188 82.140625 47.742188 83.660156 C 47.742188 85.171875 48.96875 86.402344 50.484375 86.402344 C 52 86.402344 53.230469 85.171875 53.230469 83.660156 C 53.230469 82.140625 52 80.914062 50.484375 80.914062 Z M 27.746094 80.746094 C 26.140625 80.746094 24.832031 82.046875 24.832031 83.660156 C 24.832031 85.265625 26.140625 86.566406 27.746094 86.566406 C 29.351562 86.566406 30.660156 85.265625 30.660156 83.660156 C 30.660156 82.046875 29.351562 80.746094 27.746094 80.746094 Z M 5.007812 80.578125 C 3.308594 80.578125 1.929688 81.957031 1.929688 83.660156 C 1.929688 85.355469 3.308594 86.734375 5.007812 86.734375 C 6.707031 86.734375 8.082031 85.355469 8.082031 83.660156 C 8.082031 81.957031 6.707031 80.578125 5.007812 80.578125 Z M 368.835938 61.84375 C 368.566406 61.84375 368.347656 62.0625 368.347656 62.335938 C 368.347656 62.605469 368.566406 62.820312 368.835938 62.820312 C 369.109375 62.820312 369.328125 62.605469 369.328125 62.335938 C 369.328125 62.0625 369.109375 61.84375 368.835938 61.84375 Z M 346.097656 61.648438 C 345.71875 61.648438 345.410156 61.957031 345.410156 62.335938 C 345.410156 62.714844 345.71875 63.019531 346.097656 63.019531 C 346.476562 63.019531 346.78125 62.714844 346.78125 62.335938 C 346.78125 61.957031 346.476562 61.648438 346.097656 61.648438 Z M 323.359375 61.453125 C 322.871094 61.453125 322.476562 61.847656 322.476562 62.335938 C 322.476562 62.820312 322.871094 63.214844 323.359375 63.214844 C 323.847656 63.214844 324.238281 62.820312 324.238281 62.335938 C 324.238281 61.847656 323.847656 61.453125 323.359375 61.453125 Z M 300.621094 61.257812 C 300.023438 61.257812 299.542969 61.738281 299.542969 62.335938 C 299.542969 62.929688 300.023438 63.410156 300.621094 63.410156 C 301.214844 63.410156 301.695312 62.929688 301.695312 62.335938 C 301.695312 61.738281 301.214844 61.257812 300.621094 61.257812 Z M 277.878906 61.0625 C 277.175781 61.0625 276.609375 61.632812 276.609375 62.335938 C 276.609375 63.035156 277.175781 63.605469 277.878906 63.605469 C 278.582031 63.605469 279.152344 63.035156 279.152344 62.335938 C 279.152344 61.632812 278.582031 61.0625 277.878906 61.0625 Z M 255.140625 60.867188 C 254.332031 60.867188 253.671875 61.523438 253.671875 62.335938 C 253.671875 63.144531 254.332031 63.800781 255.140625 63.800781 C 255.949219 63.800781 256.609375 63.144531 256.609375 62.335938 C 256.609375 61.523438 255.949219 60.867188 255.140625 60.867188 Z M 232.398438 60.667969 C 231.480469 60.667969 230.734375 61.414062 230.734375 62.335938 C 230.734375 63.253906 231.480469 63.996094 232.398438 63.996094 C 233.316406 63.996094 234.066406 63.253906 234.066406 62.335938 C 234.066406 61.414062 233.316406 60.667969 232.398438 60.667969 Z M 209.660156 60.472656 C 208.636719 60.472656 207.800781 61.308594 207.800781 62.335938 C 207.800781 63.359375 208.636719 64.191406 209.660156 64.191406 C 210.6875 64.191406 211.519531 63.359375 211.519531 62.335938 C 211.519531 61.308594 210.6875 60.472656 209.660156 60.472656 Z M 186.921875 60.277344 C 185.789062 60.277344 184.867188 61.199219 184.867188 62.335938 C 184.867188 63.46875 185.789062 64.386719 186.921875 64.386719 C 188.054688 64.386719 188.976562 63.46875 188.976562 62.335938 C 188.976562 61.199219 188.054688 60.277344 186.921875 60.277344 Z M 164.179688 60.082031 C 162.941406 60.082031 161.933594 61.089844 161.933594 62.335938 C 161.933594 63.574219 162.941406 64.582031 164.179688 64.582031 C 165.425781 64.582031 166.433594 63.574219 166.433594 62.335938 C 166.433594 61.089844 165.425781 60.082031 164.179688 60.082031 Z M 141.441406 59.886719 C 140.09375 59.886719 138.996094 60.984375 138.996094 62.335938 C 138.996094 63.683594 140.09375 64.777344 141.441406 64.777344 C 142.792969 64.777344 143.890625 63.683594 143.890625 62.335938 C 143.890625 60.984375 142.792969 59.886719 141.441406 59.886719 Z M 118.703125 59.691406 C 117.246094 59.691406 116.0625 60.875 116.0625 62.335938 C 116.0625 63.792969 117.246094 64.972656 118.703125 64.972656 C 120.164062 64.972656 121.34375 63.792969 121.34375 62.335938 C 121.34375 60.875 120.164062 59.691406 118.703125 59.691406 Z M 95.964844 59.496094 C 94.398438 59.496094 93.125 60.765625 93.125 62.335938 C 93.125 63.898438 94.398438 65.171875 95.964844 65.171875 C 97.53125 65.171875 98.800781 63.898438 98.800781 62.335938 C 98.800781 60.765625 97.53125 59.496094 95.964844 59.496094 Z M 73.222656 59.300781 C 71.546875 59.300781 70.191406 60.65625 70.191406 62.335938 C 70.191406 64.007812 71.546875 65.367188 73.222656 65.367188 C 74.902344 65.367188 76.257812 64.007812 76.257812 62.335938 C 76.257812 60.65625 74.902344 59.300781 73.222656 59.300781 Z M 50.484375 59.105469 C 48.699219 59.105469 47.253906 60.550781 47.253906 62.335938 C 47.253906 64.117188 48.699219 65.566406 50.484375 65.566406 C 52.269531 65.566406 53.714844 64.117188 53.714844 62.335938 C 53.714844 60.550781 52.269531 59.105469 50.484375 59.105469 Z M 27.746094 58.910156 C 25.851562 58.910156 24.320312 60.441406 24.320312 62.335938 C 24.320312 64.226562 25.851562 65.757812 27.746094 65.757812 C 29.636719 65.757812 31.171875 64.226562 31.171875 62.335938 C 31.171875 60.441406 29.636719 58.910156 27.746094 58.910156 Z M 5.007812 58.714844 C 3.003906 58.714844 1.386719 60.332031 1.386719 62.335938 C 1.386719 64.332031 3.003906 65.957031 5.007812 65.957031 C 7.003906 65.957031 8.628906 64.332031 8.628906 62.335938 C 8.628906 60.332031 7.003906 58.714844 5.007812 58.714844 Z M 368.839844 40.277344 C 368.519531 40.277344 368.265625 40.53125 368.265625 40.851562 C 368.265625 41.171875 368.519531 41.425781 368.839844 41.425781 C 369.15625 41.425781 369.414062 41.171875 369.414062 40.851562 C 369.414062 40.53125 369.15625 40.277344 368.839844 40.277344 Z M 346.101562 40.046875 C 345.652344 40.046875 345.296875 40.402344 345.296875 40.851562 C 345.296875 41.296875 345.652344 41.65625 346.101562 41.65625 C 346.542969 41.65625 346.90625 41.296875 346.90625 40.851562 C 346.90625 40.402344 346.542969 40.046875 346.101562 40.046875 Z M 323.363281 39.8125 C 322.789062 39.8125 322.320312 40.277344 322.320312 40.851562 C 322.320312 41.425781 322.789062 41.886719 323.363281 41.886719 C 323.933594 41.886719 324.398438 41.425781 324.398438 40.851562 C 324.398438 40.277344 323.933594 39.8125 323.363281 39.8125 Z M 300.621094 39.582031 C 299.921875 39.582031 299.355469 40.152344 299.355469 40.851562 C 299.355469 41.550781 299.921875 42.117188 300.621094 42.117188 C 301.320312 42.117188 301.886719 41.550781 301.886719 40.851562 C 301.886719 40.152344 301.320312 39.582031 300.621094 39.582031 Z M 277.882812 39.355469 C 277.054688 39.355469 276.386719 40.027344 276.386719 40.851562 C 276.386719 41.675781 277.054688 42.347656 277.882812 42.347656 C 278.707031 42.347656 279.378906 41.675781 279.378906 40.851562 C 279.378906 40.027344 278.707031 39.355469 277.882812 39.355469 Z M 255.140625 39.125 C 254.191406 39.125 253.417969 39.898438 253.417969 40.851562 C 253.417969 41.800781 254.191406 42.578125 255.140625 42.578125 C 256.09375 42.578125 256.867188 41.800781 256.867188 40.851562 C 256.867188 39.898438 256.09375 39.125 255.140625 39.125 Z M 232.402344 38.894531 C 231.324219 38.894531 230.445312 39.769531 230.445312 40.851562 C 230.445312 41.929688 231.324219 42.808594 232.402344 42.808594 C 233.484375 42.808594 234.359375 41.929688 234.359375 40.851562 C 234.359375 39.769531 233.484375 38.894531 232.402344 38.894531 Z M 209.664062 38.664062 C 208.457031 38.664062 207.476562 39.644531 207.476562 40.851562 C 207.476562 42.058594 208.457031 43.039062 209.664062 43.039062 C 210.871094 43.039062 211.847656 42.058594 211.847656 40.851562 C 211.847656 39.644531 210.871094 38.664062 209.664062 38.664062 Z M 186.925781 38.433594 C 185.589844 38.433594 184.507812 39.515625 184.507812 40.851562 C 184.507812 42.183594 185.589844 43.269531 186.925781 43.269531 C 188.261719 43.269531 189.339844 42.183594 189.339844 40.851562 C 189.339844 39.515625 188.261719 38.433594 186.925781 38.433594 Z M 164.183594 38.203125 C 162.722656 38.203125 161.539062 39.390625 161.539062 40.851562 C 161.539062 42.3125 162.722656 43.5 164.183594 43.5 C 165.648438 43.5 166.832031 42.3125 166.832031 40.851562 C 166.832031 39.390625 165.648438 38.203125 164.183594 38.203125 Z M 141.445312 37.972656 C 139.859375 37.972656 138.566406 39.261719 138.566406 40.851562 C 138.566406 42.441406 139.859375 43.730469 141.445312 43.730469 C 143.035156 43.730469 144.324219 42.441406 144.324219 40.851562 C 144.324219 39.261719 143.035156 37.972656 141.445312 37.972656 Z M 118.707031 37.742188 C 116.992188 37.742188 115.597656 39.132812 115.597656 40.851562 C 115.597656 42.566406 116.992188 43.957031 118.707031 43.957031 C 120.421875 43.957031 121.816406 42.566406 121.816406 40.851562 C 121.816406 39.132812 120.421875 37.742188 118.707031 37.742188 Z M 95.96875 37.511719 C 94.125 37.511719 92.628906 39.007812 92.628906 40.851562 C 92.628906 42.695312 94.125 44.1875 95.96875 44.1875 C 97.808594 44.1875 99.308594 42.695312 99.308594 40.851562 C 99.308594 39.007812 97.808594 37.511719 95.96875 37.511719 Z M 73.230469 37.285156 C 71.257812 37.285156 69.660156 38.878906 69.660156 40.851562 C 69.660156 42.824219 71.257812 44.421875 73.230469 44.421875 C 75.199219 44.421875 76.796875 42.824219 76.796875 40.851562 C 76.796875 38.878906 75.199219 37.285156 73.230469 37.285156 Z M 50.488281 37.050781 C 48.390625 37.050781 46.691406 38.753906 46.691406 40.851562 C 46.691406 42.949219 48.390625 44.648438 50.488281 44.648438 C 52.585938 44.648438 54.289062 42.949219 54.289062 40.851562 C 54.289062 38.753906 52.585938 37.050781 50.488281 37.050781 Z M 27.75 36.820312 C 25.527344 36.820312 23.71875 38.625 23.71875 40.851562 C 23.71875 43.074219 25.527344 44.878906 27.75 44.878906 C 29.976562 44.878906 31.777344 43.074219 31.777344 40.851562 C 31.777344 38.625 29.976562 36.820312 27.75 36.820312 Z M 5.011719 36.589844 C 2.660156 36.589844 0.75 38.5 0.75 40.851562 C 0.75 43.203125 2.660156 45.109375 5.011719 45.109375 C 7.363281 45.109375 9.269531 43.203125 9.269531 40.851562 C 9.269531 38.5 7.363281 36.589844 5.011719 36.589844 Z M 368.839844 18.503906 C 368.464844 18.503906 368.160156 18.808594 368.160156 19.179688 C 368.160156 19.554688 368.464844 19.855469 368.839844 19.855469 C 369.214844 19.855469 369.515625 19.554688 369.515625 19.179688 C 369.515625 18.808594 369.214844 18.503906 368.839844 18.503906 Z M 346.101562 18.234375 C 345.578125 18.234375 345.152344 18.65625 345.152344 19.179688 C 345.152344 19.703125 345.578125 20.128906 346.101562 20.128906 C 346.621094 20.128906 347.046875 19.703125 347.046875 19.179688 C 347.046875 18.65625 346.621094 18.234375 346.101562 18.234375 Z M 323.363281 17.960938 C 322.6875 17.960938 322.140625 18.507812 322.140625 19.179688 C 322.140625 19.851562 322.6875 20.398438 323.363281 20.398438 C 324.03125 20.398438 324.578125 19.851562 324.578125 19.179688 C 324.578125 18.507812 324.03125 17.960938 323.363281 17.960938 Z M 300.621094 17.691406 C 299.796875 17.691406 299.132812 18.359375 299.132812 19.179688 C 299.132812 20.003906 299.796875 20.671875 300.621094 20.671875 C 301.445312 20.671875 302.109375 20.003906 302.109375 19.179688 C 302.109375 18.359375 301.445312 17.691406 300.621094 17.691406 Z M 277.882812 17.421875 C 276.910156 17.421875 276.121094 18.207031 276.121094 19.179688 C 276.121094 20.152344 276.910156 20.941406 277.882812 20.941406 C 278.851562 20.941406 279.640625 20.152344 279.640625 19.179688 C 279.640625 18.207031 278.851562 17.421875 277.882812 17.421875 Z M 255.140625 17.148438 C 254.019531 17.148438 253.113281 18.058594 253.113281 19.179688 C 253.113281 20.300781 254.019531 21.214844 255.140625 21.214844 C 256.265625 21.214844 257.171875 20.300781 257.171875 19.179688 C 257.171875 18.058594 256.265625 17.148438 255.140625 17.148438 Z M 232.402344 16.875 C 231.132812 16.875 230.101562 17.910156 230.101562 19.179688 C 230.101562 20.453125 231.132812 21.484375 232.402344 21.484375 C 233.671875 21.484375 234.703125 20.453125 234.703125 19.179688 C 234.703125 17.910156 233.671875 16.875 232.402344 16.875 Z M 209.664062 16.605469 C 208.242188 16.605469 207.089844 17.757812 207.089844 19.179688 C 207.089844 20.601562 208.242188 21.753906 209.664062 21.753906 C 211.085938 21.753906 212.238281 20.601562 212.238281 19.179688 C 212.238281 17.757812 211.085938 16.605469 209.664062 16.605469 Z M 186.925781 16.335938 C 185.355469 16.335938 184.082031 17.609375 184.082031 19.179688 C 184.082031 20.75 185.355469 22.023438 186.925781 22.023438 C 188.496094 22.023438 189.769531 20.75 189.769531 19.179688 C 189.769531 17.609375 188.496094 16.335938 186.925781 16.335938 Z M 164.183594 16.066406 C 162.464844 16.066406 161.070312 17.460938 161.070312 19.179688 C 161.070312 20.898438 162.464844 22.292969 164.183594 22.292969 C 165.90625 22.292969 167.300781 20.898438 167.300781 19.179688 C 167.300781 17.460938 165.90625 16.066406 164.183594 16.066406 Z M 141.445312 15.796875 C 139.574219 15.796875 138.0625 17.308594 138.0625 19.179688 C 138.0625 21.050781 139.574219 22.566406 141.445312 22.566406 C 143.316406 22.566406 144.832031 21.050781 144.832031 19.179688 C 144.832031 17.308594 143.316406 15.796875 141.445312 15.796875 Z M 118.707031 15.523438 C 116.6875 15.523438 115.050781 17.160156 115.050781 19.179688 C 115.050781 21.199219 116.6875 22.835938 118.707031 22.835938 C 120.722656 22.835938 122.363281 21.199219 122.363281 19.179688 C 122.363281 17.160156 120.722656 15.523438 118.707031 15.523438 Z M 95.96875 15.253906 C 93.800781 15.253906 92.042969 17.011719 92.042969 19.179688 C 92.042969 21.347656 93.800781 23.109375 95.96875 23.109375 C 98.136719 23.109375 99.894531 21.347656 99.894531 19.179688 C 99.894531 17.011719 98.136719 15.253906 95.96875 15.253906 Z M 73.230469 14.980469 C 70.910156 14.980469 69.03125 16.859375 69.03125 19.179688 C 69.03125 21.5 70.910156 23.378906 73.230469 23.378906 C 75.546875 23.378906 77.425781 21.5 77.425781 19.179688 C 77.425781 16.859375 75.546875 14.980469 73.230469 14.980469 Z M 50.488281 14.710938 C 48.019531 14.710938 46.019531 16.710938 46.019531 19.179688 C 46.019531 21.648438 48.019531 23.652344 50.488281 23.652344 C 52.957031 23.652344 54.960938 21.648438 54.960938 19.179688 C 54.960938 16.710938 52.957031 14.710938 50.488281 14.710938 Z M 27.75 14.441406 C 25.132812 14.441406 23.011719 16.5625 23.011719 19.179688 C 23.011719 21.800781 25.132812 23.921875 27.75 23.921875 C 30.367188 23.921875 32.488281 21.800781 32.488281 19.179688 C 32.488281 16.5625 30.367188 14.441406 27.75 14.441406 Z M 10.019531 19.179688 C 10.019531 21.949219 7.777344 24.191406 5.011719 24.191406 C 2.242188 24.191406 0 21.949219 0 19.179688 C 0 16.410156 2.242188 14.167969 5.011719 14.167969 C 7.777344 14.167969 10.019531 16.410156 10.019531 19.179688 " fill-opacity="1" fill-rule="nonzero"/></g></svg>