<svg xmlns="http://www.w3.org/2000/svg" xmlns:xlink="http://www.w3.org/1999/xlink" width="500" zoomAndPan="magnify" viewBox="0 0 375 374.999991" height="500" preserveAspectRatio="xMidYMid meet" version="1.0"><defs><clipPath id="d4b6cc091f"><path d="M 238 299 L 365 299 L 365 346 L 238 346 Z M 238 299 " clip-rule="nonzero"/></clipPath><clipPath id="40e3f38991"><path d="M 445.390625 170.441406 L 348.625 377.714844 L -27.867188 201.949219 L 68.898438 -5.328125 Z M 445.390625 170.441406 " clip-rule="nonzero"/></clipPath><clipPath id="dd6ef0e5a0"><path d="M 445.390625 170.441406 L 348.625 377.714844 L -27.867188 201.949219 L 68.898438 -5.328125 Z M 445.390625 170.441406 " clip-rule="nonzero"/></clipPath><clipPath id="dfc972e67c"><path d="M 445.390625 170.441406 L 348.625 377.714844 L -27.867188 201.949219 L 68.898438 -5.328125 Z M 445.390625 170.441406 " clip-rule="nonzero"/></clipPath><clipPath id="c19d73caec"><path d="M 206 239 L 290 239 L 290 276 L 206 276 Z M 206 239 " clip-rule="nonzero"/></clipPath><clipPath id="b262399701"><path d="M 445.390625 170.441406 L 348.625 377.714844 L -27.867188 201.949219 L 68.898438 -5.328125 Z M 445.390625 170.441406 " clip-rule="nonzero"/></clipPath><clipPath id="14827bbc1b"><path d="M 445.390625 170.441406 L 348.625 377.714844 L -27.867188 201.949219 L 68.898438 -5.328125 Z M 445.390625 170.441406 " clip-rule="nonzero"/></clipPath><clipPath id="cc9258a380"><path d="M 445.390625 170.441406 L 348.625 377.714844 L -27.867188 201.949219 L 68.898438 -5.328125 Z M 445.390625 170.441406 " clip-rule="nonzero"/></clipPath><clipPath id="2c75de509b"><path d="M 321 222 L 364 222 L 364 248 L 321 248 Z M 321 222 " clip-rule="nonzero"/></clipPath><clipPath id="511256aa3b"><path d="M 445.390625 170.441406 L 348.625 377.714844 L -27.867188 201.949219 L 68.898438 -5.328125 Z M 445.390625 170.441406 " clip-rule="nonzero"/></clipPath><clipPath id="4c2a17e1b4"><path d="M 445.390625 170.441406 L 348.625 377.714844 L -27.867188 201.949219 L 68.898438 -5.328125 Z M 445.390625 170.441406 " clip-rule="nonzero"/></clipPath><clipPath id="a88615f9f4"><path d="M 445.390625 170.441406 L 348.625 377.714844 L -27.867188 201.949219 L 68.898438 -5.328125 Z M 445.390625 170.441406 " clip-rule="nonzero"/></clipPath><clipPath id="2b13a7c6a7"><path d="M 209 119 L 341 119 L 341 221 L 209 221 Z M 209 119 " clip-rule="nonzero"/></clipPath><clipPath id="639ddd3686"><path d="M 445.390625 170.441406 L 348.625 377.714844 L -27.867188 201.949219 L 68.898438 -5.328125 Z M 445.390625 170.441406 " clip-rule="nonzero"/></clipPath><clipPath id="604007a768"><path d="M 445.390625 170.441406 L 348.625 377.714844 L -27.867188 201.949219 L 68.898438 -5.328125 Z M 445.390625 170.441406 " clip-rule="nonzero"/></clipPath><clipPath id="a650dc8562"><path d="M 445.390625 170.441406 L 348.625 377.714844 L -27.867188 201.949219 L 68.898438 -5.328125 Z M 445.390625 170.441406 " clip-rule="nonzero"/></clipPath><clipPath id="9599b36bbe"><path d="M 158 115 L 206 115 L 206 189 L 158 189 Z M 158 115 " clip-rule="nonzero"/></clipPath><clipPath id="22067f1822"><path d="M 445.390625 170.441406 L 348.625 377.714844 L -27.867188 201.949219 L 68.898438 -5.328125 Z M 445.390625 170.441406 " clip-rule="nonzero"/></clipPath><clipPath id="3e81edb5f1"><path d="M 445.390625 170.441406 L 348.625 377.714844 L -27.867188 201.949219 L 68.898438 -5.328125 Z M 445.390625 170.441406 " clip-rule="nonzero"/></clipPath><clipPath id="205fa49958"><path d="M 445.390625 170.441406 L 348.625 377.714844 L -27.867188 201.949219 L 68.898438 -5.328125 Z M 445.390625 170.441406 " clip-rule="nonzero"/></clipPath><clipPath id="65e68e2ec7"><path d="M 63 35 L 113 35 L 113 177 L 63 177 Z M 63 35 " clip-rule="nonzero"/></clipPath><clipPath id="2d7a396a5c"><path d="M 445.390625 170.441406 L 348.625 377.714844 L -27.867188 201.949219 L 68.898438 -5.328125 Z M 445.390625 170.441406 " clip-rule="nonzero"/></clipPath><clipPath id="ae4559a154"><path d="M 445.390625 170.441406 L 348.625 377.714844 L -27.867188 201.949219 L 68.898438 -5.328125 Z M 445.390625 170.441406 " clip-rule="nonzero"/></clipPath><clipPath id="65fcdf612f"><path d="M 445.390625 170.441406 L 348.625 377.714844 L -27.867188 201.949219 L 68.898438 -5.328125 Z M 445.390625 170.441406 " clip-rule="nonzero"/></clipPath><clipPath id="89aa2d685e"><path d="M 7 133 L 60 133 L 60 200 L 7 200 Z M 7 133 " clip-rule="nonzero"/></clipPath><clipPath id="0f9f9d657a"><path d="M 445.390625 170.441406 L 348.625 377.714844 L -27.867188 201.949219 L 68.898438 -5.328125 Z M 445.390625 170.441406 " clip-rule="nonzero"/></clipPath><clipPath id="547c56f263"><path d="M 445.390625 170.441406 L 348.625 377.714844 L -27.867188 201.949219 L 68.898438 -5.328125 Z M 445.390625 170.441406 " clip-rule="nonzero"/></clipPath><clipPath id="5959038c6e"><path d="M 445.390625 170.441406 L 348.625 377.714844 L -27.867188 201.949219 L 68.898438 -5.328125 Z M 445.390625 170.441406 " clip-rule="nonzero"/></clipPath><clipPath id="504b7cd337"><path d="M 84.140625 136.640625 L 88.4375 136.640625 L 88.4375 140.246094 L 84.140625 140.246094 Z M 84.140625 136.640625 " clip-rule="nonzero"/></clipPath><clipPath id="b1cc38569f"><path d="M 88.425781 137.925781 C 86.476562 140.925781 84.675781 140.398438 84.300781 139.726562 C 83.925781 139.125 84.300781 137.25 84.824219 136.800781 C 85.425781 136.351562 87.824219 137.023438 87.824219 137.023438 " clip-rule="nonzero"/></clipPath></defs><g clip-path="url(#d4b6cc091f)"><g clip-path="url(#40e3f38991)"><g clip-path="url(#dd6ef0e5a0)"><g clip-path="url(#dfc972e67c)"><path fill="#000000" d="M 238.699219 316.085938 C 239.5 305.769531 283.921875 297.246094 323.1875 300.414062 C 362.453125 303.585938 365.570312 315.882812 364.707031 326.167969 C 363.84375 336.453125 358.839844 348.144531 319.761719 345.0625 C 280.683594 341.980469 237.648438 326.285156 238.699219 316.085938 Z M 238.699219 316.085938 " fill-opacity="1" fill-rule="nonzero"/></g></g></g></g><g clip-path="url(#c19d73caec)"><g clip-path="url(#b262399701)"><g clip-path="url(#14827bbc1b)"><g clip-path="url(#cc9258a380)"><path fill="#000000" d="M 206.582031 268.570312 C 205.195312 261.476562 231.855469 247.847656 256.347656 241.617188 C 280.839844 235.386719 283.703125 241.421875 287.621094 247.953125 C 288.175781 248.835938 288.585938 249.78125 288.855469 250.789062 C 289.125 251.800781 289.238281 252.824219 289.199219 253.867188 C 289.15625 254.910156 288.960938 255.921875 288.617188 256.90625 C 288.269531 257.890625 287.785156 258.804688 287.164062 259.640625 C 285.652344 261.246094 284.015625 262.71875 282.261719 264.050781 C 280.503906 265.382812 278.648438 266.5625 276.695312 267.585938 C 274.742188 268.609375 272.714844 269.460938 270.621094 270.148438 C 268.523438 270.832031 266.386719 271.339844 264.207031 271.667969 C 238.042969 278.558594 208.1875 275.835938 206.582031 268.570312 Z M 206.582031 268.570312 " fill-opacity="1" fill-rule="nonzero"/></g></g></g></g><g clip-path="url(#2c75de509b)"><g clip-path="url(#511256aa3b)"><g clip-path="url(#4c2a17e1b4)"><g clip-path="url(#a88615f9f4)"><path fill="#000000" d="M 321.285156 242.519531 C 319.714844 237.613281 332.214844 227.378906 345.347656 223.425781 C 358.476562 219.472656 361.4375 224.648438 362.980469 229.613281 C 364.527344 234.578125 364.933594 240.683594 352.050781 244.75 C 339.171875 248.820312 322.832031 247.484375 321.285156 242.519531 Z M 321.285156 242.519531 " fill-opacity="1" fill-rule="nonzero"/></g></g></g></g><g clip-path="url(#2b13a7c6a7)"><g clip-path="url(#639ddd3686)"><g clip-path="url(#604007a768)"><g clip-path="url(#a650dc8562)"><path fill="#000000" d="M 210.628906 218.527344 C 204.636719 210.121094 241.347656 168.960938 280.820312 140.535156 C 320.292969 112.113281 331.523438 118.722656 337.402344 127.378906 C 343.28125 136.035156 346.3125 148.519531 306.742188 176.824219 C 267.175781 205.125 216.6875 226.964844 210.628906 218.527344 Z M 210.628906 218.527344 " fill-opacity="1" fill-rule="nonzero"/></g></g></g></g><g clip-path="url(#9599b36bbe)"><g clip-path="url(#22067f1822)"><g clip-path="url(#3e81edb5f1)"><g clip-path="url(#205fa49958)"><path fill="#000000" d="M 159.714844 188.238281 C 155.257812 185.625 164.535156 157.964844 177.492188 135.890625 C 190.449219 113.8125 197.035156 114.308594 201.550781 116.796875 C 206.070312 119.285156 209.871094 124.773438 196.824219 147.039062 C 183.78125 169.300781 164.175781 190.851562 159.714844 188.238281 Z M 159.714844 188.238281 " fill-opacity="1" fill-rule="nonzero"/></g></g></g></g><g clip-path="url(#65e68e2ec7)"><g clip-path="url(#2d7a396a5c)"><g clip-path="url(#ae4559a154)"><g clip-path="url(#65fcdf612f)"><path fill="#000000" d="M 100.644531 176.882812 C 90.398438 178.394531 71.558594 131.464844 65.242188 87.578125 C 58.921875 43.6875 70 37.640625 80.363281 35.882812 C 90.726562 34.125 103.121094 37.257812 109.691406 81.265625 C 116.257812 125.269531 111.109375 175.554688 100.644531 176.882812 Z M 100.644531 176.882812 " fill-opacity="1" fill-rule="nonzero"/></g></g></g></g><g clip-path="url(#89aa2d685e)"><g clip-path="url(#0f9f9d657a)"><g clip-path="url(#547c56f263)"><g clip-path="url(#5959038c6e)"><path fill="#000000" d="M 58.589844 199.476562 C 53.53125 203.179688 31.714844 185.339844 17.34375 165.515625 C 2.96875 145.6875 6.941406 139.128906 12.285156 135.632812 C 17.628906 132.136719 24.597656 129.859375 39.035156 149.714844 C 53.46875 169.566406 63.746094 195.894531 58.589844 199.476562 Z M 58.589844 199.476562 " fill-opacity="1" fill-rule="nonzero"/></g></g></g></g><g clip-path="url(#504b7cd337)"><g clip-path="url(#b1cc38569f)"><path fill="#000000" d="M 81.300781 133.800781 L 91.433594 133.800781 L 91.433594 143.625 L 81.300781 143.625 Z M 81.300781 133.800781 " fill-opacity="1" fill-rule="nonzero"/></g></g></svg>