<svg xmlns="http://www.w3.org/2000/svg" xmlns:xlink="http://www.w3.org/1999/xlink" width="500" zoomAndPan="magnify" viewBox="0 0 375 374.999991" height="500" preserveAspectRatio="xMidYMid meet" version="1.0"><defs><clipPath id="cba6d8f5f2"><path d="M 238 299 L 365 299 L 365 346 L 238 346 Z M 238 299 " clip-rule="nonzero"/></clipPath><clipPath id="e1230ea6e2"><path d="M 445.390625 170.441406 L 348.625 377.714844 L -27.867188 201.949219 L 68.898438 -5.328125 Z M 445.390625 170.441406 " clip-rule="nonzero"/></clipPath><clipPath id="7f16caeaa6"><path d="M 445.390625 170.441406 L 348.625 377.714844 L -27.867188 201.949219 L 68.898438 -5.328125 Z M 445.390625 170.441406 " clip-rule="nonzero"/></clipPath><clipPath id="e558e8364a"><path d="M 206 238 L 290 238 L 290 276 L 206 276 Z M 206 238 " clip-rule="nonzero"/></clipPath><clipPath id="4e22799a75"><path d="M 445.390625 170.441406 L 348.625 377.714844 L -27.867188 201.949219 L 68.898438 -5.328125 Z M 445.390625 170.441406 " clip-rule="nonzero"/></clipPath><clipPath id="e67707a18b"><path d="M 445.390625 170.441406 L 348.625 377.714844 L -27.867188 201.949219 L 68.898438 -5.328125 Z M 445.390625 170.441406 " clip-rule="nonzero"/></clipPath><clipPath id="1a83a1df86"><path d="M 321 221 L 364 221 L 364 248 L 321 248 Z M 321 221 " clip-rule="nonzero"/></clipPath><clipPath id="4a59d6a570"><path d="M 445.390625 170.441406 L 348.625 377.714844 L -27.867188 201.949219 L 68.898438 -5.328125 Z M 445.390625 170.441406 " clip-rule="nonzero"/></clipPath><clipPath id="cb55aadbfb"><path d="M 445.390625 170.441406 L 348.625 377.714844 L -27.867188 201.949219 L 68.898438 -5.328125 Z M 445.390625 170.441406 " clip-rule="nonzero"/></clipPath><clipPath id="f42f442401"><path d="M 209 119 L 341 119 L 341 221 L 209 221 Z M 209 119 " clip-rule="nonzero"/></clipPath><clipPath id="260c01b560"><path d="M 445.390625 170.441406 L 348.625 377.714844 L -27.867188 201.949219 L 68.898438 -5.328125 Z M 445.390625 170.441406 " clip-rule="nonzero"/></clipPath><clipPath id="2f28ac0c11"><path d="M 445.390625 170.441406 L 348.625 377.714844 L -27.867188 201.949219 L 68.898438 -5.328125 Z M 445.390625 170.441406 " clip-rule="nonzero"/></clipPath><clipPath id="c5430b95bb"><path d="M 158 115 L 206 115 L 206 189 L 158 189 Z M 158 115 " clip-rule="nonzero"/></clipPath><clipPath id="7a2405bc7c"><path d="M 445.390625 170.441406 L 348.625 377.714844 L -27.867188 201.949219 L 68.898438 -5.328125 Z M 445.390625 170.441406 " clip-rule="nonzero"/></clipPath><clipPath id="195ddc47ce"><path d="M 445.390625 170.441406 L 348.625 377.714844 L -27.867188 201.949219 L 68.898438 -5.328125 Z M 445.390625 170.441406 " clip-rule="nonzero"/></clipPath><clipPath id="b0f49adf78"><path d="M 63 35 L 113 35 L 113 177 L 63 177 Z M 63 35 " clip-rule="nonzero"/></clipPath><clipPath id="3b06c911c7"><path d="M 445.390625 170.441406 L 348.625 377.714844 L -27.867188 201.949219 L 68.898438 -5.328125 Z M 445.390625 170.441406 " clip-rule="nonzero"/></clipPath><clipPath id="bbd8aaf105"><path d="M 445.390625 170.441406 L 348.625 377.714844 L -27.867188 201.949219 L 68.898438 -5.328125 Z M 445.390625 170.441406 " clip-rule="nonzero"/></clipPath><clipPath id="baa1eee924"><path d="M 7 133 L 60 133 L 60 200 L 7 200 Z M 7 133 " clip-rule="nonzero"/></clipPath><clipPath id="5918b96089"><path d="M 445.390625 170.441406 L 348.625 377.714844 L -27.867188 201.949219 L 68.898438 -5.328125 Z M 445.390625 170.441406 " clip-rule="nonzero"/></clipPath><clipPath id="ea9494315b"><path d="M 445.390625 170.441406 L 348.625 377.714844 L -27.867188 201.949219 L 68.898438 -5.328125 Z M 445.390625 170.441406 " clip-rule="nonzero"/></clipPath><clipPath id="7497fe515c"><path d="M 93.070312 81.027344 L 97.6875 81.027344 L 97.6875 86.1875 L 93.070312 86.1875 Z M 93.070312 81.027344 " clip-rule="nonzero"/></clipPath><clipPath id="207bbb94ec"><path d="M 93.074219 83.324219 C 94.5 81.148438 95.023438 81 95.476562 81.074219 C 96.074219 81.148438 96.976562 81.675781 97.273438 82.199219 C 97.648438 82.726562 97.648438 83.773438 97.425781 84.300781 C 97.125 84.898438 96.375 85.5 95.699219 85.574219 C 95.101562 85.726562 94.125 85.351562 93.75 84.898438 C 93.300781 84.449219 93 83.476562 93.148438 82.875 C 93.300781 82.273438 93.976562 81.449219 94.5 81.226562 C 95.101562 81 96.148438 81.074219 96.601562 81.449219 C 97.199219 81.898438 97.648438 83.175781 97.648438 83.925781 C 97.648438 84.449219 97.425781 85.050781 97.050781 85.425781 C 96.675781 85.800781 96.074219 86.101562 95.550781 86.175781 C 95.023438 86.175781 94.425781 86.023438 93.976562 85.726562 C 93.601562 85.425781 93.074219 84.300781 93.074219 84.300781 " clip-rule="nonzero"/></clipPath></defs><g clip-path="url(#cba6d8f5f2)"><g clip-path="url(#e1230ea6e2)"><g clip-path="url(#7f16caeaa6)"><path fill="#fab158" d="M 238.6875 315.957031 C 239.484375 305.644531 283.917969 297.140625 323.199219 300.324219 C 362.476562 303.507812 365.601562 315.804688 364.742188 326.085938 C 363.882812 336.367188 358.882812 348.050781 319.789062 344.953125 C 280.699219 341.859375 237.640625 326.152344 238.6875 315.957031 Z M 238.6875 315.957031 " fill-opacity="1" fill-rule="nonzero"/></g></g></g><g clip-path="url(#e558e8364a)"><g clip-path="url(#4e22799a75)"><g clip-path="url(#e67707a18b)"><path fill="#fab158" d="M 206.542969 268.441406 C 205.152344 261.355469 231.816406 247.738281 256.316406 241.519531 C 280.8125 235.300781 283.679688 241.335938 287.601562 247.867188 C 288.15625 248.75 288.566406 249.695312 288.835938 250.703125 C 289.105469 251.710938 289.21875 252.734375 289.179688 253.777344 C 289.136719 254.820312 288.945312 255.832031 288.597656 256.816406 C 288.253906 257.800781 287.769531 258.710938 287.148438 259.550781 C 285.636719 261.15625 284 262.625 282.242188 263.957031 C 280.488281 265.289062 278.632812 266.464844 276.675781 267.488281 C 274.722656 268.507812 272.699219 269.363281 270.601562 270.046875 C 268.507812 270.730469 266.367188 271.234375 264.1875 271.5625 C 238.019531 278.441406 208.148438 275.710938 206.542969 268.441406 Z M 206.542969 268.441406 " fill-opacity="1" fill-rule="nonzero"/></g></g></g><g clip-path="url(#1a83a1df86)"><g clip-path="url(#4a59d6a570)"><g clip-path="url(#cb55aadbfb)"><path fill="#fab158" d="M 321.273438 242.445312 C 319.699219 237.542969 332.203125 227.316406 345.335938 223.371094 C 358.46875 219.421875 361.433594 224.597656 362.980469 229.5625 C 364.523438 234.527344 364.933594 240.628906 352.050781 244.691406 C 339.167969 248.753906 322.820312 247.410156 321.273438 242.445312 Z M 321.273438 242.445312 " fill-opacity="1" fill-rule="nonzero"/></g></g></g><g clip-path="url(#f42f442401)"><g clip-path="url(#260c01b560)"><g clip-path="url(#2f28ac0c11)"><path fill="#fab158" d="M 210.574219 218.421875 C 204.574219 210.011719 241.277344 168.878906 280.753906 140.480469 C 320.230469 112.085938 331.464844 118.695312 337.347656 127.351562 C 343.234375 136.007812 346.273438 148.488281 306.699219 176.765625 C 267.128906 205.046875 216.636719 226.859375 210.574219 218.421875 Z M 210.574219 218.421875 " fill-opacity="1" fill-rule="nonzero"/></g></g></g><g clip-path="url(#c5430b95bb)"><g clip-path="url(#7a2405bc7c)"><g clip-path="url(#195ddc47ce)"><path fill="#fab158" d="M 159.628906 188.121094 C 155.167969 185.507812 164.4375 157.859375 177.390625 135.796875 C 190.34375 113.730469 196.929688 114.230469 201.453125 116.71875 C 205.972656 119.207031 209.773438 124.695312 196.734375 146.949219 C 183.695312 169.199219 164.09375 190.734375 159.628906 188.121094 Z M 159.628906 188.121094 " fill-opacity="1" fill-rule="nonzero"/></g></g></g><g clip-path="url(#b0f49adf78)"><g clip-path="url(#3b06c911c7)"><g clip-path="url(#bbd8aaf105)"><path fill="#fab158" d="M 100.535156 176.746094 C 90.285156 178.25 71.421875 131.332031 65.085938 87.457031 C 58.746094 43.578125 69.824219 37.539062 80.191406 35.785156 C 90.554688 34.03125 102.957031 37.167969 109.546875 81.164062 C 116.132812 125.15625 111.003906 175.421875 100.535156 176.746094 Z M 100.535156 176.746094 " fill-opacity="1" fill-rule="nonzero"/></g></g></g><g clip-path="url(#baa1eee924)"><g clip-path="url(#5918b96089)"><g clip-path="url(#ea9494315b)"><path fill="#fab158" d="M 58.476562 199.316406 C 53.414062 203.015625 31.585938 185.171875 17.203125 165.347656 C 2.816406 145.523438 6.785156 138.964844 12.128906 135.476562 C 17.472656 131.984375 24.445312 129.707031 38.894531 149.5625 C 53.339844 169.414062 63.632812 195.738281 58.476562 199.316406 Z M 58.476562 199.316406 " fill-opacity="1" fill-rule="nonzero"/></g></g></g><g clip-path="url(#7497fe515c)"><g clip-path="url(#207bbb94ec)"><path fill="#fab158" d="M 90.074219 78.074219 L 100.726562 78.074219 L 100.726562 89.183594 L 90.074219 89.183594 Z M 90.074219 78.074219 " fill-opacity="1" fill-rule="nonzero"/></g></g></svg>