<svg xmlns="http://www.w3.org/2000/svg" xmlns:xlink="http://www.w3.org/1999/xlink" width="500" zoomAndPan="magnify" viewBox="0 0 375 374.999991" height="500" preserveAspectRatio="xMidYMid meet" version="1.0"><defs><clipPath id="004db5b457"><path d="M 0 37.5 L 375 37.5 L 375 353.25 L 0 353.25 Z M 0 37.5 " clip-rule="nonzero"/></clipPath><clipPath id="f41388357d"><path d="M 69.1875 117.28125 L 69.546875 117.28125 L 69.546875 117.5625 L 69.1875 117.5625 Z M 69.1875 117.28125 " clip-rule="nonzero"/></clipPath><clipPath id="90fdafa9ad"><path d="M 69.523438 117.449219 C 68.851562 117.75 69.449219 117.300781 69.449219 117.300781 " clip-rule="nonzero"/></clipPath></defs><g clip-path="url(#004db5b457)"><path fill="#dd7233" d="M 70.226562 37.976562 L 87.183594 47.769531 L 103.1875 57.085938 L 118.949219 47.769531 L 135.910156 37.976562 L 136.863281 37.5 L 137.820312 37.976562 L 154.539062 47.769531 L 170.542969 57.085938 L 186.542969 47.769531 L 203.503906 37.976562 L 204.457031 37.5 L 205.175781 37.976562 L 239.089844 57.5625 L 239.808594 58.039062 L 239.808594 99.121094 L 239.089844 99.601562 L 222.132812 109.394531 L 206.128906 118.46875 L 206.128906 155.492188 L 222.132812 164.804688 L 238.136719 173.882812 L 254.136719 164.804688 L 271.097656 155.011719 L 271.8125 154.535156 L 272.769531 155.011719 L 289.726562 164.804688 L 305.730469 173.882812 L 321.734375 164.804688 L 338.453125 155.011719 L 339.40625 154.535156 L 340.363281 155.011719 L 357.082031 164.804688 L 374.039062 174.359375 L 374.996094 175.078125 L 374.996094 215.917969 L 374.039062 216.398438 L 357.082031 226.191406 L 341.078125 235.503906 L 341.078125 274.4375 L 340.363281 274.914062 L 323.40625 284.707031 L 307.402344 294.023438 L 307.402344 332.957031 L 306.445312 333.433594 L 289.726562 343.226562 L 272.769531 353.019531 L 271.8125 353.496094 L 271.097656 353.019531 L 254.136719 343.226562 L 238.136719 333.910156 L 222.132812 343.226562 L 205.175781 353.019531 L 204.457031 353.496094 L 203.503906 353.019531 L 186.542969 343.226562 L 169.585938 333.433594 L 168.871094 332.957031 L 168.871094 294.023438 L 152.867188 284.707031 L 135.910156 274.914062 L 134.953125 274.4375 L 134.953125 235.503906 L 118.949219 226.191406 L 103.1875 217.113281 L 87.183594 226.191406 L 70.226562 235.984375 L 69.269531 236.460938 L 68.316406 235.984375 L 51.59375 226.191406 L 34.636719 216.636719 L 33.683594 215.917969 L 33.683594 176.988281 L 17.679688 167.671875 L 0.960938 158.117188 L 0.00390625 157.640625 L 0.00390625 116.558594 L 0.960938 116.082031 L 17.679688 106.289062 L 33.683594 96.972656 L 33.683594 58.039062 L 34.636719 57.5625 L 51.59375 47.769531 L 68.316406 37.976562 L 69.269531 37.5 Z M 204.457031 158.597656 L 188.457031 167.671875 L 172.453125 176.988281 L 172.453125 214.007812 L 188.457031 223.085938 L 204.457031 232.398438 L 220.460938 223.085938 L 236.226562 214.007812 L 236.226562 176.988281 L 220.460938 167.671875 Z M 170.542969 217.113281 L 154.539062 226.191406 L 138.535156 235.503906 L 138.535156 272.527344 L 154.539062 281.601562 L 170.542969 290.917969 L 186.542969 281.601562 L 202.546875 272.527344 L 202.546875 235.503906 L 186.542969 226.191406 Z M 136.863281 232.398438 L 152.867188 223.085938 L 168.871094 214.007812 L 168.871094 176.988281 L 152.867188 167.671875 L 136.863281 158.597656 L 120.863281 167.671875 L 104.859375 176.988281 L 104.859375 214.007812 L 120.863281 223.085938 Z M 170.542969 173.882812 L 186.542969 164.804688 L 202.546875 155.492188 L 202.546875 118.46875 L 186.542969 109.394531 L 170.542969 100.078125 L 154.539062 109.394531 L 138.535156 118.46875 L 138.535156 155.492188 L 154.539062 164.804688 Z M 307.402344 176.988281 L 307.402344 214.007812 L 323.40625 223.085938 L 339.40625 232.398438 L 355.410156 223.085938 L 371.414062 214.007812 L 371.414062 176.988281 L 355.410156 167.671875 L 339.40625 158.597656 L 323.40625 167.671875 Z M 236.226562 330.804688 L 236.226562 294.023438 L 220.460938 284.707031 L 204.457031 275.394531 L 188.457031 284.707031 L 172.453125 294.023438 L 172.453125 330.804688 L 188.457031 340.121094 L 204.457031 349.4375 L 220.460938 340.121094 Z M 305.730469 217.113281 L 289.726562 226.191406 L 273.722656 235.503906 L 273.722656 272.527344 L 289.726562 281.601562 L 305.730469 290.917969 L 321.734375 281.601562 L 337.734375 272.527344 L 337.734375 235.503906 L 321.734375 226.191406 Z M 271.8125 275.394531 L 255.8125 284.707031 L 239.808594 294.023438 L 239.808594 330.804688 L 255.8125 340.121094 L 271.8125 349.4375 L 303.820312 330.804688 L 303.820312 294.023438 L 287.816406 284.707031 Z M 254.136719 226.191406 L 238.136719 217.113281 L 222.132812 226.191406 L 206.128906 235.503906 L 206.128906 272.527344 L 222.132812 281.601562 L 238.136719 290.917969 L 254.136719 281.601562 L 270.140625 272.527344 L 270.140625 235.503906 Z M 239.808594 176.988281 L 239.808594 214.007812 L 255.8125 223.085938 L 271.8125 232.398438 L 287.816406 223.085938 L 303.820312 214.007812 L 303.820312 176.988281 L 287.816406 167.671875 L 271.8125 158.597656 L 255.8125 167.671875 Z M 172.453125 59.953125 L 172.453125 96.972656 L 188.457031 106.289062 L 204.457031 115.363281 L 220.460938 106.289062 L 236.226562 96.972656 L 236.226562 59.953125 L 220.460938 50.875 L 204.457031 41.558594 L 188.457031 50.875 Z M 101.277344 214.007812 L 101.277344 176.988281 L 85.273438 167.671875 L 69.269531 158.597656 L 53.265625 167.671875 L 37.265625 176.988281 L 37.265625 214.007812 L 53.265625 223.085938 L 69.269531 232.398438 L 85.273438 223.085938 Z M 67.597656 155.492188 L 67.597656 118.46875 L 51.59375 109.394531 L 35.59375 100.078125 L 19.589844 109.394531 L 3.585938 118.46875 L 3.585938 155.492188 L 19.589844 164.804688 L 35.59375 173.882812 L 51.59375 164.804688 Z M 118.949219 109.394531 L 103.1875 100.078125 L 87.183594 109.394531 L 71.179688 118.46875 L 71.179688 155.492188 L 87.183594 164.804688 L 103.1875 173.882812 L 118.949219 164.804688 L 134.953125 155.492188 L 134.953125 118.46875 Z M 104.859375 59.953125 L 104.859375 96.972656 L 120.863281 106.289062 L 136.863281 115.363281 L 152.867188 106.289062 L 168.871094 96.972656 L 168.871094 59.953125 L 152.867188 50.875 L 136.863281 41.558594 L 120.863281 50.875 Z M 85.273438 50.875 L 69.269531 41.558594 L 53.265625 50.875 L 37.265625 59.953125 L 37.265625 96.972656 L 53.265625 106.289062 L 69.269531 115.363281 L 85.273438 106.289062 L 101.277344 96.972656 L 101.277344 59.953125 Z M 85.273438 50.875 " fill-opacity="1" fill-rule="nonzero"/></g><g clip-path="url(#f41388357d)"><g clip-path="url(#90fdafa9ad)"><path fill="#dd7233" d="M 65.851562 114.300781 L 72.605469 114.300781 L 72.605469 120.824219 L 65.851562 120.824219 Z M 65.851562 114.300781 " fill-opacity="1" fill-rule="nonzero"/></g></g></svg>