<svg xmlns="http://www.w3.org/2000/svg" xmlns:xlink="http://www.w3.org/1999/xlink" width="500" zoomAndPan="magnify" viewBox="0 0 375 374.999991" height="500" preserveAspectRatio="xMidYMid meet" version="1.0"><defs><clipPath id="08b8390f61"><path d="M 0 41.71875 L 375 41.71875 L 375 333 L 0 333 Z M 0 41.71875 " clip-rule="nonzero"/></clipPath><clipPath id="eae9949d2d"><path d="M 50.726562 164.316406 L 54.988281 164.316406 L 54.988281 167.921875 L 50.726562 167.921875 Z M 50.726562 164.316406 " clip-rule="nonzero"/></clipPath><clipPath id="46c5b1d049"><path d="M 54.976562 165.601562 C 53.101562 168.601562 51.300781 168.074219 50.925781 167.398438 C 50.550781 166.800781 50.851562 164.925781 51.449219 164.476562 C 52.050781 164.023438 54.449219 164.699219 54.449219 164.699219 " clip-rule="nonzero"/></clipPath></defs><g clip-path="url(#08b8390f61)"><path fill="#2a2a2a" d="M 100.921875 41.613281 C 90.648438 41.613281 82.335938 42.199219 76.167969 43.425781 C 70.003906 44.664062 64.800781 46.777344 60.484375 49.648438 C 54.835938 53.25 50.871094 58.257812 48.5625 64.6875 C 46.25 71.105469 45.0625 82.140625 45.0625 97.867188 L 45.0625 135.449219 C 45.0625 151.167969 42.285156 162.179688 36.636719 168.5 C 30.988281 174.816406 21.242188 177.960938 7.476562 177.960938 C 6.757812 177.960938 5.648438 177.9375 4.105469 177.832031 C 2.566406 177.730469 1.300781 177.703125 0.476562 177.703125 L 0.476562 197.269531 C 1.300781 197.269531 2.566406 197.246094 4.105469 197.144531 C 5.648438 197.039062 6.757812 196.890625 7.476562 196.882812 C 21.242188 196.890625 30.988281 200.078125 36.636719 206.347656 C 42.285156 212.613281 45.0625 223.519531 45.0625 239.136719 L 45.0625 276.71875 C 45.0625 292.03125 46.25 303.066406 48.5625 309.640625 C 50.871094 316.214844 54.835938 321.238281 60.484375 324.9375 C 64.800781 327.808594 70.085938 329.921875 76.300781 331.15625 C 82.511719 332.386719 90.75 332.96875 100.921875 332.96875 L 106.234375 332.96875 L 106.234375 313.789062 L 100.40625 313.789062 C 87.457031 313.789062 78.5625 311.308594 74.09375 306.53125 C 69.625 301.753906 67.355469 291.769531 67.355469 276.460938 L 67.355469 239.136719 C 67.355469 222.082031 65.21875 209.988281 60.746094 202.84375 C 56.277344 195.703125 48.304688 190.636719 36.898438 187.550781 C 48.304688 184.371094 56.277344 179.140625 60.746094 171.996094 C 65.21875 164.863281 67.355469 152.769531 67.355469 135.707031 L 67.355469 98.511719 C 67.355469 83.101562 69.675781 72.882812 74.09375 68.054688 C 78.511719 63.226562 86.9375 60.796875 99.367188 60.796875 C 100.085938 60.796875 101.324219 60.953125 102.867188 61.054688 C 104.40625 61.160156 105.414062 61.1875 106.234375 61.1875 L 106.234375 41.613281 Z M 268.375 41.613281 L 268.375 60.796875 L 274.59375 60.796875 C 287.4375 60.796875 295.996094 63.304688 300.515625 68.183594 C 305.039062 73.066406 307.257812 83.207031 307.257812 98.511719 L 307.257812 135.707031 C 307.257812 152.769531 309.523438 164.863281 313.996094 171.996094 C 318.464844 179.140625 326.4375 184.371094 337.84375 187.550781 C 326.4375 190.636719 318.464844 195.703125 313.996094 202.84375 C 309.523438 209.988281 307.257812 222.082031 307.257812 239.136719 L 307.257812 276.070312 C 307.257812 291.585938 304.988281 301.910156 300.515625 306.789062 C 296.046875 311.671875 287.703125 314.046875 275.375 314.046875 C 274.652344 314.046875 273.546875 314.019531 272.003906 313.917969 C 270.460938 313.8125 269.195312 313.789062 268.375 313.789062 L 268.375 332.96875 L 274.722656 332.96875 C 285.203125 332.96875 293.46875 332.46875 299.480469 331.285156 C 305.488281 330.105469 310.507812 328.128906 314.515625 325.449219 C 320.0625 321.757812 323.917969 316.683594 326.179688 310.160156 C 328.4375 303.636719 329.546875 292.445312 329.546875 276.71875 L 329.546875 239.390625 C 329.546875 223.78125 332.53125 212.84375 338.234375 206.472656 C 343.933594 200.105469 353.652344 196.890625 367.523438 196.882812 C 368.242188 196.890625 369.480469 197.039062 371.023438 197.144531 C 372.5625 197.246094 373.699219 197.269531 374.523438 197.269531 L 374.523438 177.703125 C 373.699219 177.703125 372.5625 177.730469 371.023438 177.832031 C 369.480469 177.9375 368.242188 177.960938 367.523438 177.960938 C 353.652344 177.960938 343.933594 174.734375 338.234375 168.371094 C 332.53125 162 329.546875 151.066406 329.546875 135.449219 L 329.546875 97.867188 C 329.546875 82.246094 328.4375 71.15625 326.179688 64.6875 C 323.917969 58.207031 320.0625 53.25 314.515625 49.648438 C 310.199219 46.878906 304.839844 44.839844 298.570312 43.558594 C 292.304688 42.273438 284.222656 41.613281 273.949219 41.613281 Z M 100.277344 134.023438 C 92.894531 134.023438 86.796875 140.125 86.796875 147.503906 C 86.796875 154.886719 92.894531 160.851562 100.277344 160.851562 C 101.242188 160.851562 102.21875 160.789062 103.125 160.589844 L 144.859375 213.472656 C 144.078125 215.175781 143.695312 217.0625 143.695312 219.046875 C 143.695312 226.425781 149.792969 232.394531 157.175781 232.394531 C 164.550781 232.394531 170.652344 226.425781 170.652344 219.046875 C 170.652344 217.15625 170.195312 215.367188 169.484375 213.730469 C 169.605469 213.632812 169.5625 213.585938 169.746094 213.472656 C 170.75 212.84375 172.503906 211.917969 174.539062 210.75 C 178.613281 208.414062 184.261719 205.210938 189.964844 202.066406 C 200.125 196.464844 208.328125 192.074219 210.4375 190.921875 C 212.878906 193.359375 216.210938 194.808594 219.898438 194.808594 C 223.113281 194.808594 226.003906 193.601562 228.328125 191.695312 C 229.375 192.644531 230.445312 193.570312 231.957031 194.808594 C 235.957031 198.09375 241.328125 202.238281 246.859375 206.472656 C 257.734375 214.800781 268.523438 222.789062 268.894531 223.0625 C 268.488281 224.339844 268.246094 225.675781 268.246094 227.082031 C 268.246094 234.460938 274.34375 240.5625 281.726562 240.5625 C 289.101562 240.5625 295.203125 234.460938 295.203125 227.082031 C 295.203125 219.699219 289.101562 213.605469 281.726562 213.605469 C 278.855469 213.605469 276.136719 214.511719 273.949219 216.066406 C 273.4375 215.695312 262.90625 207.949219 252.175781 199.734375 C 246.679688 195.53125 241.253906 191.230469 237.398438 188.074219 C 235.472656 186.492188 233.863281 185.265625 232.992188 184.4375 C 232.90625 184.359375 232.933594 184.386719 232.863281 184.3125 C 233.078125 183.355469 233.378906 182.347656 233.378906 181.328125 C 233.378906 173.949219 227.28125 167.980469 219.898438 167.980469 C 212.519531 167.980469 206.421875 173.949219 206.421875 181.328125 C 206.421875 181.988281 206.460938 182.644531 206.554688 183.273438 C 204.542969 184.359375 196.097656 188.886719 185.816406 194.550781 C 180.09375 197.703125 174.421875 200.980469 170.261719 203.363281 C 168.179688 204.558594 166.40625 205.464844 165.207031 206.214844 C 164.605469 206.589844 164.261719 206.890625 163.78125 207.25 C 163.734375 207.289062 163.703125 207.355469 163.652344 207.382812 C 161.710938 206.292969 159.539062 205.566406 157.175781 205.566406 C 154.90625 205.566406 152.832031 206.246094 150.953125 207.25 L 110.515625 156.058594 C 112.488281 153.714844 113.753906 150.78125 113.753906 147.503906 C 113.753906 140.125 107.652344 134.023438 100.277344 134.023438 Z M 100.277344 141.152344 C 103.78125 141.152344 106.625 143.996094 106.625 147.503906 C 106.625 151.011719 103.78125 153.722656 100.277344 153.722656 C 96.765625 153.722656 94.054688 151.011719 94.054688 147.503906 C 94.054688 143.996094 96.765625 141.152344 100.277344 141.152344 Z M 219.898438 175.109375 C 223.410156 175.109375 226.121094 177.824219 226.121094 181.328125 C 226.121094 184.835938 223.410156 187.683594 219.898438 187.683594 C 216.394531 187.683594 213.550781 184.835938 213.550781 181.328125 C 213.550781 177.824219 216.394531 175.109375 219.898438 175.109375 Z M 232.730469 184.699219 C 232.769531 184.816406 232.824219 184.804688 232.863281 184.960938 C 232.871094 184.992188 232.75 184.9375 232.730469 184.960938 C 232.753906 184.882812 232.710938 184.777344 232.730469 184.699219 Z M 157.175781 212.695312 C 160.679688 212.695312 163.394531 215.539062 163.394531 219.046875 C 163.394531 222.554688 160.679688 225.265625 157.175781 225.265625 C 153.664062 225.265625 150.953125 222.554688 150.953125 219.046875 C 150.953125 215.539062 153.664062 212.695312 157.175781 212.695312 Z M 169.226562 213.472656 C 169.246094 213.484375 169.492188 213.460938 169.484375 213.472656 C 169.355469 213.644531 169.429688 213.507812 169.355469 213.605469 C 169.332031 213.550781 169.25 213.523438 169.226562 213.472656 Z M 281.726562 220.863281 C 285.230469 220.863281 287.945312 223.574219 287.945312 227.082031 C 287.945312 230.585938 285.230469 233.304688 281.726562 233.304688 C 278.214844 233.304688 275.375 230.585938 275.375 227.082031 C 275.375 223.574219 278.214844 220.863281 281.726562 220.863281 Z M 281.726562 220.863281 " fill-opacity="1" fill-rule="nonzero"/></g><g clip-path="url(#eae9949d2d)"><g clip-path="url(#46c5b1d049)"><path fill="#2a2a2a" d="M 47.925781 161.476562 L 58.058594 161.476562 L 58.058594 171.300781 L 47.925781 171.300781 Z M 47.925781 161.476562 " fill-opacity="1" fill-rule="nonzero"/></g></g></svg>