<svg xmlns="http://www.w3.org/2000/svg" xmlns:xlink="http://www.w3.org/1999/xlink" width="500" zoomAndPan="magnify" viewBox="0 0 375 374.999991" height="500" preserveAspectRatio="xMidYMid meet" version="1.0"><path fill="#f6dcca" d="M 150.152344 207.941406 C 156.773438 166.039062 166.914062 115.757812 208.0625 94.554688 C 208.316406 94.441406 208.542969 94.285156 208.734375 94.085938 C 208.929688 93.886719 209.074219 93.65625 209.179688 93.394531 C 209.28125 93.136719 209.328125 92.867188 209.324219 92.589844 C 209.320312 92.3125 209.261719 92.042969 209.148438 91.789062 C 209.039062 91.535156 208.882812 91.308594 208.683594 91.117188 C 208.480469 90.921875 208.253906 90.773438 207.992188 90.671875 C 207.734375 90.570312 207.464844 90.519531 207.1875 90.523438 C 206.910156 90.53125 206.640625 90.585938 206.386719 90.699219 C 182.417969 96.648438 163.308594 78.296875 153.503906 58.347656 C 145.125 40.414062 140.765625 20.550781 132.804688 2.28125 C 131.964844 0.355469 128.867188 1.359375 128.949219 3.371094 C 130.121094 28.011719 130.792969 52.648438 118.222656 74.859375 C 116.957031 77.234375 115.546875 79.519531 113.992188 81.714844 C 112.4375 83.910156 110.746094 86 108.925781 87.980469 C 107.105469 89.960938 105.167969 91.820312 103.109375 93.554688 C 101.050781 95.289062 98.894531 96.886719 96.632812 98.347656 C 94.371094 99.808594 92.027344 101.121094 89.601562 102.285156 C 87.175781 103.445312 84.683594 104.453125 82.128906 105.296875 C 79.574219 106.144531 76.976562 106.824219 74.335938 107.339844 C 71.695312 107.855469 69.03125 108.203125 66.347656 108.382812 C 64.167969 108.382812 63.414062 112.070312 65.84375 112.488281 C 113.109375 121.957031 132.886719 166.292969 146.046875 207.859375 C 146.882812 210.457031 150.992188 209.367188 150.152344 206.769531 C 136.15625 163.777344 115.792969 118.269531 66.933594 108.464844 L 66.347656 112.570312 C 68.957031 112.414062 71.550781 112.105469 74.125 111.644531 C 76.695312 111.183594 79.234375 110.578125 81.738281 109.820312 C 84.242188 109.0625 86.691406 108.160156 89.089844 107.117188 C 91.484375 106.074219 93.816406 104.894531 96.074219 103.578125 C 98.332031 102.261719 100.507812 100.816406 102.597656 99.246094 C 104.6875 97.675781 106.679688 95.988281 108.574219 94.183594 C 110.464844 92.378906 112.246094 90.472656 113.917969 88.457031 C 115.585938 86.445312 117.132812 84.34375 118.558594 82.148438 C 134.730469 58.433594 134.398438 30.691406 133.140625 3.289062 L 129.203125 4.378906 C 143.785156 37.902344 155.011719 107.542969 207.558594 94.636719 L 205.882812 90.867188 C 163.980469 112.824219 152.917969 163.859375 146.046875 206.769531 C 145.628906 209.535156 149.734375 210.625 150.152344 207.941406 Z M 150.152344 207.941406 " fill-opacity="1" fill-rule="nonzero"/><path fill="#f6dcca" d="M 259.871094 73.042969 L 259.871094 82.914062 C 259.871094 83.09375 259.90625 83.265625 259.976562 83.433594 C 260.042969 83.597656 260.140625 83.742188 260.269531 83.871094 C 260.394531 83.996094 260.539062 84.09375 260.707031 84.160156 C 260.871094 84.230469 261.042969 84.265625 261.222656 84.265625 C 261.402344 84.265625 261.574219 84.230469 261.738281 84.160156 C 261.902344 84.09375 262.050781 83.996094 262.175781 83.871094 C 262.300781 83.742188 262.398438 83.597656 262.46875 83.433594 C 262.535156 83.265625 262.570312 83.09375 262.570312 82.914062 L 262.570312 73.042969 C 262.570312 72.863281 262.535156 72.691406 262.46875 72.527344 C 262.398438 72.359375 262.300781 72.214844 262.175781 72.089844 C 262.050781 71.960938 261.902344 71.863281 261.738281 71.796875 C 261.574219 71.726562 261.402344 71.691406 261.222656 71.691406 C 261.042969 71.691406 260.871094 71.726562 260.707031 71.796875 C 260.539062 71.863281 260.394531 71.960938 260.269531 72.089844 C 260.140625 72.214844 260.042969 72.359375 259.976562 72.527344 C 259.90625 72.691406 259.871094 72.863281 259.871094 73.042969 Z M 259.871094 73.042969 " fill-opacity="1" fill-rule="nonzero"/><path fill="#f6dcca" d="M 259.871094 91.980469 L 259.871094 101.855469 C 259.871094 102.035156 259.90625 102.207031 259.976562 102.371094 C 260.042969 102.535156 260.140625 102.683594 260.269531 102.808594 C 260.394531 102.933594 260.539062 103.03125 260.707031 103.101562 C 260.871094 103.167969 261.042969 103.203125 261.222656 103.203125 C 261.402344 103.203125 261.574219 103.167969 261.738281 103.101562 C 261.902344 103.03125 262.050781 102.933594 262.175781 102.808594 C 262.300781 102.683594 262.398438 102.535156 262.46875 102.371094 C 262.535156 102.207031 262.570312 102.035156 262.570312 101.855469 L 262.570312 91.980469 C 262.570312 91.800781 262.535156 91.628906 262.46875 91.464844 C 262.398438 91.300781 262.300781 91.152344 262.175781 91.027344 C 262.050781 90.898438 261.902344 90.804688 261.738281 90.734375 C 261.574219 90.664062 261.402344 90.632812 261.222656 90.632812 C 261.042969 90.632812 260.871094 90.664062 260.707031 90.734375 C 260.539062 90.804688 260.394531 90.898438 260.269531 91.027344 C 260.140625 91.152344 260.042969 91.300781 259.976562 91.464844 C 259.90625 91.628906 259.871094 91.800781 259.871094 91.980469 Z M 259.871094 91.980469 " fill-opacity="1" fill-rule="nonzero"/><path fill="#f6dcca" d="M 277.679688 85.882812 L 267.804688 85.882812 C 267.625 85.882812 267.453125 85.917969 267.289062 85.984375 C 267.121094 86.054688 266.976562 86.152344 266.851562 86.277344 C 266.722656 86.40625 266.625 86.550781 266.558594 86.714844 C 266.488281 86.882812 266.457031 87.054688 266.457031 87.230469 C 266.457031 87.410156 266.488281 87.582031 266.558594 87.75 C 266.625 87.914062 266.722656 88.058594 266.851562 88.1875 C 266.976562 88.3125 267.121094 88.410156 267.289062 88.480469 C 267.453125 88.546875 267.625 88.582031 267.804688 88.582031 L 277.679688 88.582031 C 277.855469 88.582031 278.03125 88.546875 278.195312 88.480469 C 278.359375 88.410156 278.503906 88.3125 278.632812 88.1875 C 278.757812 88.058594 278.855469 87.914062 278.925781 87.75 C 278.992188 87.582031 279.027344 87.410156 279.027344 87.230469 C 279.027344 87.054688 278.992188 86.882812 278.925781 86.714844 C 278.855469 86.550781 278.757812 86.40625 278.632812 86.277344 C 278.503906 86.152344 278.359375 86.054688 278.195312 85.984375 C 278.03125 85.917969 277.855469 85.882812 277.679688 85.882812 Z M 277.679688 85.882812 " fill-opacity="1" fill-rule="nonzero"/><path fill="#f6dcca" d="M 254.746094 85.882812 L 244.871094 85.882812 C 244.695312 85.882812 244.523438 85.917969 244.355469 85.984375 C 244.191406 86.054688 244.046875 86.152344 243.917969 86.277344 C 243.792969 86.40625 243.695312 86.550781 243.625 86.714844 C 243.558594 86.882812 243.523438 87.054688 243.523438 87.230469 C 243.523438 87.410156 243.558594 87.582031 243.625 87.75 C 243.695312 87.914062 243.792969 88.058594 243.917969 88.1875 C 244.046875 88.3125 244.191406 88.410156 244.355469 88.480469 C 244.523438 88.546875 244.695312 88.582031 244.871094 88.582031 L 254.746094 88.582031 C 254.925781 88.582031 255.097656 88.546875 255.261719 88.480469 C 255.429688 88.410156 255.574219 88.3125 255.699219 88.1875 C 255.828125 88.058594 255.925781 87.914062 255.992188 87.75 C 256.0625 87.582031 256.097656 87.410156 256.097656 87.230469 C 256.097656 87.054688 256.0625 86.882812 255.992188 86.714844 C 255.925781 86.550781 255.828125 86.40625 255.699219 86.277344 C 255.574219 86.152344 255.429688 86.054688 255.261719 85.984375 C 255.097656 85.917969 254.925781 85.882812 254.746094 85.882812 Z M 254.746094 85.882812 " fill-opacity="1" fill-rule="nonzero"/><path fill="#f6dcca" d="M 224.839844 167.054688 C 218.21875 208.957031 208.078125 259.238281 166.929688 280.441406 C 166.675781 280.554688 166.449219 280.710938 166.257812 280.910156 C 166.0625 281.109375 165.914062 281.339844 165.8125 281.601562 C 165.710938 281.859375 165.664062 282.128906 165.667969 282.40625 C 165.671875 282.683594 165.730469 282.953125 165.84375 283.207031 C 165.953125 283.460938 166.109375 283.6875 166.308594 283.878906 C 166.511719 284.074219 166.738281 284.222656 167 284.324219 C 167.257812 284.425781 167.527344 284.476562 167.804688 284.46875 C 168.082031 284.464844 168.351562 284.40625 168.605469 284.296875 C 192.574219 278.347656 211.683594 296.699219 221.488281 316.648438 C 229.867188 334.582031 234.226562 354.441406 242.1875 372.710938 C 243.023438 374.640625 246.125 373.632812 246.042969 371.625 C 244.867188 346.984375 244.199219 322.34375 256.769531 300.136719 C 258.035156 297.761719 259.445312 295.476562 261 293.28125 C 262.554688 291.085938 264.246094 288.996094 266.066406 287.015625 C 267.886719 285.03125 269.824219 283.175781 271.882812 281.441406 C 273.941406 279.703125 276.097656 278.105469 278.359375 276.648438 C 280.621094 275.1875 282.960938 273.875 285.390625 272.710938 C 287.816406 271.550781 290.308594 270.542969 292.863281 269.699219 C 295.417969 268.851562 298.015625 268.171875 300.65625 267.65625 C 303.296875 267.140625 305.960938 266.792969 308.644531 266.613281 C 310.824219 266.613281 311.578125 262.925781 309.148438 262.507812 C 261.882812 253.039062 242.101562 208.703125 228.945312 167.136719 C 228.109375 164.539062 224 165.628906 224.839844 168.226562 C 238.835938 211.21875 259.199219 256.726562 308.058594 266.53125 L 308.644531 262.425781 C 306.035156 262.582031 303.441406 262.890625 300.867188 263.351562 C 298.296875 263.808594 295.757812 264.417969 293.253906 265.175781 C 290.75 265.933594 288.300781 266.835938 285.902344 267.878906 C 283.507812 268.921875 281.175781 270.101562 278.917969 271.417969 C 276.660156 272.734375 274.484375 274.179688 272.394531 275.75 C 270.304688 277.320312 268.3125 279.007812 266.417969 280.8125 C 264.527344 282.617188 262.742188 284.523438 261.074219 286.535156 C 259.40625 288.550781 257.859375 290.652344 256.433594 292.84375 C 240.257812 316.5625 240.59375 344.300781 241.851562 371.707031 L 245.789062 370.617188 C 231.207031 337.09375 219.980469 267.453125 167.433594 280.359375 L 169.109375 284.128906 C 211.011719 262.171875 222.074219 211.136719 228.945312 168.226562 C 229.363281 165.460938 225.257812 164.371094 224.839844 167.054688 Z M 224.839844 167.054688 " fill-opacity="1" fill-rule="nonzero"/><path fill="#f6dcca" d="M 103.742188 257.332031 L 103.742188 267.207031 C 103.742188 267.386719 103.777344 267.558594 103.84375 267.722656 C 103.914062 267.886719 104.011719 268.035156 104.136719 268.160156 C 104.265625 268.289062 104.410156 268.382812 104.574219 268.453125 C 104.742188 268.523438 104.914062 268.554688 105.09375 268.554688 C 105.269531 268.554688 105.441406 268.523438 105.609375 268.453125 C 105.773438 268.382812 105.917969 268.289062 106.046875 268.160156 C 106.171875 268.035156 106.269531 267.886719 106.339844 267.722656 C 106.40625 267.558594 106.441406 267.386719 106.441406 267.207031 L 106.441406 257.332031 C 106.441406 257.152344 106.40625 256.980469 106.339844 256.816406 C 106.269531 256.652344 106.171875 256.503906 106.046875 256.378906 C 105.917969 256.253906 105.773438 256.15625 105.609375 256.085938 C 105.441406 256.019531 105.269531 255.984375 105.09375 255.984375 C 104.914062 255.984375 104.742188 256.019531 104.574219 256.085938 C 104.410156 256.15625 104.265625 256.253906 104.136719 256.378906 C 104.011719 256.503906 103.914062 256.652344 103.84375 256.816406 C 103.777344 256.980469 103.742188 257.152344 103.742188 257.332031 Z M 103.742188 257.332031 " fill-opacity="1" fill-rule="nonzero"/><path fill="#f6dcca" d="M 103.742188 276.273438 L 103.742188 286.144531 C 103.742188 286.324219 103.777344 286.496094 103.84375 286.660156 C 103.914062 286.828125 104.011719 286.972656 104.136719 287.097656 C 104.265625 287.226562 104.410156 287.324219 104.574219 287.390625 C 104.742188 287.460938 104.914062 287.496094 105.09375 287.496094 C 105.269531 287.496094 105.441406 287.460938 105.609375 287.390625 C 105.773438 287.324219 105.917969 287.226562 106.046875 287.097656 C 106.171875 286.972656 106.269531 286.828125 106.339844 286.660156 C 106.40625 286.496094 106.441406 286.324219 106.441406 286.144531 L 106.441406 276.273438 C 106.441406 276.09375 106.40625 275.921875 106.339844 275.753906 C 106.269531 275.589844 106.171875 275.445312 106.046875 275.316406 C 105.917969 275.191406 105.773438 275.09375 105.609375 275.023438 C 105.441406 274.957031 105.269531 274.921875 105.09375 274.921875 C 104.914062 274.921875 104.742188 274.957031 104.574219 275.023438 C 104.410156 275.09375 104.265625 275.191406 104.136719 275.316406 C 104.011719 275.445312 103.914062 275.589844 103.84375 275.753906 C 103.777344 275.921875 103.742188 276.09375 103.742188 276.273438 Z M 103.742188 276.273438 " fill-opacity="1" fill-rule="nonzero"/><path fill="#f6dcca" d="M 121.546875 270.175781 L 111.675781 270.175781 C 111.496094 270.175781 111.324219 270.207031 111.160156 270.277344 C 110.992188 270.34375 110.847656 270.441406 110.722656 270.570312 C 110.59375 270.695312 110.496094 270.84375 110.429688 271.007812 C 110.359375 271.171875 110.324219 271.34375 110.324219 271.523438 C 110.324219 271.703125 110.359375 271.875 110.429688 272.039062 C 110.496094 272.203125 110.59375 272.351562 110.722656 272.476562 C 110.847656 272.605469 110.992188 272.699219 111.160156 272.769531 C 111.324219 272.839844 111.496094 272.871094 111.675781 272.871094 L 121.546875 272.871094 C 121.726562 272.871094 121.898438 272.839844 122.066406 272.769531 C 122.230469 272.699219 122.375 272.605469 122.503906 272.476562 C 122.628906 272.351562 122.726562 272.203125 122.796875 272.039062 C 122.863281 271.875 122.898438 271.703125 122.898438 271.523438 C 122.898438 271.34375 122.863281 271.171875 122.796875 271.007812 C 122.726562 270.84375 122.628906 270.695312 122.503906 270.570312 C 122.375 270.441406 122.230469 270.34375 122.066406 270.277344 C 121.898438 270.207031 121.726562 270.175781 121.546875 270.175781 Z M 121.546875 270.175781 " fill-opacity="1" fill-rule="nonzero"/><path fill="#f6dcca" d="M 98.617188 270.175781 L 88.742188 270.175781 C 88.5625 270.175781 88.390625 270.207031 88.226562 270.277344 C 88.0625 270.34375 87.914062 270.441406 87.789062 270.570312 C 87.664062 270.695312 87.566406 270.84375 87.496094 271.007812 C 87.429688 271.171875 87.394531 271.34375 87.394531 271.523438 C 87.394531 271.703125 87.429688 271.875 87.496094 272.039062 C 87.566406 272.203125 87.664062 272.351562 87.789062 272.476562 C 87.914062 272.605469 88.0625 272.699219 88.226562 272.769531 C 88.390625 272.839844 88.5625 272.871094 88.742188 272.871094 L 98.617188 272.871094 C 98.796875 272.871094 98.96875 272.839844 99.132812 272.769531 C 99.296875 272.699219 99.445312 272.605469 99.570312 272.476562 C 99.699219 272.351562 99.792969 272.203125 99.863281 272.039062 C 99.933594 271.875 99.964844 271.703125 99.964844 271.523438 C 99.964844 271.34375 99.933594 271.171875 99.863281 271.007812 C 99.792969 270.84375 99.699219 270.695312 99.570312 270.570312 C 99.445312 270.441406 99.296875 270.34375 99.132812 270.277344 C 98.96875 270.207031 98.796875 270.175781 98.617188 270.175781 Z M 98.617188 270.175781 " fill-opacity="1" fill-rule="nonzero"/></svg>